<svg id="Layer_1" data-name="Layer 1" xmlns="http://www.w3.org/2000/svg" viewBox="0 0 3000 1200"><defs><style>.cls-1{fill:#231f20;}</style></defs><path class="cls-1" d="M513.28,957.13C287.86,936.57,172.17,835.79,114.19,752,77.93,699.67,59.12,637.27,59.12,573.62h0V41.91a3.37,3.37,0,0,1,4.59-3.17C82.06,46,152.17,75.91,215.65,132.07c59.43,52.59,92.82,128.54,92.82,207.8V614.08a366.23,366.23,0,0,0,2.63,47.06C335.34,849,481.64,937.09,514.16,954.5A1.42,1.42,0,0,1,513.28,957.13Z"/><ellipse class="cls-1" cx="593.38" cy="970.79" rx="48.01" ry="47.91"/><path class="cls-1" d="M768.14,957.14V404.84H897V853h276V957.14Z"/><path class="cls-1" d="M1463.14,963.45q-67.22,0-119.79-28.4t-82.62-77.72q-30.06-49.29-30-112.43,0-63.92,30-113.22t82.62-77.33q52.58-28,119.79-28,68,0,121,28t83,77.33q30,49.32,30,113.22t-30,112.83q-30.06,48.93-83,77.32T1463.14,963.45Zm0-101q31.6,0,55.74-13.81T1557.62,808q14.63-26.82,14.63-63.12,0-37.08-14.63-63.12t-38.74-39.85q-24.12-13.78-55-13.8t-55.35,13.8q-24.51,13.82-39.14,39.85t-14.62,63.12q0,36.3,14.62,63.12t39.14,40.63Q1433.09,862.47,1463.14,862.46Z"/><path class="cls-1" d="M1752.52,636.81V542.12h294.92v94.69Zm65.63,320.33V523.19q0-72.59,42.69-115.2t121.77-42.6a241.13,241.13,0,0,1,51.39,5.52q25.29,5.54,42.7,16.57l-32.42,89.95a84.39,84.39,0,0,0-22.93-11.05,89.8,89.8,0,0,0-26.88-3.94q-26.9,0-41.51,15t-14.63,47.34v39.45l4,52.07V957.14Z"/><path class="cls-1" d="M2082.23,636.81V542.12h294.92v94.69Zm224.55,326.64q-75.14,0-117-38.26t-41.91-114V438.77H2272v370q0,26.84,13.83,41.82t37.56,15q30,0,50.6-15.78l32.42,86.79q-18.2,13.43-44.67,20.12A223.64,223.64,0,0,1,2306.78,963.45Z"/><path class="cls-1" d="M2555,1116.52a214.12,214.12,0,0,1-64.84-10.26q-32.43-10.26-53.76-28.4l45.07-88.37a98.57,98.57,0,0,0,32.81,20.51,104.3,104.3,0,0,0,37.56,7.11q25.29,0,40.72-12.23t28.06-40.64l22.14-52.07,9.49-13.42,153.39-366.09h117.81L2731.36,983.18q-20.58,52.08-47.05,80.87t-58.51,40.64Q2593.79,1116.52,2555,1116.52Zm72.74-142.81-189-441.05h126.51L2713.17,888.5Z"/></svg>