<svg width="240" height="150" viewBox="0 0 240 150" fill="none" xmlns="http://www.w3.org/2000/svg">
<path fill-rule="evenodd" clip-rule="evenodd" d="M204.816 87.0739C209.898 81.5374 216.768 83.1778 220.632 90.8509L221.547 92.6668L221.861 92.6045C229.081 91.1744 236.02 97.5831 238.896 108.336L240 112.463H150.359L151.356 108.734C153.954 99.0162 160.222 93.2247 166.743 94.517L167.027 94.5733L167.853 92.9323C171.344 85.9982 177.548 84.5158 182.139 89.519C182.139 87.7632 193.936 70.0515 204.816 87.0739Z" fill="#0F175F"/>
<path d="M202.999 109.481C202.241 96.2961 203.821 88.0552 207.665 84.7796C207.665 84.7796 207.594 84.5128 207.514 84.4185C207.439 84.3305 207.199 84.2327 207.199 84.2327C203.127 87.7031 201.512 96.126 202.282 109.523C202.282 109.523 202.518 109.636 202.634 109.629C202.757 109.622 202.999 109.481 202.999 109.481Z" fill="white"/>
<path d="M195.26 74.7077C195.26 74.7077 195.26 74.7077 195.26 74.7077L195.426 74.356C195.361 74.4929 195.307 74.6091 195.26 74.7077ZM198.482 75.5286C198.484 75.5364 198.486 75.544 198.488 75.5516C198.584 75.5712 198.711 75.588 198.876 75.592C198.884 75.5908 198.893 75.5897 198.902 75.5885C198.972 75.5794 199.07 75.5682 199.189 75.5579C199.425 75.5376 199.754 75.5207 200.125 75.5351C200.81 75.5619 201.843 75.7013 202.631 76.3289C202.641 76.3355 202.651 76.3432 202.663 76.352C202.698 76.3782 202.744 76.4143 202.799 76.4594C202.907 76.5486 203.052 76.6783 203.202 76.8421C203.478 77.143 203.888 77.6855 203.951 78.3964L203.965 78.5522L203.93 78.7047L202.955 78.4845C203.93 78.7047 203.93 78.7054 203.93 78.7062L203.93 78.7077L203.929 78.7107L203.927 78.7169L203.924 78.73C203.922 78.7389 203.919 78.7484 203.917 78.7585C203.911 78.7785 203.904 78.801 203.896 78.8253C203.879 78.8734 203.855 78.9325 203.82 78.9971C203.752 79.124 203.63 79.297 203.421 79.4341C203.314 79.5046 203.205 79.5538 203.095 79.5858C203.224 79.7451 203.363 79.9294 203.496 80.1299C203.713 80.4576 203.946 80.8786 204.067 81.3377C204.188 81.8009 204.22 82.4175 203.859 82.9898L203.718 83.2121L203.487 83.3365L203.013 82.4555C203.487 83.3365 203.486 83.3368 203.485 83.3371L203.484 83.3377L203.482 83.339L203.477 83.3417L203.466 83.3474C203.458 83.3513 203.45 83.3555 203.44 83.3599C203.422 83.3688 203.4 83.3786 203.376 83.3889C203.327 83.4094 203.265 83.4324 203.192 83.4534C203.047 83.4952 202.848 83.532 202.611 83.5202C202.184 83.4991 201.739 83.3253 201.348 82.9465C201.418 83.7751 201.333 84.7102 200.904 85.6262L200.893 85.6479L200.882 85.669L199.998 85.2014C200.882 85.669 200.882 85.6692 200.882 85.6694L200.882 85.6698L200.881 85.6707L200.88 85.673L200.877 85.679L200.867 85.697C200.859 85.7116 200.848 85.7311 200.835 85.7551C200.808 85.8028 200.769 85.8685 200.721 85.9468C200.625 86.1019 200.485 86.3136 200.31 86.536C200.138 86.7556 199.916 87.0054 199.653 87.2232C199.396 87.4359 199.048 87.6614 198.623 87.7582L198.459 87.7956L198.292 87.7772L198.401 86.7832C198.292 87.7772 198.291 87.7771 198.29 87.777L198.289 87.7768L198.285 87.7764L198.278 87.7756L198.262 87.7735C198.251 87.772 198.239 87.7702 198.226 87.768C198.201 87.7637 198.17 87.7578 198.137 87.75C198.07 87.7343 197.987 87.7101 197.894 87.6727C197.719 87.6021 197.506 87.4825 197.303 87.2832C197.083 87.8696 196.751 88.4781 196.24 88.9274L196.202 88.9607L196.161 88.9901L195.58 88.1768C196.161 88.9901 196.161 88.9903 196.161 88.9905L196.16 88.991L196.159 88.9921L196.155 88.9944L196.148 88.9998L196.127 89.0136C196.112 89.024 196.092 89.0368 196.069 89.0515C196.023 89.0807 195.96 89.1181 195.883 89.1582C195.734 89.2365 195.515 89.3356 195.25 89.4C194.704 89.5327 193.863 89.5256 193.2 88.787L193.119 88.6966L193.061 88.5894L193.944 88.1189C193.061 88.5894 193.061 88.5886 193.061 88.5879L193.06 88.5865L193.058 88.5835L193.055 88.5772L193.048 88.5635C193.043 88.5539 193.038 88.5431 193.033 88.5313C193.021 88.5076 193.009 88.4796 192.996 88.4472C192.991 88.434 192.985 88.42 192.979 88.4054C192.911 88.4931 192.835 88.5836 192.752 88.6754C192.187 89.2968 191.279 89.9636 189.912 90.2233L189.853 90.2346L189.793 90.2387L189.726 89.2409C189.793 90.2387 189.792 90.2387 189.792 90.2387L189.791 90.2388L189.79 90.2389L189.786 90.2391L189.776 90.2397L189.746 90.2412C189.723 90.2422 189.691 90.2434 189.653 90.2441C189.576 90.2456 189.471 90.2455 189.345 90.2401C189.097 90.2294 188.751 90.1972 188.38 90.1055C187.685 89.9335 186.589 89.4599 186.29 88.1929L186.282 88.1618L186.277 88.1303L187.263 87.963C186.277 88.1303 186.277 88.1296 186.277 88.129L186.276 88.1277L186.276 88.1249L186.275 88.119L186.273 88.1052C186.272 88.1027 186.272 88.1 186.272 88.0972C186.271 88.0892 186.269 88.0802 186.268 88.0703C186.265 88.0438 186.261 88.0109 186.258 87.9719C186.252 87.8939 186.247 87.7914 186.249 87.6673C186.253 87.4191 186.285 87.0844 186.387 86.6883C186.49 86.2849 186.663 85.8274 186.942 85.3397C186.726 85.3558 186.451 85.335 186.175 85.1954L186.104 85.1593L186.039 85.1123L186.627 84.3033C186.039 85.1123 186.038 85.1118 186.037 85.1113L186.036 85.1103L186.033 85.1081L186.027 85.1035L186.013 85.093C186.003 85.0854 185.992 85.0766 185.98 85.0665C185.955 85.0465 185.926 85.0213 185.894 84.9909C185.829 84.9305 185.749 84.8471 185.668 84.7397C185.505 84.5245 185.326 84.2019 185.263 83.7749C185.13 82.8723 185.548 81.8884 186.633 80.8592L186.691 80.8044L186.757 80.7594L187.321 81.5847C186.757 80.7594 186.757 80.7592 186.757 80.759L186.758 80.7587L186.759 80.7579L186.762 80.7561L186.768 80.7516L186.787 80.7392C186.802 80.7295 186.821 80.717 186.845 80.7018C186.894 80.6714 186.961 80.6307 187.047 80.5818C187.218 80.4841 187.465 80.3538 187.784 80.2095C187.997 80.1131 188.243 80.0103 188.522 79.9068C188.391 79.9116 188.238 79.911 188.077 79.8974C187.847 79.8779 187.513 79.825 187.2 79.6555C186.85 79.4659 186.497 79.1058 186.426 78.544L186.426 78.538L187.419 78.4197C186.426 78.538 186.426 78.5368 186.425 78.5356L186.425 78.5331L186.425 78.528L186.423 78.5176L186.421 78.4951C186.42 78.4794 186.419 78.4623 186.419 78.444C186.417 78.4073 186.417 78.3653 186.42 78.3186C186.426 78.2251 186.442 78.1127 186.478 77.9879C186.552 77.7309 186.703 77.4515 186.967 77.1945C187.464 76.7104 188.276 76.3839 189.522 76.2624C189.496 76.2216 189.472 76.1787 189.45 76.1336C189.189 75.6081 189.292 75.0603 189.527 74.6165L189.56 74.5555L189.6 74.4995L190.411 75.0853C189.6 74.4995 189.601 74.4988 189.601 74.4981L189.602 74.4967L189.604 74.4937L189.609 74.4876L189.619 74.4742C189.626 74.4648 189.634 74.4546 189.643 74.4436C189.661 74.4215 189.683 74.3962 189.709 74.3685C189.76 74.313 189.827 74.2476 189.912 74.1781C190.084 74.0384 190.323 73.8859 190.642 73.767C191.291 73.5252 192.183 73.4521 193.367 73.7744L193.409 73.7857L193.45 73.8006L193.105 74.7393C193.45 73.8006 193.45 73.8006 193.45 73.8007L193.45 73.8008L193.451 73.8011L193.453 73.8018L193.459 73.8039L193.475 73.8102C193.489 73.8154 193.508 73.8225 193.531 73.8317C193.577 73.85 193.642 73.8762 193.723 73.9103C193.778 73.9334 193.839 73.9602 193.908 73.9907C193.904 73.9617 193.902 73.9321 193.9 73.9019C193.871 73.2763 194.297 72.8988 194.605 72.7271C195.125 72.4374 195.735 72.4825 196.178 72.604C196.66 72.7361 197.17 73.0152 197.558 73.4621C197.949 73.9115 198.168 74.4646 198.305 74.8979C198.377 75.1233 198.435 75.3424 198.482 75.5286ZM202.939 77.6666C202.939 77.6666 202.938 77.6663 202.937 77.6658C202.938 77.6664 202.939 77.6666 202.939 77.6666ZM201.898 82.0661L201.283 82.4274C201.283 82.4274 201.283 82.4275 201.283 82.4275L201.898 82.0661ZM196.806 80.6187L196.369 80.7919C196.369 80.7919 196.369 80.7919 196.369 80.7919C196.61 80.6965 196.738 80.6458 196.806 80.6188C196.806 80.6188 196.806 80.6188 196.806 80.6187ZM188.985 79.7444C188.985 79.7444 188.985 79.7443 188.985 79.7443L188.841 78.8749C188.924 79.3765 188.965 79.6231 188.985 79.7444ZM189.729 77.2476C189.708 76.8617 189.695 76.6249 189.687 76.4797C189.687 76.4796 189.687 76.4796 189.687 76.4796L189.729 77.2476ZM195.483 74.5109C195.483 74.5109 195.484 74.5108 195.487 74.5104C195.484 74.5107 195.483 74.5109 195.483 74.5109Z" fill="#0F175F" stroke="#0F175F" stroke-width="2"/>
<path d="M197.061 117.026C197.819 103.841 196.239 95.6001 192.396 92.3245C192.396 92.3245 192.466 92.0577 192.547 91.9634C192.622 91.8754 192.862 91.7776 192.862 91.7776C196.934 95.248 198.549 103.671 197.779 117.067C197.779 117.067 197.542 117.181 197.426 117.174C197.303 117.167 197.061 117.026 197.061 117.026Z" fill="white"/>
<path d="M181.426 96.9873C179.469 97.7729 177.635 98.9482 176.129 100.278L176.067 100.333L175.929 100.457L175.794 100.581L175.664 100.704C175.642 100.725 175.621 100.745 175.6 100.765L175.475 100.887L175.354 101.008L175.237 101.127C175.199 101.166 175.161 101.206 175.125 101.245L175.017 101.36L174.914 101.474L174.816 101.585L174.723 101.694L174.635 101.801C174.607 101.835 174.579 101.87 174.553 101.904L174.476 102.004C174.341 102.184 174.235 102.347 174.163 102.487L174.14 102.534L174.06 102.477C169.419 99.2305 163.282 100.32 159.804 105.062L159.041 106.101L158.863 106.077C152.257 105.179 145.912 109.203 143.285 115.946L142.288 118.506C142.242 118.623 142.329 118.75 142.455 118.75H232.096C232.222 118.75 232.309 118.623 232.263 118.506L231.159 115.673L231.071 115.451C228.114 108.131 221.164 103.782 213.933 104.765L213.724 104.793L212.873 103.633L212.754 103.474C208.85 98.3182 202.055 97.2046 196.959 100.889L196.933 100.908L197.043 101.025C192.202 95.8276 186.794 94.8337 181.426 96.9873Z" fill="#0F175F"/>
<path d="M196.781 101.27C196.844 101.337 196.947 101.346 197.02 101.291C202.022 97.5524 208.778 98.6596 212.584 103.846L213.499 105.092C213.538 105.145 213.603 105.172 213.668 105.164L213.982 105.121L214.196 105.093C221.254 104.238 228.007 108.573 230.826 115.804L231.834 118.391H142.719L143.62 116.077C146.189 109.483 152.379 105.558 158.815 106.433L159.099 106.472C159.164 106.481 159.229 106.453 159.268 106.4L160.094 105.274C163.527 100.595 169.618 99.5963 174.128 102.969C174.241 103.054 174.4 102.981 174.414 102.845L174.415 102.825C174.415 102.78 174.44 102.712 174.486 102.626L174.517 102.572L174.552 102.513C174.558 102.503 174.565 102.493 174.572 102.483L174.615 102.418C174.622 102.407 174.63 102.396 174.638 102.385L174.688 102.315L174.743 102.242L174.833 102.126L174.899 102.044L174.969 101.96L175.043 101.874L175.12 101.785C175.134 101.77 175.147 101.755 175.161 101.739L175.244 101.647L175.331 101.553L175.421 101.457L175.563 101.31L175.661 101.211L175.763 101.11L175.867 101.009L175.974 100.907L176.083 100.804L176.195 100.701L176.31 100.598C176.329 100.581 176.348 100.564 176.368 100.547C177.844 99.2434 179.643 98.0901 181.561 97.3207C186.795 95.2205 192.045 96.1853 196.781 101.27Z" fill="white"/>
<path d="M194.731 77.0674C194.758 77.0517 194.808 77.024 194.879 76.986C194.995 76.9235 195.131 76.8542 195.284 76.7797C195.719 76.5678 196.21 76.3562 196.747 76.1588C199.015 75.3251 201.345 74.9954 203.534 75.4671C207.688 76.362 210.62 79.9931 211.797 86.9967L211.145 87.1069C210.01 80.3528 207.261 76.9481 203.396 76.1154C201.347 75.6741 199.136 75.9869 196.975 76.7814C196.46 76.9708 195.989 77.1737 195.572 77.3763C195.427 77.4469 195.299 77.5123 195.19 77.5707C195.126 77.6052 195.083 77.6293 195.062 77.6413L194.731 77.0674Z" fill="#0F175F"/>
<path d="M210.914 78.8437L210.833 78.906C209.865 79.6599 209.169 80.6578 208.749 81.8916L208.711 82.0063L208.69 82.0225C208.384 82.2452 207.845 82.3387 207.068 82.2751L207.04 82.2739C205.213 82.2666 203.696 82.7659 202.505 83.7747L202.491 83.7875C201.384 84.8314 200.755 85.8531 200.622 86.8604L200.615 86.9068L200.621 86.9533C200.703 87.5894 201.225 87.7304 201.841 87.4173L201.938 87.3681L201.992 87.2734L202.042 87.186C202.739 85.9748 203.493 85.2302 204.291 84.9358L204.319 84.9257L204.382 84.9173C204.472 84.9069 204.547 84.9042 204.607 84.9085L204.629 84.9104L204.636 84.9111L204.128 85.46L203.848 85.7607L203.579 86.0481L203.237 86.4105L202.914 86.7491L202.611 87.064L202.328 87.3552L202.128 87.558C200.083 89.6204 199.336 91.3757 199.986 92.8227L200.023 92.9066L200.097 92.9621C200.817 93.5072 201.585 93.2698 202.277 92.3805L202.328 92.3131L202.491 92.0278L202.637 91.7684L202.778 91.5149L202.914 91.2673L203.046 91.0256L203.173 90.7898C203.193 90.751 203.214 90.7125 203.234 90.6742L203.354 90.4473L203.469 90.2264C203.487 90.19 203.506 90.1539 203.524 90.1181L203.632 89.906L203.734 89.6998C203.751 89.6659 203.768 89.6323 203.784 89.5989L203.879 89.4016L203.97 89.2101L204.056 89.0246L204.137 88.8449L204.213 88.6711L204.239 88.6105L204.274 88.5547C204.89 87.5632 205.577 86.9948 206.331 86.8249L206.38 86.8144L206.369 86.816C206.565 86.7887 206.722 86.7753 206.836 86.7753C206.876 86.7753 206.908 86.7769 206.934 86.7797L206.956 86.7827L206.958 86.7826L206.949 86.7768C207.061 86.8372 207.103 87.0315 207.064 87.2017C207.062 87.2083 207.056 87.2193 207.046 87.2343L207.028 87.26C207.024 87.2648 207.02 87.2699 207.016 87.2752L206.988 87.3102L206.953 87.3512L206.91 87.3983L206.834 87.4801L206.774 87.542L206.443 87.8736L206.331 87.9878L206.231 88.093C205.912 88.4346 205.685 88.7375 205.532 89.0591L205.512 89.1023L205.522 89.0862C203.706 92.1635 203.264 95.179 204.208 98.1091C204.882 99.9367 205.683 101.032 206.658 101.385L206.725 101.41L206.797 101.407C207.678 101.365 208.177 100.696 208.336 99.4861L208.352 99.3544C208.386 99.0424 208.398 98.6968 208.39 98.319L208.397 98.0229L208.407 97.5893L208.419 97.1684L208.433 96.7603L208.449 96.3648L208.466 95.9821L208.478 95.7341L208.498 95.3727L208.512 95.1389L208.534 94.7988L208.55 94.5793L208.566 94.3654L208.593 94.0554L208.611 93.8558L208.63 93.662C208.633 93.6302 208.636 93.5986 208.64 93.5673L208.66 93.3821C208.663 93.3517 208.667 93.3216 208.67 93.2917L208.691 93.1151C208.695 93.0861 208.698 93.0574 208.702 93.029L208.724 92.861L208.747 92.6989L208.771 92.5425L208.795 92.3919L208.82 92.2471C208.824 92.2235 208.828 92.2 208.833 92.1769L208.851 92.0934C209.204 90.5205 209.85 89.6896 210.783 89.5272L210.793 89.533C211.062 89.6956 211.068 90.0356 210.741 90.7076L210.73 90.7318L210.672 90.8775L210.559 91.1659L210.451 91.4501C210.433 91.4971 210.415 91.544 210.398 91.5906L210.295 91.8684C210.261 91.9603 210.229 92.0515 210.196 92.142L210.102 92.4114C210.086 92.4559 210.071 92.5003 210.056 92.5445L209.967 92.8076C209.737 93.5034 209.549 94.1543 209.405 94.7604L209.352 94.9857C209.152 95.8782 209.049 96.6703 209.044 97.3627C208.927 100.471 209.433 102.735 210.591 104.14L210.615 104.167C211.655 105.199 212.7 105.257 213.562 104.293L213.628 104.217L213.647 104.18C214.017 103.471 214.19 102.441 214.171 101.081L214.167 100.885L214.161 100.684C214.16 100.65 214.158 100.616 214.157 100.581L214.146 100.374L214.133 100.162C214.131 100.126 214.128 100.09 214.126 100.054L214.109 99.8348L214.089 99.6114C214.082 99.5362 214.075 99.4602 214.067 99.3835L214.043 99.151C214.038 99.1119 214.034 99.0726 214.029 99.0331L214.001 98.7939C213.991 98.7134 213.981 98.6321 213.97 98.5501L213.936 98.3019L213.9 98.0491C213.894 98.0066 213.888 97.9639 213.881 97.921L213.841 97.6614L213.778 97.2636C213.623 96.2405 213.647 95.2553 213.851 94.3053L213.859 94.2668L213.865 94.261C214.091 94.0088 214.241 93.9497 214.344 93.9974L214.362 94.0069C214.523 94.0966 214.714 94.3948 214.896 94.9058L214.915 94.9608L214.908 95.0572L214.886 95.3916L214.865 95.7206C214.862 95.775 214.859 95.8292 214.856 95.8831L214.839 96.2041L214.823 96.5196L214.81 96.8298C214.808 96.881 214.806 96.932 214.805 96.9828L214.795 97.2849L214.787 97.5816C214.784 97.7286 214.781 97.8736 214.779 98.0166L214.777 98.2998C214.776 98.3934 214.776 98.486 214.777 98.5777L214.778 98.8502L214.782 99.1173L214.789 99.3791L214.797 99.6355L214.807 99.8865L214.82 100.132C214.822 100.173 214.824 100.213 214.827 100.253L214.843 100.491C214.845 100.53 214.848 100.569 214.851 100.607L214.87 100.837C214.92 101.404 214.99 101.921 215.081 102.388C215.629 104.628 217.059 106.129 219.338 106.877L219.457 106.915L219.482 106.919C221.771 107.297 223.232 106.538 223.718 104.664L223.723 104.645C224.128 102.639 223.44 100.424 221.686 98.0074L221.611 97.9139L221.531 97.8164L221.446 97.7157L221.356 97.6117L221.262 97.5045L221.163 97.3941L221.059 97.2804L220.951 97.1635L220.838 97.0433L220.66 96.8569L220.535 96.7285L220.406 96.5969L220.203 96.3932L220.062 96.2534L219.842 96.0374L219.612 95.814L219.371 95.5832L219.119 95.3449L218.857 95.0992L218.584 94.8459L218.3 94.5852L218.006 94.3169L217.702 94.0411L217.279 93.6617L217.124 93.5236L217.119 93.5087C216.999 93.1854 217.084 93.0353 217.497 92.9667L217.573 92.9554C217.6 92.9519 217.627 92.9487 217.656 92.9457L217.74 92.9378L217.799 92.9518C218.487 93.1228 219.249 93.6432 220.076 94.5184L220.204 94.6559C220.396 94.8663 220.592 95.0956 220.791 95.3439L220.924 95.5122C220.991 95.5978 221.058 95.6855 221.126 95.7753L221.244 95.9246L221.36 96.0698L221.475 96.2109L221.588 96.3478L221.7 96.4806L221.81 96.6092L221.918 96.7337L222.025 96.854L222.131 96.9701L222.235 97.082L222.337 97.1897C222.354 97.2073 222.371 97.2247 222.388 97.242L222.488 97.3434L222.587 97.4406L222.684 97.5335C222.716 97.5638 222.748 97.5934 222.78 97.6223L222.874 97.7067C222.905 97.7342 222.936 97.7609 222.967 97.787L223.059 97.8629L223.149 97.9346C223.164 97.9462 223.179 97.9576 223.194 97.9689L223.282 98.0342C223.369 98.0973 223.455 98.154 223.538 98.2042L223.621 98.2523C224.086 98.5124 224.489 98.5642 224.84 98.4009L224.899 98.3717L224.925 98.3528C226.334 97.2961 226.167 95.5775 224.562 93.3068L224.458 93.1611L224.35 93.0139C224.331 92.9893 224.313 92.9646 224.294 92.9398L224.22 92.8426L224.199 92.8229C223.03 91.7119 221.307 90.7731 219.03 89.9991L218.914 89.963C217.455 89.5019 216.374 88.8792 215.656 88.0986L215.629 88.0685L215.62 88.05C215.449 87.6966 215.528 87.4889 215.975 87.3513L216.049 87.3302C216.061 87.3267 216.074 87.3233 216.088 87.32L216.171 87.3005L216.26 87.2819C216.276 87.2789 216.291 87.2759 216.307 87.273L216.406 87.2559L216.442 87.2502L216.425 87.2513C217.91 87.1573 219.711 87.5208 221.824 88.348L221.857 88.3589C223.357 88.7875 224.316 88.5062 224.493 87.4312C224.649 86.4464 224.077 85.7028 222.843 85.1792L222.721 85.1292C222.701 85.121 222.68 85.1128 222.659 85.1047L222.531 85.0568L222.4 85.0102C222.288 84.972 222.172 84.9351 222.052 84.8997L221.906 84.8579L221.756 84.8174C221.706 84.8041 221.654 84.7911 221.602 84.7783L221.444 84.7405L221.282 84.704L221.116 84.6688L220.946 84.635C220.918 84.6295 220.889 84.624 220.86 84.6186L220.74 84.6013C219.021 84.3641 217.106 84.5707 214.985 85.2147L214.867 85.2508L214.836 85.2551C213.865 85.3771 213.391 85.1357 213.267 84.5108L213.259 84.4629L213.262 84.4541C213.47 83.8435 214.218 83.4026 215.567 83.1682C215.694 83.1469 215.836 83.13 215.994 83.1174L216.133 83.1077L216.279 83.1002L216.433 83.0947L216.594 83.0915L216.763 83.0904L216.939 83.0915L217.123 83.0948L217.314 83.1002C217.346 83.1013 217.379 83.1025 217.412 83.1037L217.614 83.1125L217.823 83.1234L218.04 83.1365L218.264 83.1518C218.408 83.1595 218.546 83.1616 218.678 83.1582L218.789 83.1539C220.248 83.0788 220.838 82.2861 220.354 80.9199L220.327 80.8476L220.317 80.8279C219.654 79.5479 218.211 79.1719 216.082 79.6415L215.908 79.6814L215.873 79.6916C214.45 80.1864 213.112 80.9655 211.86 82.0272L211.786 82.0917L211.726 82.1414L211.693 82.1664C211.612 82.2242 211.581 82.2127 211.543 82.1348L211.529 82.1025L211.505 82.0424C211.423 81.8309 211.492 81.5767 211.679 81.308C211.729 81.2366 211.783 81.1708 211.837 81.1129L211.886 81.0619L211.899 81.0489L211.924 81.0263L211.946 80.9984L211.974 80.9681C212.016 80.9258 212.072 80.8767 212.143 80.8221C212.359 80.6569 212.653 80.4881 213.038 80.3278C213.308 80.2152 213.613 80.1116 213.953 80.0194L214.1 79.9808L214.13 79.9669C215.313 79.4171 215.605 78.6294 214.75 77.9104L214.682 77.853L214.595 77.8342C213.539 77.6063 212.32 77.9464 210.937 78.8277L210.914 78.8437Z" fill="#0F175F"/>
<path d="M211.13 79.1307C212.441 78.2956 213.57 77.9805 214.519 78.1854C215.134 78.7025 214.954 79.1878 213.979 79.6411C213.901 79.6611 213.826 79.6814 213.753 79.7021L213.611 79.7438C213.587 79.7508 213.564 79.7579 213.542 79.7649L213.408 79.8077C213.386 79.8149 213.365 79.8221 213.344 79.8293L213.219 79.8728C213.199 79.8801 213.179 79.8874 213.159 79.8947L213.043 79.9387L212.932 79.9828L212.827 80.027L212.728 80.0711L212.633 80.115C212.618 80.1223 212.603 80.1296 212.588 80.1368L212.501 80.1802L212.419 80.223L212.343 80.2651C212.33 80.2721 212.318 80.279 212.306 80.2859L212.236 80.3269L212.171 80.3669L212.11 80.4059L212.054 80.4436L212.002 80.48L211.954 80.515L211.91 80.5484L211.852 80.5952L211.802 80.6379L211.748 80.6874L211.716 80.7185L211.67 80.7684L211.657 80.7835L211.62 80.8199L211.597 80.8434L211.57 80.8721L211.54 80.9058L211.507 80.9443L211.471 80.9873L211.434 81.0345L211.397 81.0858L211.359 81.1409C211.183 81.4064 211.021 81.7876 211.171 82.1725C211.352 82.6399 211.659 82.6828 212.093 82.3012C213.311 81.2676 214.611 80.5109 215.992 80.031C218.074 79.5356 219.409 79.8563 219.998 80.9932C220.456 82.2301 219.947 82.8325 218.471 82.8004L218.351 82.7965C218.331 82.7956 218.31 82.7946 218.29 82.7935L218.061 82.7779C218.023 82.7754 217.986 82.7731 217.949 82.7709L217.731 82.7586L217.521 82.7486L217.318 82.7409C217.285 82.7398 217.252 82.7388 217.219 82.7379L217.027 82.7335C216.995 82.733 216.964 82.7325 216.933 82.7322L216.752 82.7312C216.722 82.7313 216.693 82.7314 216.664 82.7316L216.494 82.734C216.105 82.7423 215.776 82.7691 215.506 82.8142C213.98 83.0794 213.109 83.62 212.892 84.436C213.008 85.3865 213.692 85.7756 214.944 85.6033C217.125 84.9233 219.075 84.7128 220.794 84.9718L220.881 84.9882L221.05 85.022C221.078 85.0278 221.106 85.0336 221.134 85.0394L221.297 85.075C221.324 85.0811 221.35 85.0872 221.377 85.0933L221.533 85.1308L221.685 85.1694C221.809 85.2022 221.929 85.2362 222.044 85.2714L222.18 85.3144C223.629 85.7862 224.281 86.4724 224.138 87.373C224.006 88.1778 223.279 88.3913 221.956 88.0135C219.797 87.1686 217.946 86.795 216.403 86.8927C215.289 87.0647 214.932 87.5254 215.332 88.2748C216.115 89.1601 217.31 89.8482 218.915 90.3393C221.146 91.0979 222.825 92.0126 223.952 93.0834L224.008 93.1567L224.116 93.3019C224.169 93.3741 224.221 93.4456 224.271 93.5164L224.369 93.6571C224.401 93.7037 224.433 93.7501 224.463 93.7961L224.554 93.9332L224.64 94.0685C224.668 94.1133 224.695 94.1578 224.722 94.202L224.8 94.3338C224.889 94.4864 224.969 94.6353 225.042 94.7806L225.102 94.9042C225.769 96.3154 225.638 97.3691 224.709 98.0654C224.38 98.2319 223.925 98.0866 223.345 97.6292L223.257 97.5583C223.242 97.5461 223.227 97.5337 223.212 97.5211L223.121 97.4431C223.106 97.4297 223.091 97.4161 223.075 97.4024L222.982 97.3174L222.886 97.2277L222.789 97.1334C222.772 97.1173 222.756 97.101 222.739 97.0845L222.639 96.9831L222.537 96.8771C222.52 96.859 222.503 96.8407 222.485 96.8223L222.381 96.7092L222.274 96.5915L222.165 96.4691L222.055 96.342L221.942 96.2102C221.923 96.1879 221.904 96.1653 221.885 96.1426L221.77 96.0038L221.653 95.8603L221.534 95.7121L221.413 95.5593L221.343 95.4669L221.204 95.2862C219.953 93.6865 218.807 92.7831 217.764 92.5759C216.83 92.6427 216.517 93.0297 216.824 93.7369L217.246 94.1145L217.551 94.3892L218.037 94.8307L218.404 95.1693L218.754 95.4949L219.004 95.7305L219.244 95.9589L219.548 96.252L219.834 96.5321L220.036 96.7336L220.166 96.8639L220.351 97.0533L220.526 97.2353L220.637 97.3526L220.795 97.5224L220.942 97.685L221.035 97.7893L221.123 97.8903L221.207 97.9881L221.286 98.0827L221.36 98.174C221.372 98.1889 221.384 98.2037 221.396 98.2184C223.095 100.561 223.754 102.679 223.371 104.574C222.936 106.251 221.659 106.915 219.541 106.565C217.324 105.864 215.955 104.449 215.434 102.32C215.369 101.985 215.315 101.622 215.271 101.232L215.248 101.017C215.245 100.981 215.241 100.944 215.238 100.907L215.218 100.684C215.212 100.608 215.206 100.532 215.2 100.455L215.185 100.221L215.172 99.9812C215.17 99.9408 215.168 99.9002 215.166 99.8594L215.156 99.6116C215.15 99.4447 215.145 99.2742 215.142 99.1L215.138 98.8361C215.137 98.7917 215.137 98.747 215.137 98.7022L215.136 98.4302L215.137 98.1528C215.138 98.1061 215.138 98.0592 215.139 98.012L215.143 97.7265C215.144 97.6785 215.145 97.6302 215.147 97.5818L215.154 97.2882L215.164 96.9892C215.166 96.9389 215.168 96.8884 215.17 96.8376L215.183 96.5305L215.198 96.2181L215.215 95.9002L215.234 95.5769L215.256 95.2482C215.263 95.1377 215.271 95.0263 215.279 94.9141L215.24 94.7996L215.2 94.6905C215.18 94.6373 215.16 94.5861 215.139 94.5368L215.098 94.4409C214.668 93.4778 214.145 93.3644 213.529 94.1006C213.289 95.1351 213.254 96.2089 213.423 97.3218L213.487 97.7173C213.493 97.7606 213.5 97.8037 213.507 97.8465L213.545 98.1014L213.581 98.3516C213.586 98.393 213.592 98.4341 213.598 98.475L213.63 98.7183L213.659 98.957L213.686 99.191L213.71 99.4205L213.732 99.6453L213.751 99.8654C213.754 99.9017 213.757 99.9378 213.759 99.9738L213.775 100.187L213.788 100.396L213.798 100.6L213.805 100.799C213.852 102.244 213.694 103.315 213.329 104.014C212.605 104.855 211.785 104.821 210.868 103.912C209.777 102.587 209.289 100.405 209.403 97.3655C209.414 96.0253 209.808 94.2771 210.586 92.1209L210.685 91.8493C210.702 91.8037 210.719 91.7579 210.736 91.7119L210.842 91.4338C210.859 91.3872 210.877 91.3403 210.896 91.2932L211.007 91.0088C211.026 90.9611 211.045 90.9132 211.064 90.8651C211.504 89.9629 211.429 89.3933 210.839 89.1561C209.657 89.2993 208.871 90.2844 208.48 92.1116L208.454 92.256C208.45 92.2806 208.445 92.3054 208.441 92.3304L208.416 92.4834C208.412 92.5094 208.408 92.5356 208.404 92.5621L208.381 92.7238L208.358 92.8911L208.336 93.0643L208.304 93.3348L208.283 93.5223L208.264 93.7155L208.245 93.9145L208.227 94.1192L208.209 94.3297L208.192 94.5459L208.176 94.7679L208.161 94.9956L208.147 95.229L208.133 95.4682L208.113 95.8378L208.096 96.2203L208.085 96.4824L208.07 96.8865L208.056 97.3034L208.048 97.5886L208.038 98.0271L208.031 98.3266C208.037 98.5993 208.032 98.8515 208.016 99.0833L208.006 99.2199C207.899 100.405 207.491 101.014 206.78 101.048C205.929 100.739 205.186 99.7226 204.55 97.9989C203.639 95.1713 204.066 92.2612 205.831 89.2688C206.005 88.8748 206.318 88.5168 206.62 88.2062L206.74 88.0846L206.997 87.8282L207.107 87.7156L207.173 87.6442C207.3 87.5047 207.39 87.3837 207.414 87.2834C207.455 87.1051 207.476 86.6515 207.119 86.4601C207.039 86.4174 206.876 86.4057 206.631 86.4252L206.535 86.4339C206.518 86.4356 206.501 86.4374 206.484 86.4394L206.377 86.4525C206.358 86.4549 206.339 86.4575 206.32 86.4601C205.412 86.6392 204.612 87.3011 203.919 88.4459L203.846 88.6141L203.769 88.7883L203.687 88.9684C203.658 89.0295 203.629 89.0915 203.599 89.1545L203.507 89.3466L203.411 89.5446C203.394 89.5781 203.377 89.6118 203.36 89.6458L203.256 89.8527L203.148 90.0656L203.034 90.2844C203.015 90.3213 202.995 90.3585 202.975 90.396L202.854 90.6237L202.729 90.8574L202.598 91.097L202.463 91.3426L202.323 91.5941L202.178 91.8516L202.028 92.115C201.433 92.9036 200.862 93.0904 200.314 92.6756C199.819 91.5741 200.267 90.2135 201.658 88.5937L201.78 88.4542L201.906 88.3135L202.037 88.1715C202.125 88.0764 202.217 87.9804 202.312 87.8836L202.584 87.6071L202.869 87.3146L203.095 87.0797L203.252 86.9157L203.581 86.5699L203.929 86.2004L204.296 85.8072L204.683 85.3903L204.986 85.0621C205.113 84.6385 204.862 84.4763 204.232 84.5755C203.298 84.8942 202.447 85.7347 201.679 87.097C201.255 87.3121 201.022 87.249 200.978 86.9077C201.099 85.994 201.686 85.0411 202.738 84.0489C203.86 83.0982 205.294 82.6263 207.039 82.6333C207.986 82.7107 208.648 82.5702 209.023 82.2117C209.423 80.9145 210.125 79.8875 211.13 79.1307Z" fill="white"/>
<path d="M196.436 91.4027L196.466 91.4157L196.486 91.4275C196.522 91.449 196.566 91.4795 196.617 91.5203C196.775 91.6463 196.951 91.8299 197.138 92.0823C197.268 92.2585 197.399 92.4612 197.528 92.6923L197.592 92.8092L197.613 92.8348C198.276 93.6583 198.993 93.7392 199.401 92.9005L199.44 92.8205L199.437 92.7315C199.409 91.8749 198.918 91.0077 197.989 90.1237L197.968 90.1052L197.894 90.046C197.148 89.4627 196.271 89.1258 195.273 89.0362L195.18 89.0285L195.172 89.0214C194.973 88.8446 194.815 88.4805 194.722 87.9163L194.717 87.889C194.377 86.5031 193.712 85.4445 192.721 84.7293L192.705 84.7185C191.706 84.0752 190.809 83.7889 190.012 83.8784L189.965 83.8837L189.921 83.9008C189.398 84.1049 189.389 84.5896 189.77 85.03L189.841 85.1123L189.945 85.1413L190.037 85.1674C191.037 85.4572 191.708 85.867 192.063 86.3833L192.078 86.4055L192.089 86.433L191.444 86.0756L191.131 85.9001L190.648 85.626L190.296 85.4231L189.974 85.2349L189.825 85.1462C187.88 83.9841 186.399 83.7462 185.406 84.5283L185.334 84.5852L185.298 84.67C185.007 85.3562 185.35 85.9281 186.174 86.2967L186.246 86.328L186.525 86.4062L186.774 86.475L187.017 86.5406L187.252 86.6029L187.481 86.662L187.703 86.7179L187.919 86.7706L188.127 86.8201L188.329 86.8663L188.524 86.9093C188.556 86.9162 188.587 86.923 188.619 86.9296L188.804 86.9678L188.982 87.0027L189.153 87.0344C189.181 87.0394 189.208 87.0443 189.236 87.0491L189.37 87.0714L189.427 87.0899C190.248 87.3588 190.775 87.7483 191.032 88.2514L191.052 88.2918L191.087 88.3807C191.122 88.4743 191.147 88.5522 191.162 88.6132L191.17 88.6471L191.175 88.6737L191.169 88.6828C191.139 88.7195 191.067 88.7515 190.992 88.7584L190.967 88.7598C190.972 88.7597 190.974 88.7592 190.972 88.7579L190.946 88.7472C190.918 88.736 190.885 88.7199 190.844 88.6985L190.779 88.6622L190.637 88.5783L190.271 88.3601L190.18 88.3084C189.866 88.1337 189.595 88.0192 189.322 87.9626L189.283 87.955L189.3 87.9602C186.646 87.1675 184.29 87.3993 182.261 88.6635C181.003 89.5216 180.322 90.3416 180.237 91.1665L180.23 91.2379L180.25 91.3067C180.519 92.2008 181.472 92.382 182.95 91.98L183.335 91.8932L183.706 91.8111L184.066 91.734L184.413 91.6616L184.747 91.5941L185.069 91.5314L185.277 91.4923L185.479 91.4554L185.676 91.4206L185.866 91.388L186.052 91.3575L186.231 91.3292L186.405 91.3031L186.574 91.2792C186.601 91.2753 186.629 91.2716 186.656 91.268L186.816 91.2473L186.97 91.2287L187.119 91.2124C187.143 91.2098 187.167 91.2074 187.191 91.205L187.331 91.1919L187.465 91.1809C187.509 91.1777 187.552 91.1747 187.594 91.1722L187.669 91.1702C188.836 91.1452 189.534 91.4426 189.828 92.0395L189.838 92.0612L189.834 92.072C189.762 92.2292 189.55 92.2689 189.058 92.1637L189.032 92.1591C188.845 92.1334 188.662 92.1097 188.482 92.088L188.215 92.057C188.171 92.0521 188.127 92.0473 188.084 92.0427L187.825 92.0163C187.568 91.9914 187.32 91.971 187.079 91.9553L186.841 91.9411C185.585 91.8734 184.554 91.9363 183.744 92.1317C181.39 92.6251 179.779 93.4335 178.933 94.5798L178.913 94.61C178.317 95.6154 178.477 96.4586 179.395 96.9482L179.48 96.9919L179.52 97.0017C180.179 97.1617 181.072 97.0766 182.209 96.7516L182.39 96.6983C182.452 96.6799 182.513 96.6608 182.576 96.641L182.766 96.5797C182.83 96.5586 182.894 96.5369 182.959 96.5145L183.157 96.4453L183.359 96.3721C183.393 96.3596 183.427 96.3469 183.462 96.334L183.67 96.2549L183.882 96.1719C183.918 96.1577 183.954 96.1434 183.99 96.1289L184.208 96.0399C184.355 95.9793 184.505 95.916 184.657 95.8501L184.77 95.8024C185.443 95.5239 186.12 95.366 186.802 95.3276L186.948 95.3213L186.954 95.3249C187.054 95.3805 187.121 95.4339 187.157 95.4804C187.179 95.508 187.182 95.5183 187.178 95.5357L187.175 95.551C187.142 95.6617 186.972 95.8405 186.653 96.055L186.617 96.0789L186.392 96.1187L186.1 96.172L185.814 96.226L185.534 96.2809L185.261 96.3366L184.993 96.393L184.731 96.4503C184.558 96.4888 184.389 96.5278 184.224 96.5673L183.98 96.6271C183.94 96.6371 183.9 96.6472 183.86 96.6573L183.625 96.7182C183.548 96.7387 183.471 96.7593 183.396 96.78L183.173 96.8426C183.099 96.8636 183.027 96.8848 182.955 96.9061L182.744 96.9703C182.64 97.0027 182.538 97.0353 182.438 97.0683L182.242 97.1347L182.051 97.2019C181.707 97.3258 181.393 97.454 181.108 97.5865C179.516 98.4258 178.648 99.7948 178.51 101.659L178.502 101.777L178.504 101.802C178.652 103.623 179.523 104.611 181.056 104.627L181.076 104.627C182.674 104.556 184.217 103.617 185.705 101.84L185.77 101.754L185.837 101.662L185.906 101.566L185.977 101.464L186.05 101.356L186.125 101.244L186.202 101.126L186.281 101.002L186.362 100.874L186.487 100.671L186.574 100.529L186.707 100.306L186.798 100.15L186.939 99.9069L187.134 99.5637L187.235 99.3841L187.442 99.0085L187.603 98.7126L187.883 98.1923L187.998 97.9747L188.197 97.5971L188.215 97.5849C188.356 97.4943 188.433 97.5126 188.52 97.6986L188.542 97.751L188.566 97.8112C188.57 97.8219 188.574 97.8329 188.578 97.8443L188.599 97.8621C188.63 98.5076 188.285 99.3469 187.547 100.365L187.436 100.515C187.417 100.541 187.398 100.566 187.379 100.592L187.26 100.746L187.135 100.902L187.023 101.048C187.005 101.072 186.986 101.096 186.969 101.12L186.863 101.261L186.762 101.399C186.745 101.422 186.729 101.444 186.713 101.467L186.618 101.6L186.528 101.731L186.442 101.859L186.361 101.983L186.284 102.105L186.212 102.224C185.638 103.184 185.513 103.858 185.889 104.294L185.909 104.318L185.934 104.338C186.794 105.04 187.777 104.907 188.847 104.017L188.946 103.932C189.194 103.716 189.447 103.46 189.704 103.164L189.807 103.044C189.841 103.003 189.876 102.962 189.91 102.92L190.032 102.769L190.046 102.744C190.663 101.651 191.044 100.177 191.197 98.3189L191.204 98.2068C191.276 97.0566 191.531 96.1559 191.964 95.4922L191.982 95.4647L191.988 95.4596C192.195 95.2878 192.323 95.3194 192.502 95.6757L192.537 95.7464L192.572 95.8248L192.601 95.8927L192.597 95.8787C192.94 96.959 193.004 98.3622 192.783 100.086L192.781 100.12C192.74 101.364 193.156 102.076 194.053 102.003C194.964 101.925 195.444 101.185 195.547 99.8704L195.556 99.7347L195.563 99.5951C195.569 99.43 195.57 99.2568 195.566 99.0758L195.561 98.9187C195.56 98.8922 195.559 98.8655 195.557 98.8387L195.549 98.6759L195.537 98.5618C195.389 97.2296 194.88 95.8389 194.011 94.3784L193.952 94.2798L193.943 94.2564C193.691 93.6028 193.767 93.2522 194.153 93.063L194.178 93.051L194.207 93.0547C194.649 93.1189 195.081 93.5753 195.483 94.4864C195.521 94.5739 195.559 94.6733 195.597 94.7846L195.634 94.8999C195.69 95.0786 195.745 95.2839 195.799 95.5155L195.835 95.6737C195.841 95.7007 195.847 95.7281 195.853 95.7557L195.888 95.9256L195.923 96.1031L195.958 96.2884C195.97 96.3514 195.981 96.4157 195.993 96.4813C196.272 97.9261 197.083 98.4035 198.167 97.6884L198.228 97.647L198.245 97.6323C199.132 96.8482 199.121 95.6171 198.296 94.0224L198.278 93.9911C197.638 93.0098 196.801 92.1464 195.768 91.4016L195.74 91.3813C195.704 91.355 195.676 91.3316 195.655 91.3111L195.649 91.3041L195.653 91.3006C195.663 91.292 195.675 91.2827 195.689 91.2726C195.804 91.1914 195.979 91.1953 196.191 91.2764C196.235 91.2934 196.276 91.3115 196.31 91.3286L196.357 91.3532L196.394 91.3748L196.436 91.4027Z" fill="#0F175F"/>
<path d="M197.741 90.384C198.608 91.2089 199.054 91.9953 199.078 92.7433C198.84 93.2312 198.507 93.2566 198.077 92.8195L198.017 92.7555L197.955 92.6855C197.934 92.6612 197.913 92.6358 197.892 92.6095C197.799 92.4377 197.708 92.2845 197.62 92.148L197.554 92.0488C197.489 91.9525 197.425 91.8655 197.364 91.7867L197.304 91.7107L197.245 91.6401L197.189 91.5747C197.179 91.5642 197.17 91.5539 197.161 91.5438L197.107 91.4859L197.055 91.4327L197.006 91.3841L196.958 91.3399L196.913 91.3L196.871 91.2641L196.813 91.2175L196.761 91.179L196.703 91.1393L196.658 91.1117L196.608 91.0859L196.572 91.0634L196.513 91.0297L196.452 90.9987C196.445 90.9951 196.437 90.9914 196.429 90.9877L196.38 90.9655L196.326 90.9435C196.092 90.8529 195.756 90.7853 195.482 90.9794C195.167 91.202 195.192 91.4399 195.558 91.693C196.555 92.4125 197.362 93.244 197.977 94.1874C198.734 95.6528 198.744 96.7114 198.007 97.3631C197.137 97.9584 196.583 97.644 196.346 96.4197L196.311 96.2213L196.275 96.0306C196.269 95.9994 196.263 95.9686 196.257 95.9381L196.22 95.7589L196.184 95.5874L196.146 95.4236C196.14 95.397 196.134 95.3706 196.127 95.3446L196.089 95.1923C196.064 95.0933 196.038 94.9995 196.012 94.9108L195.973 94.7815C195.92 94.6143 195.867 94.4676 195.812 94.3413C195.33 93.2494 194.764 92.6981 194.116 92.6877C193.429 92.9512 193.266 93.5352 193.628 94.4396C194.542 95.9442 195.062 97.3635 195.19 98.6976C195.195 98.7834 195.199 98.8674 195.202 98.9494L195.207 99.1111C195.242 100.729 194.848 101.574 194.024 101.645C193.399 101.696 193.104 101.191 193.139 100.132C193.367 98.3601 193.3 96.9062 192.939 95.7701C192.603 94.9693 192.193 94.7879 191.709 95.2259C191.196 95.9765 190.905 96.9976 190.839 98.2895C190.689 100.099 190.321 101.525 189.733 102.567L189.628 102.697C189.541 102.803 189.455 102.904 189.37 103L189.268 103.113C189.117 103.28 188.967 103.43 188.821 103.565L188.724 103.652C187.74 104.516 186.886 104.652 186.161 104.06C185.993 103.865 185.996 103.547 186.169 103.106L186.206 103.016L186.248 102.922C186.262 102.891 186.277 102.859 186.294 102.826L186.344 102.726C186.362 102.692 186.38 102.658 186.399 102.623L186.459 102.516C186.469 102.498 186.479 102.48 186.49 102.462L186.557 102.351L186.628 102.236C186.64 102.217 186.652 102.197 186.665 102.177L186.742 102.058L186.825 101.935C186.839 101.914 186.853 101.893 186.868 101.872L186.957 101.744C186.972 101.723 186.987 101.701 187.003 101.679L187.099 101.546L187.199 101.41C187.216 101.387 187.234 101.364 187.251 101.341L187.359 101.2C187.377 101.176 187.395 101.152 187.414 101.128C188.485 99.8028 188.999 98.7083 188.957 97.8447C188.733 97.1584 188.386 96.9958 187.916 97.3568L187.739 97.6948L187.567 98.0205L187.344 98.4358L187.13 98.8294L186.925 99.2012L186.826 99.3789L186.68 99.6353L186.494 99.9582L186.404 100.111L186.316 100.259L186.189 100.471L186.106 100.605L185.986 100.796L185.871 100.975L185.798 101.088L185.726 101.195L185.656 101.296L185.588 101.393L185.523 101.483L185.46 101.569C185.449 101.583 185.439 101.596 185.429 101.609C184 103.316 182.544 104.202 181.06 104.268C179.729 104.254 178.996 103.422 178.862 101.773C178.971 99.9847 179.77 98.6978 181.26 97.9122C181.788 97.6661 182.426 97.4341 183.174 97.2162L183.391 97.1544C183.427 97.1441 183.464 97.1339 183.501 97.1237L183.727 97.063C183.765 97.053 183.803 97.0429 183.842 97.033L184.076 96.9734C184.156 96.9537 184.236 96.9341 184.317 96.9146L184.564 96.8566L184.816 96.7994C184.859 96.7899 184.901 96.7805 184.945 96.7711L185.206 96.715L185.473 96.6597C185.519 96.6505 185.564 96.6414 185.609 96.6323L185.886 96.5782L186.168 96.5248L186.457 96.4722L186.751 96.4203L186.843 96.3605C187.703 95.7855 187.765 95.3187 187.031 94.96C186.182 94.9736 185.344 95.1604 184.515 95.5204L184.404 95.5679L184.186 95.6601L183.972 95.7484L183.762 95.8329L183.556 95.9135L183.354 95.9903C183.321 96.0028 183.288 96.0151 183.255 96.0273L183.06 96.0984L182.868 96.1656C182.837 96.1765 182.805 96.1872 182.774 96.1978L182.589 96.2592L182.408 96.3169C182.378 96.3261 182.348 96.3353 182.319 96.3442L182.144 96.3961C181.05 96.7125 180.203 96.798 179.605 96.6526C178.843 96.2673 178.715 95.6476 179.222 94.7933C180.006 93.7311 181.541 92.9604 183.828 92.481C184.628 92.2879 185.669 92.23 186.95 92.3073L187.186 92.3228C187.265 92.3285 187.345 92.3347 187.426 92.3414L187.673 92.3629L187.924 92.3874C188.051 92.4004 188.18 92.4145 188.311 92.4297L188.576 92.4616C188.709 92.4783 188.845 92.4962 188.983 92.5151C189.737 92.6764 190.148 92.5146 190.215 92.0295C189.888 91.172 189.007 90.7667 187.572 90.8136L187.44 90.8226L187.303 90.8337C187.28 90.8358 187.256 90.8379 187.232 90.8401L187.086 90.8546C187.062 90.8572 187.037 90.8598 187.011 90.8626L186.778 90.89L186.532 90.9223L186.361 90.9466L186.184 90.9731L186.002 91.0018L185.814 91.0327L185.521 91.0831L185.319 91.1194L185.111 91.158L184.898 91.1987L184.679 91.2416L184.34 91.3101L183.988 91.3835L183.623 91.4619L183.373 91.5169L182.856 91.6334C182.668 91.6844 182.492 91.7253 182.327 91.7559L182.205 91.7769C181.29 91.9235 180.753 91.7324 180.594 91.2034C180.666 90.5095 181.285 89.7645 182.451 88.9685C184.388 87.7614 186.637 87.5401 189.197 88.3045C189.483 88.3545 189.768 88.4894 190.028 88.6354L190.138 88.6985L190.245 88.7616L190.492 88.9112L190.583 88.9643C190.744 89.0569 190.877 89.1204 190.972 89.1191C191.112 89.1171 191.454 89.0481 191.53 88.7455C191.547 88.6783 191.526 88.5558 191.467 88.3779L191.436 88.2918C191.42 88.2468 191.402 88.1989 191.381 88.148C191.078 87.5023 190.436 87.0267 189.453 86.7213L189.296 86.6949C189.269 86.6903 189.242 86.6855 189.214 86.6805L189.046 86.6493L188.871 86.6149L188.689 86.5773L188.5 86.5365C188.468 86.5294 188.436 86.5222 188.403 86.5149L188.204 86.4693L187.999 86.4204L187.786 86.3684L187.566 86.3131L187.34 86.2546L187.107 86.1929L186.867 86.1281L186.62 86.0599L186.366 85.9886C185.667 85.6903 185.421 85.2976 185.628 84.8105C186.459 84.1561 187.768 84.3542 189.556 85.4049L189.859 85.5842L190.093 85.7211L190.43 85.9154L190.795 86.1231L191.29 86.4014L191.83 86.7007L192.174 86.8903C192.514 86.9067 192.588 86.6887 192.397 86.236C191.985 85.5966 191.2 85.1163 190.041 84.7952C189.802 84.5181 189.805 84.3316 190.051 84.2355C190.755 84.1565 191.575 84.4182 192.51 85.0206C193.428 85.6834 194.047 86.668 194.368 87.9746C194.487 88.6977 194.715 89.1663 195.052 89.3803C196.093 89.4385 196.99 89.773 197.741 90.384Z" fill="white"/>
<path fill-rule="evenodd" clip-rule="evenodd" d="M62.5403 87.0927C67.6229 81.5562 74.4922 83.1966 78.357 90.8697L79.2716 92.6856L79.5861 92.6233C86.8053 91.1932 93.7449 97.6019 96.6209 108.355L97.7247 112.482H8.08398L9.08097 108.752C11.6786 99.035 17.9467 93.2435 24.4672 94.5358L24.7513 94.5921L25.5774 92.9511C29.0682 86.017 35.2727 84.5346 39.8634 89.5378C39.8634 87.782 51.6606 70.0703 62.5403 87.0927Z" fill="#0F175F"/>
<path d="M9.32438 103.335C9.32438 103.335 9.32437 103.335 9.32437 103.335C9.13716 103.657 8.97665 103.961 8.83926 104.246C9.23295 103.158 9.49499 102.107 9.49499 102.107C10.3049 101.168 10.7419 102.06 10.7419 102.06L9.32438 103.335ZM9.32438 103.335C9.3245 103.334 9.32465 103.334 9.32484 103.334L9.3248 103.334L9.32417 103.335M9.32438 103.335L9.32417 103.335M8.37339 105.378C8.29394 105.615 8.23326 105.833 8.18747 106.032C8.18678 106.035 8.18609 106.038 8.18541 106.041L8.37339 105.378ZM8.37339 105.378C8.27299 105.588 8.16873 105.783 8.06187 105.954L8.37339 105.378ZM9.32417 103.335C9.32406 103.335 9.32406 103.335 9.32416 103.335L9.32417 103.335ZM16.6786 96.3116C16.7786 96.3657 16.9307 96.4321 17.1505 96.4915L17.1817 96.4999L17.2123 96.5103L16.8899 97.4569C17.2123 96.5103 17.2126 96.5104 17.2128 96.5105L17.2133 96.5106L17.2143 96.511L17.2169 96.5119L17.224 96.5143L17.2451 96.5218C17.2622 96.5279 17.2854 96.5364 17.314 96.5471C17.3712 96.5686 17.4503 96.5994 17.5464 96.6397C17.7376 96.7198 18.0004 96.8392 18.2925 96.9985C18.8558 97.3057 19.6205 97.8108 20.1494 98.5449L20.1644 98.5657L20.1784 98.5873L19.5889 98.9676C19.5889 98.9676 19.5889 98.9676 19.5889 98.9676C20.1784 98.5874 20.1785 98.5875 20.1786 98.5877L20.1788 98.588L20.1793 98.5888L20.1806 98.5908L20.1838 98.5959L20.1934 98.611C20.201 98.6232 20.2112 98.6397 20.2236 98.66C20.2483 98.7006 20.2818 98.7571 20.3207 98.8265C20.398 98.964 20.5004 99.1581 20.5991 99.3836C20.7709 99.7758 21.0353 100.486 20.9136 101.181L20.8866 101.335L20.8138 101.473L19.929 101.008C20.8138 101.473 20.8135 101.474 20.8131 101.475L20.8124 101.476L20.8109 101.479L20.8079 101.484L20.8015 101.496C20.797 101.504 20.792 101.513 20.7867 101.522C20.7761 101.54 20.7636 101.559 20.7491 101.581C20.7204 101.623 20.6819 101.674 20.6317 101.727C20.5651 101.798 20.469 101.883 20.3404 101.955C20.3518 101.987 20.3629 102.02 20.3738 102.052C20.4985 102.425 20.6151 102.892 20.6125 103.367C20.6099 103.846 20.4814 104.449 19.9839 104.909L19.7907 105.087L19.5347 105.147L19.3057 104.174C19.5347 105.147 19.5341 105.147 19.5334 105.147L19.5321 105.148L19.5294 105.148L19.5238 105.15L19.5118 105.152C19.5033 105.154 19.494 105.156 19.484 105.158C19.4639 105.162 19.4406 105.166 19.4142 105.169C19.3618 105.176 19.2963 105.183 19.2202 105.184C19.0693 105.187 18.8669 105.171 18.6414 105.098C18.2347 104.967 17.8498 104.684 17.5698 104.217C17.423 105.035 17.0993 105.917 16.447 106.69L16.4316 106.709L16.4153 106.726L15.6825 106.046C16.4153 106.726 16.4152 106.726 16.415 106.726L16.4147 106.727L16.414 106.728L16.4122 106.729L16.4076 106.734L16.3935 106.749C16.382 106.761 16.3665 106.777 16.3472 106.797C16.3086 106.836 16.2546 106.89 16.1875 106.953C16.0548 107.078 15.8649 107.246 15.6386 107.416C15.4152 107.583 15.1364 107.767 14.826 107.909C14.5227 108.048 14.1282 108.176 13.6927 108.159L13.5246 108.153L13.3678 108.092L13.7305 107.16C13.3678 108.092 13.367 108.092 13.3662 108.091L13.3647 108.091L13.3614 108.09L13.3547 108.087L13.3402 108.081C13.33 108.077 13.3189 108.072 13.3069 108.066C13.2829 108.055 13.2553 108.042 13.2248 108.026C13.164 107.993 13.0902 107.948 13.0104 107.888C12.8597 107.775 12.6844 107.604 12.5404 107.359C12.1762 107.868 11.6976 108.37 11.0883 108.672L11.0431 108.694L10.9959 108.712L10.6444 107.776C10.9959 108.712 10.9955 108.712 10.9951 108.712L10.9943 108.713L10.9926 108.713L10.9889 108.715L10.98 108.718L10.957 108.726C10.9394 108.732 10.9172 108.74 10.8909 108.748C10.8384 108.764 10.7681 108.784 10.6839 108.803C10.5196 108.84 10.2816 108.878 10.0092 108.872C9.44747 108.859 8.63727 108.635 8.18777 107.749L8.13275 107.641L8.10528 107.523L9.07938 107.297C8.10528 107.523 8.1051 107.522 8.10491 107.521L8.10454 107.52L8.1038 107.516L8.10227 107.509L8.09909 107.494C8.09691 107.484 8.09465 107.472 8.09236 107.459C8.08777 107.433 8.08307 107.403 8.07872 107.368C8.07696 107.354 8.07525 107.339 8.07364 107.324C7.9848 107.391 7.88829 107.459 7.784 107.526C7.07778 107.98 6.02817 108.389 4.64068 108.286L4.58038 108.282L4.52106 108.27L4.7146 107.289C4.52106 108.27 4.52073 108.27 4.52039 108.27L4.51967 108.27L4.51807 108.269L4.51429 108.269L4.50441 108.267L4.47563 108.26C4.45259 108.255 4.42187 108.248 4.38458 108.239C4.31022 108.221 4.20846 108.193 4.08831 108.155C3.85179 108.081 3.52545 107.96 3.19097 107.776C2.56374 107.43 1.62783 106.688 1.66667 105.387L1.66762 105.355L1.67062 105.323L2.66623 105.417C1.67062 105.323 1.67068 105.323 1.67074 105.322L1.67087 105.321L1.67114 105.318L1.67175 105.312L1.67327 105.298C1.67443 105.288 1.67588 105.276 1.67768 105.263C1.6813 105.237 1.68636 105.204 1.69339 105.165C1.70745 105.088 1.72945 104.988 1.76366 104.869C1.83213 104.63 1.94958 104.315 2.15005 103.959C2.35415 103.596 2.63948 103.199 3.03529 102.8C2.82267 102.76 2.56195 102.668 2.33175 102.462L2.27219 102.409L2.22186 102.347L2.99899 101.717C2.22186 102.347 2.22133 102.346 2.22079 102.345L2.2197 102.344L2.21745 102.341L2.21266 102.335L2.20199 102.321C2.19441 102.311 2.18591 102.3 2.17666 102.287C2.15818 102.261 2.13649 102.23 2.11303 102.192C2.0664 102.117 2.01101 102.016 1.96008 101.891C1.85805 101.641 1.76936 101.283 1.81884 100.854C1.92345 99.9476 2.58263 99.1056 3.89666 98.3923L3.96671 98.3543L4.04189 98.3278L4.37375 99.2712C4.04189 98.3278 4.04218 98.3277 4.04248 98.3276L4.04309 98.3274L4.04442 98.3269L4.04746 98.3259L4.05505 98.3233L4.07624 98.3162C4.09303 98.3106 4.11513 98.3035 4.14244 98.2951C4.19705 98.2783 4.27252 98.2564 4.36807 98.2314C4.55916 98.1814 4.83074 98.1193 5.17647 98.0626C5.40755 98.0246 5.67178 97.9891 5.96725 97.9611C5.83948 97.9318 5.69189 97.8917 5.5406 97.8371C5.32294 97.7585 5.01463 97.6212 4.75623 97.3765C4.46713 97.1027 4.21883 96.6633 4.29621 96.1025L4.29708 96.0965L5.28684 96.2392C4.29708 96.0965 4.29726 96.0952 4.29743 96.094L4.2978 96.0916L4.29856 96.0865L4.30022 96.0761L4.30412 96.0539C4.30699 96.0384 4.31043 96.0217 4.31455 96.0038C4.3228 95.9681 4.33382 95.9275 4.34857 95.8831C4.37812 95.7943 4.42274 95.6898 4.4899 95.5786C4.62815 95.3496 4.84583 95.1187 5.1673 94.9387C5.77271 94.5998 6.64142 94.4946 7.8766 94.6997C7.8625 94.6537 7.85032 94.606 7.84037 94.5566C7.72456 93.9815 7.96573 93.4791 8.30807 93.1114L8.35514 93.0609L8.40871 93.0173L9.03995 93.7928C8.40871 93.0173 8.40939 93.0167 8.41007 93.0162L8.41146 93.015L8.41431 93.0127L8.42031 93.008L8.43352 92.9977C8.44288 92.9905 8.45332 92.9827 8.46486 92.9743C8.48794 92.9577 8.51544 92.9389 8.54741 92.9188C8.61135 92.8785 8.6933 92.8326 8.79349 92.7876C8.99513 92.697 9.26612 92.6117 9.60504 92.5794C10.2198 92.5208 10.9868 92.642 11.8986 93.1077C12.1148 92.7855 12.451 92.6222 12.7141 92.5466L12.9257 92.4858L13.1433 92.5195L12.9903 93.5077C13.1433 92.5195 13.1437 92.5195 13.1442 92.5196L13.1451 92.5197L13.1471 92.5201L13.1513 92.5207L13.1609 92.5223L13.1842 92.5265C13.2016 92.5297 13.2228 92.534 13.2474 92.5394C13.2967 92.5502 13.36 92.5658 13.4354 92.5878C13.5863 92.632 13.786 92.7022 14.019 92.8124C14.487 93.0337 15.0828 93.413 15.6811 94.0541L15.7058 94.0806L15.7285 94.1087L14.9959 94.6995C15.7285 94.1087 15.7287 94.1089 15.7288 94.1092L15.7292 94.1096L15.7301 94.1107L15.7319 94.113L15.7365 94.1188L15.7488 94.1344C15.7583 94.1467 15.7705 94.1627 15.785 94.1822C15.8139 94.2212 15.8522 94.2745 15.8967 94.3408C15.9853 94.4728 16.1009 94.6595 16.2172 94.8895C16.3972 95.2459 16.5949 95.7379 16.6786 96.3116ZM6.45691 97.9241C6.45696 97.9241 6.45702 97.9241 6.45707 97.9241L6.54321 97.0471C6.49351 97.5531 6.46901 97.8018 6.45691 97.9241ZM7.82211 95.705C7.90144 95.3268 7.95014 95.0947 7.98005 94.9524C7.98003 94.9523 7.98001 94.9523 7.97999 94.9523L7.82211 95.705ZM17.6415 103.699L18.3292 103.509L17.6415 103.699C17.6415 103.699 17.6415 103.699 17.6415 103.699ZM13.7854 100.793L13.3182 100.847C13.3182 100.847 13.3182 100.847 13.3182 100.847C13.5756 100.817 13.7125 100.801 13.7854 100.793C13.7854 100.793 13.7854 100.793 13.7854 100.793Z" fill="#0F175F" stroke="#0F175F" stroke-width="2"/>
<path d="M24.9496 83.8693C24.9496 83.8693 24.9496 83.8693 24.9496 83.8693L25.1153 83.5176C25.0508 83.6545 24.9961 83.7707 24.9496 83.8693ZM28.1715 84.6902C28.1735 84.698 28.1754 84.7057 28.1774 84.7133C28.273 84.7328 28.4007 84.7497 28.5651 84.7536C28.5735 84.7525 28.5824 84.7513 28.5917 84.7501C28.6617 84.741 28.7592 84.7298 28.8782 84.7196C29.1145 84.6992 29.4436 84.6823 29.8145 84.6968C30.4995 84.7235 31.5324 84.863 32.3209 85.4905C32.33 85.4971 32.3405 85.5048 32.3522 85.5136C32.3873 85.5399 32.4339 85.5759 32.4885 85.621C32.5964 85.7102 32.7417 85.8399 32.8919 86.0038C33.1676 86.3046 33.5775 86.8471 33.6404 87.558L33.6542 87.7138L33.6197 87.8663L32.6443 87.6461C33.6197 87.8663 33.6196 87.8671 33.6194 87.8678L33.619 87.8693L33.6183 87.8723L33.6169 87.8785L33.6137 87.8916C33.6114 87.9005 33.6089 87.9101 33.6061 87.9201C33.6004 87.9401 33.5935 87.9626 33.585 87.9869C33.5683 88.035 33.5441 88.0941 33.5095 88.1588C33.4416 88.2856 33.3194 88.4586 33.1108 88.5957C33.0037 88.6662 32.8943 88.7154 32.7849 88.7474C32.9139 88.9067 33.0529 89.091 33.1855 89.2915C33.4024 89.6192 33.6359 90.0402 33.7563 90.4993C33.8777 90.9626 33.9099 91.5791 33.5482 92.1514L33.4077 92.3737L33.176 92.4981L32.7029 91.6171C33.176 92.4981 33.1754 92.4984 33.1748 92.4987L33.1737 92.4993L33.1712 92.5006L33.1662 92.5033L33.1552 92.509C33.1475 92.5129 33.139 92.5171 33.1298 92.5215C33.1114 92.5304 33.0899 92.5402 33.0654 92.5505C33.0166 92.5711 32.9549 92.594 32.8818 92.6151C32.7367 92.6568 32.537 92.6936 32.3004 92.6819C31.8737 92.6607 31.4287 92.4869 31.0373 92.1082C31.1073 92.9367 31.0228 93.8719 30.593 94.7878L30.5828 94.8095L30.5716 94.8306L29.6877 94.363C30.5716 94.8306 30.5715 94.8308 30.5714 94.831L30.5712 94.8314L30.5707 94.8324L30.5695 94.8346L30.5662 94.8407L30.5565 94.8587C30.5485 94.8732 30.5377 94.8928 30.5241 94.9167C30.497 94.9645 30.4586 95.0301 30.4102 95.1084C30.3143 95.2635 30.1745 95.4753 29.9998 95.6977C29.8274 95.9173 29.6056 96.167 29.3426 96.3848C29.0857 96.5976 28.7376 96.823 28.3128 96.9198L28.1487 96.9572L27.9815 96.9388L28.0907 95.9448C27.9815 96.9388 27.9806 96.9387 27.9798 96.9386L27.9781 96.9384L27.9747 96.938L27.9675 96.9372L27.9519 96.9351C27.9409 96.9336 27.9289 96.9318 27.9159 96.9297C27.89 96.9253 27.8598 96.9195 27.8261 96.9116C27.759 96.8959 27.6761 96.8717 27.5835 96.8343C27.4085 96.7637 27.195 96.6441 26.9925 96.4448C26.7725 97.0312 26.4401 97.6398 25.9298 98.089L25.8919 98.1223L25.8509 98.1517L25.269 97.3384C25.8509 98.1517 25.8506 98.1519 25.8502 98.1522L25.8495 98.1527L25.848 98.1537L25.8448 98.156L25.837 98.1614L25.8169 98.1752C25.8015 98.1856 25.7819 98.1984 25.7586 98.2131C25.7121 98.2424 25.6493 98.2797 25.5729 98.3198C25.4238 98.3981 25.204 98.4972 24.9392 98.5616C24.3932 98.6943 23.5526 98.6873 22.8893 97.9486L22.8081 97.8582L22.7509 97.751L23.6333 97.2805C22.7509 97.751 22.7505 97.7503 22.7502 97.7495L22.7494 97.7481L22.7478 97.7451L22.7446 97.7389L22.7376 97.7252C22.7327 97.7155 22.7275 97.7047 22.722 97.6929C22.7109 97.6692 22.6985 97.6412 22.6853 97.6088C22.68 97.5956 22.6745 97.5816 22.6689 97.567C22.6004 97.6547 22.5247 97.7452 22.4413 97.837C21.8767 98.4584 20.9688 99.1252 19.6019 99.385L19.5425 99.3962L19.4822 99.4003L19.4152 98.4025C19.4822 99.4003 19.4819 99.4003 19.4815 99.4003L19.4808 99.4004L19.4792 99.4005L19.4753 99.4007L19.4652 99.4013L19.4358 99.4028C19.4123 99.4039 19.3808 99.405 19.3424 99.4057C19.2658 99.4072 19.1604 99.4071 19.0346 99.4017C18.7868 99.3911 18.4403 99.3588 18.0695 99.2671C17.3741 99.0952 16.2782 98.6216 15.979 97.3545L15.9716 97.3234L15.9663 97.2919L16.9522 97.1247C15.9663 97.2919 15.9661 97.2912 15.966 97.2906L15.9658 97.2893L15.9654 97.2866L15.9644 97.2806L15.9623 97.2668C15.9619 97.2643 15.9615 97.2616 15.9611 97.2589C15.96 97.2508 15.9588 97.2418 15.9575 97.2319C15.9541 97.2054 15.9506 97.1725 15.9474 97.1335C15.941 97.0555 15.9363 96.953 15.9385 96.8289C15.9429 96.5807 15.9748 96.2461 16.0762 95.8499C16.1794 95.4465 16.3522 94.989 16.6313 94.5014C16.4155 94.5174 16.14 94.4966 15.8643 94.357L15.793 94.3209L15.7283 94.2739L16.316 93.4649C15.7283 94.2739 15.7276 94.2734 15.7269 94.2729L15.7255 94.2719L15.7226 94.2698L15.7164 94.2652L15.7025 94.2546C15.6927 94.247 15.6815 94.2382 15.6692 94.2282C15.6447 94.2081 15.6155 94.1829 15.5831 94.1525C15.5186 94.0921 15.4389 94.0087 15.3574 93.9013C15.1941 93.6861 15.0159 93.3635 14.9527 92.9365C14.8191 92.0339 15.2379 91.05 16.3226 90.0209L16.3804 89.966L16.4461 89.921L17.0109 90.7463C16.4461 89.921 16.4464 89.9208 16.4467 89.9207L16.4472 89.9203L16.4484 89.9195L16.451 89.9177L16.4577 89.9132L16.4763 89.9009C16.4911 89.8912 16.5106 89.8786 16.5348 89.8634C16.5832 89.833 16.6504 89.7923 16.7363 89.7434C16.9079 89.6457 17.1542 89.5154 17.4734 89.3711C17.6868 89.2747 17.9328 89.1719 18.211 89.0684C18.08 89.0732 17.927 89.0726 17.7668 89.0591C17.5362 89.0395 17.2028 88.9867 16.8899 88.8172C16.5398 88.6275 16.1863 88.2674 16.1158 87.7057L16.1151 87.6996L17.1081 87.5813C16.1151 87.6996 16.115 87.6984 16.1148 87.6972L16.1146 87.6947L16.114 87.6897L16.1129 87.6792L16.1109 87.6567C16.1097 87.641 16.1087 87.6239 16.108 87.6056C16.1067 87.5689 16.1069 87.5269 16.1096 87.4802C16.1152 87.3867 16.1313 87.2743 16.1673 87.1495C16.2416 86.8925 16.3921 86.6132 16.656 86.3561C17.1531 85.872 17.965 85.5456 19.2112 85.424C19.1856 85.3832 19.1615 85.3403 19.1391 85.2952C18.8784 84.7697 18.9813 84.2219 19.2169 83.7782L19.2492 83.7172L19.2897 83.6612L20.1002 84.247C19.2897 83.6612 19.2902 83.6605 19.2907 83.6597L19.2918 83.6583L19.2939 83.6554L19.2985 83.6492L19.3086 83.6358C19.3158 83.6265 19.3238 83.6162 19.3328 83.6052C19.3508 83.5831 19.3725 83.5579 19.3982 83.5301C19.4495 83.4747 19.5168 83.4092 19.6019 83.3398C19.7732 83.2001 20.0129 83.0476 20.3319 82.9286C20.9805 82.6868 21.8722 82.6137 23.0569 82.936L23.0985 82.9473L23.139 82.9622L22.7944 83.9009C23.139 82.9622 23.1392 82.9622 23.1394 82.9623L23.1397 82.9624L23.1405 82.9627L23.1425 82.9635L23.148 82.9655L23.1647 82.9718C23.1784 82.977 23.197 82.9841 23.2203 82.9933C23.2668 83.0116 23.3319 83.0378 23.4125 83.0719C23.4671 83.095 23.5289 83.1218 23.5971 83.1523C23.5936 83.1233 23.5911 83.0937 23.5897 83.0635C23.5606 82.4379 23.987 82.0604 24.2948 81.8888C24.8144 81.599 25.4245 81.6441 25.8679 81.7657C26.3494 81.8977 26.8592 82.1768 27.2479 82.6237C27.6389 83.0731 27.857 83.6262 27.9948 84.0595C28.0665 84.285 28.124 84.504 28.1715 84.6902ZM32.6281 86.8283C32.6281 86.8282 32.6275 86.8279 32.6263 86.8274C32.6275 86.828 32.6281 86.8283 32.6281 86.8283ZM31.5876 91.2277L30.9725 91.589C30.9725 91.5891 30.9725 91.5891 30.9725 91.5891L31.5876 91.2277ZM26.4957 89.7803L26.0584 89.9535C26.0584 89.9535 26.0584 89.9535 26.0584 89.9535C26.2993 89.8582 26.4275 89.8074 26.4957 89.7805C26.4957 89.7804 26.4957 89.7804 26.4957 89.7803ZM18.6744 88.906C18.6744 88.906 18.6745 88.906 18.6745 88.9059L18.5308 88.0366C18.6137 88.5382 18.6544 88.7848 18.6744 88.906ZM19.4187 86.4092C19.3975 86.0233 19.3844 85.7866 19.3765 85.6413C19.3765 85.6413 19.3764 85.6412 19.3764 85.6412L19.4187 86.4092ZM25.1726 83.6725C25.1727 83.6726 25.1739 83.6725 25.1763 83.6721C25.1738 83.6723 25.1726 83.6725 25.1726 83.6725Z" fill="#0F175F" stroke="#0F175F" stroke-width="2"/>
<path d="M39.1509 97.0061C37.1931 97.7917 35.3595 98.967 33.8537 100.296L33.7912 100.352L33.6534 100.476L33.5191 100.6L33.3884 100.723C33.3669 100.743 33.3456 100.764 33.3244 100.784L33.1994 100.906L33.0784 101.027L32.9617 101.146C32.9235 101.185 32.886 101.225 32.8493 101.263L32.7416 101.379L32.6385 101.493C32.605 101.53 32.5723 101.568 32.5404 101.604L32.4474 101.713L32.3597 101.819C32.3313 101.854 32.3039 101.889 32.2774 101.923L32.2008 102.023C32.0655 102.203 31.9595 102.366 31.8877 102.506L31.8645 102.553L31.7846 102.496C27.1436 99.2493 21.0066 100.339 17.5284 105.08L16.7653 106.12L16.5873 106.096C9.9819 105.198 3.63635 109.221 1.00941 115.965L0.0124225 118.524C-0.0334555 118.642 0.0534161 118.769 0.179812 118.769H89.8205C89.9469 118.769 90.0338 118.642 89.9879 118.524L88.8841 115.692L88.7957 115.47C85.8385 108.149 78.8887 103.801 71.6577 104.784L71.449 104.812L70.5977 103.652L70.479 103.493C66.5748 98.337 59.7794 97.2234 54.684 100.908L54.6578 100.927L54.7676 101.044C49.927 95.8464 44.5182 94.8525 39.1509 97.0061Z" fill="#0F175F"/>
<path d="M54.5056 101.289C54.5681 101.356 54.6712 101.365 54.7446 101.31C59.7463 97.5713 66.5025 98.6785 70.3089 103.865L71.2236 105.111C71.2625 105.164 71.3274 105.191 71.3926 105.182L71.707 105.14L71.921 105.112C78.9783 104.257 85.732 108.592 88.5503 115.823L89.5586 118.41H0.443359L1.3451 116.095C3.91347 109.502 10.104 105.577 16.5398 106.452L16.8238 106.491C16.889 106.5 16.9539 106.472 16.9929 106.419L17.819 105.293C21.2514 100.614 27.3428 99.6152 31.8526 102.988C31.9656 103.073 32.1246 103 32.1388 102.864L32.1398 102.844C32.1398 102.799 32.1643 102.731 32.2107 102.645L32.2412 102.59L32.2767 102.532C32.283 102.522 32.2896 102.512 32.2964 102.502L32.3393 102.437C32.3469 102.426 32.3547 102.415 32.3626 102.404L32.4128 102.334L32.4675 102.261L32.5267 102.184C32.5369 102.171 32.5473 102.158 32.5579 102.144L32.658 102.022L32.7298 101.936L32.8056 101.849L32.8852 101.758L32.9685 101.666L33.0554 101.572L33.1458 101.476L33.2874 101.329L33.3858 101.23L33.4872 101.129L33.5914 101.028L33.6983 100.926L33.8079 100.823L33.9199 100.72L34.0343 100.617C34.0536 100.6 34.0729 100.583 34.0924 100.566C35.5688 99.2623 37.3681 98.109 39.2856 97.3396C44.5198 95.2394 49.7701 96.2042 54.5056 101.289Z" fill="white"/>
<path d="M44.7031 91.1959C44.694 91.166 44.6767 91.1119 44.6507 91.0357C44.6081 90.9105 44.5563 90.7675 44.4951 90.6086C44.3211 90.1566 44.1062 89.6669 43.8481 89.1563C42.7582 86.9999 41.2792 85.17 39.356 84.0216C35.7077 81.843 31.0875 82.4995 25.4501 86.8188L25.8518 87.3441C31.2884 83.1786 35.6204 82.563 39.0155 84.5904C40.8149 85.6649 42.2186 87.4017 43.2571 89.4564C43.5048 89.9463 43.7108 90.4159 43.8772 90.8481C43.9352 90.9987 43.9841 91.1337 44.0239 91.2508C44.0475 91.3199 44.0626 91.3669 44.0695 91.3898L44.7031 91.1959Z" fill="#0F175F"/>
<path d="M33.5825 92.8046C38.2816 90.3514 43.0249 92.129 47.8903 98.2392L48.4525 97.7916C43.3944 91.4394 38.301 89.5307 33.25 92.1676L33.5825 92.8046Z" fill="white"/>
<path d="M32.4109 88.178L32.4841 88.2498C33.3527 89.1159 33.9215 90.1911 34.1883 91.467L34.2123 91.5856L34.2312 91.6042C34.5079 91.8625 35.0306 92.0209 35.81 92.0525L35.8378 92.0548C37.6521 92.2702 39.0968 92.9506 40.1558 94.097L40.1684 94.1114C41.1397 95.2824 41.6395 96.3732 41.6496 97.3892L41.65 97.4361L41.6385 97.4814C41.4802 98.103 40.9449 98.1792 40.3708 97.7934L40.2806 97.7327L40.2391 97.6321L40.2004 97.5394C39.6554 96.2522 38.9985 95.4213 38.2424 95.0318L38.2157 95.0184L38.1538 95.0024C38.0659 94.9811 37.9914 94.9692 37.9313 94.9661L37.9094 94.9653L37.9026 94.9653L38.3399 95.572L38.5814 95.9046L38.8136 96.2226L39.18 96.7203L39.4547 97.0892L39.7128 97.4322L39.8956 97.6724L40.0692 97.898C41.8476 100.194 42.375 102.027 41.5542 103.385L41.5066 103.463L41.427 103.509C40.6456 103.963 39.9117 103.633 39.3338 102.666L39.291 102.593L39.1647 102.29L39.0513 102.015L38.942 101.746L38.8368 101.484L38.7356 101.228L38.6384 100.978C38.6226 100.937 38.6069 100.897 38.5914 100.856L38.5004 100.616L38.4134 100.383C38.3993 100.345 38.3853 100.307 38.3715 100.269L38.2906 100.045L38.2138 99.8281L38.1411 99.6174L38.0724 99.4131C38.0613 99.3796 38.0504 99.3463 38.0396 99.3134L37.977 99.1187L37.9185 98.9305L37.864 98.7487L37.8458 98.6854L37.8183 98.6259C37.3269 97.5665 36.715 96.9187 35.987 96.6582L35.9395 96.6418L35.9503 96.6447C35.7587 96.5937 35.6048 96.5613 35.4913 96.5474C35.4522 96.5426 35.4196 96.5402 35.3942 96.5399L35.3716 96.5401L35.3696 96.5398L35.3797 96.5351C35.2605 96.5814 35.1953 96.7692 35.214 96.9429C35.2147 96.9497 35.2191 96.9613 35.2273 96.9774L35.2424 97.0052C35.2454 97.0104 35.2486 97.0159 35.2521 97.0217L35.276 97.0598L35.3059 97.1048L35.342 97.1567L35.4078 97.2472L35.4596 97.316L35.7481 97.6855L35.814 97.7714L35.8753 97.8528L35.9315 97.929C36.2065 98.3069 36.395 98.6352 36.5077 98.9731L36.5222 99.0185L36.5147 99.0013C37.9417 102.277 38.0135 105.324 36.7192 108.117C35.8275 109.849 34.899 110.838 33.8883 111.07L33.8181 111.087L33.7471 111.074C32.878 110.926 32.4641 110.201 32.4536 108.981L32.454 108.848C32.4586 108.534 32.4882 108.19 32.5422 107.816L32.5721 107.521L32.6144 107.089L32.6536 106.67L32.6896 106.263L32.7225 105.869L32.7522 105.487L32.7703 105.239L32.7947 104.878L32.8093 104.644L32.8285 104.304L32.8396 104.084L32.8492 103.87L32.8611 103.559L32.8672 103.359L32.872 103.164C32.8727 103.132 32.8733 103.1 32.8739 103.069L32.8765 102.883C32.8768 102.852 32.8771 102.822 32.8773 102.792L32.8779 102.614C32.8778 102.585 32.8778 102.556 32.8776 102.527L32.8761 102.358L32.8731 102.194L32.8688 102.036L32.863 101.883L32.8558 101.737C32.8545 101.713 32.8532 101.689 32.8517 101.665L32.8437 101.58C32.6852 99.9762 32.1446 99.0726 31.2385 98.7977L31.2279 98.8023C30.9418 98.931 30.8935 99.2677 31.1368 99.9745L31.1444 99.9998L31.1842 100.152L31.261 100.452L31.3344 100.747C31.3582 100.845 31.3815 100.941 31.4042 101.038L31.4706 101.323C31.5136 101.512 31.5544 101.698 31.5928 101.881L31.6486 102.153C31.7929 102.872 31.8998 103.541 31.9692 104.16L31.9935 104.39C32.0836 105.3 32.0892 106.099 32.01 106.787C31.7474 109.886 30.9687 112.071 29.6488 113.325L29.6214 113.349C28.4635 114.246 27.4193 114.176 26.6812 113.114L26.6249 113.031L26.6103 112.992C26.3295 112.244 26.2837 111.2 26.4677 109.853L26.4955 109.658L26.5265 109.459C26.5319 109.426 26.5375 109.392 26.5432 109.358L26.5788 109.154L26.6176 108.945C26.6243 108.909 26.6312 108.874 26.6382 108.839L26.6816 108.623L26.7282 108.404C26.7442 108.33 26.7607 108.256 26.7778 108.18L26.8306 107.953C26.8396 107.914 26.8488 107.876 26.8581 107.837L26.9155 107.603C26.9351 107.525 26.9553 107.445 26.976 107.365L27.0396 107.123L27.1062 106.876C27.1176 106.835 27.1291 106.793 27.1407 106.751L27.212 106.499L27.3237 106.112C27.6022 105.115 27.6977 104.134 27.6113 103.166L27.6077 103.127L27.603 103.121C27.4092 102.843 27.2675 102.766 27.1597 102.801L27.1402 102.808C26.9696 102.877 26.7443 103.15 26.5009 103.635L26.4751 103.687L26.4701 103.784L26.4519 104.118L26.4321 104.448C26.4287 104.502 26.4252 104.556 26.4217 104.61L26.3998 104.931L26.3764 105.246L26.3516 105.555C26.3473 105.606 26.343 105.657 26.3386 105.708L26.3116 106.009L26.2832 106.304C26.2686 106.451 26.2534 106.595 26.2377 106.737L26.2056 107.018C26.1947 107.111 26.1835 107.203 26.172 107.294L26.137 107.564L26.1005 107.829L26.0625 108.088L26.023 108.342L25.9821 108.589L25.9398 108.832C25.9326 108.872 25.9253 108.911 25.918 108.951L25.8734 109.185C25.8659 109.223 25.8583 109.262 25.8506 109.3L25.8038 109.525C25.7879 109.599 25.7718 109.673 25.7555 109.745L25.7058 109.959C25.6132 110.347 25.5132 110.707 25.4057 111.039C24.5889 113.195 22.9868 114.511 20.6331 114.976L20.5108 114.999L20.4852 115C18.1675 115.097 16.8092 114.164 16.5551 112.246L16.5531 112.226C16.3953 110.185 17.3483 108.071 19.3834 105.886L19.4694 105.802L19.5611 105.715L19.6578 105.626L19.8123 105.486L19.9214 105.39L20.0946 105.241L20.2163 105.138L20.343 105.033L20.4748 104.924L20.6115 104.813L20.826 104.642L21.0519 104.465L21.2088 104.343L21.4536 104.155L21.7097 103.962L21.9772 103.762L22.256 103.556L22.5463 103.344L22.848 103.126L23.1611 102.902L23.5963 102.593L24.052 102.274L24.4578 101.992L24.4652 101.978C24.6234 101.671 24.557 101.512 24.1558 101.393L24.0815 101.373C24.0426 101.363 24.001 101.353 23.9567 101.344L23.9176 101.335L23.8575 101.342C23.1539 101.428 22.3342 101.851 21.4069 102.619L21.2634 102.74C21.0468 102.926 20.8246 103.129 20.5967 103.351L20.444 103.502C20.3672 103.579 20.2898 103.658 20.2118 103.739L20.0764 103.873L19.9432 104.003L19.8121 104.129L19.683 104.251L19.556 104.369L19.4311 104.483L19.3083 104.594L19.1874 104.7L19.0686 104.802L18.9518 104.901L18.8371 104.995C18.8181 105.011 18.7992 105.026 18.7804 105.041L18.6686 105.129L18.5588 105.214L18.4509 105.294C18.4152 105.32 18.3799 105.346 18.3449 105.37L18.2409 105.443C18.2066 105.466 18.1726 105.489 18.1389 105.511L18.0387 105.575L17.9404 105.636C17.9242 105.645 17.9081 105.655 17.892 105.664L17.7965 105.718C17.135 106.082 16.6106 106.145 16.2047 105.892L16.1497 105.856L16.127 105.834C14.8567 104.614 15.232 102.928 17.1017 100.87L17.2231 100.738L17.3485 100.605C17.3698 100.583 17.3912 100.561 17.4127 100.538L17.4979 100.451L17.5209 100.434C18.8167 99.4736 20.6416 98.7519 22.9957 98.2611L23.1152 98.2395C24.6196 97.9595 25.7686 97.4733 26.5758 96.7859L26.6064 96.7593L26.6177 96.7421C26.8193 96.4295 26.7824 96.2195 26.4151 96.0358L26.3508 96.0054L26.2803 95.9754C26.268 95.9705 26.2555 95.9655 26.2427 95.9606L26.1627 95.9311L26.0762 95.9018C26.0613 95.8969 26.046 95.892 26.0305 95.8872L25.9342 95.8581L25.8999 95.8482L25.9161 95.8512C24.454 95.577 22.6221 95.7183 20.4234 96.2818L20.39 96.2887C18.8483 96.5312 17.9311 96.1352 17.8869 95.0466C17.8516 94.0502 18.5102 93.3818 19.7988 93.0125L19.9255 92.9777C19.9469 92.972 19.9685 92.9664 19.9903 92.9609L20.1228 92.9289L20.2593 92.8988C20.3746 92.8744 20.494 92.852 20.6174 92.8314L20.7674 92.8077L20.9212 92.7858C20.9731 92.7788 21.0257 92.7721 21.0789 92.7657L21.2404 92.7474L21.4057 92.731L21.5748 92.7163L21.7476 92.7035C21.7767 92.7015 21.806 92.6996 21.8355 92.6977L21.9563 92.6952C23.6916 92.6693 25.567 93.1077 27.5934 94.0053L27.7069 94.0558L27.7366 94.0636C28.686 94.303 29.1851 94.1211 29.3844 93.516L29.3989 93.4698L29.397 93.4605C29.2641 92.829 28.5754 92.3001 27.2653 91.9031C27.1419 91.8666 27.0027 91.8324 26.8477 91.8007L26.711 91.7742L26.5667 91.7488L26.4146 91.7247L26.255 91.7018L26.0876 91.6802L25.9127 91.6598L25.7301 91.6407L25.54 91.6228C25.5077 91.6199 25.4751 91.6171 25.4421 91.6144L25.2406 91.5984L25.0316 91.5837L24.8151 91.5704L24.591 91.5583C22.7541 91.4316 22.0684 90.5312 22.7885 89.0883L22.8235 89.0197L22.836 89.0014C23.672 87.7797 25.2086 87.6045 27.3517 88.4008L27.385 88.4151C28.7375 89.0797 29.9707 90.0161 31.0838 91.2224L31.1493 91.2955L31.2025 91.3521L31.2322 91.3809C31.306 91.4482 31.3385 91.4406 31.3849 91.3678L31.4128 91.3201L31.4341 91.2808C31.5414 91.0809 31.5037 90.8201 31.3507 90.5306C31.31 90.4537 31.2646 90.3818 31.2186 90.3178L31.1761 90.2613L31.1641 90.2467L31.1421 90.2212L31.1244 90.1909L31.0994 90.1573C31.063 90.1103 31.0136 90.0547 30.9495 89.9918C30.7558 89.8016 30.4843 89.5982 30.122 89.3922C29.8674 89.2475 29.5777 89.1076 29.2509 88.9745L29.1098 88.9183L29.0818 88.9008C27.975 88.211 27.7807 87.3935 28.7167 86.7841L28.7915 86.7354L28.8803 86.7274C29.956 86.6298 31.1248 87.116 32.39 88.1593L32.4109 88.178Z" fill="#0F175F"/>
<path d="M32.1612 88.4365C30.9624 87.4479 29.8796 86.9975 28.9126 87.0852C28.2394 87.5235 28.3591 88.0271 29.2717 88.5959C29.3711 88.6349 29.4662 88.6741 29.5571 88.7133L29.6905 88.7721L29.8178 88.8308C29.8592 88.8503 29.8997 88.8698 29.9391 88.8893L30.0547 88.9475L30.1646 89.0053L30.2689 89.0626L30.3677 89.1192L30.4613 89.1752L30.5496 89.2302C30.5782 89.2484 30.606 89.2665 30.6329 89.2843L30.7112 89.3374L30.7848 89.3892L30.8536 89.4398L30.9179 89.489L30.9777 89.5366L31.0332 89.5827L31.0845 89.627L31.1317 89.6695L31.175 89.71L31.2144 89.7485L31.2667 89.8021L31.3111 89.8505L31.3587 89.9063L31.3862 89.941L31.426 89.9961L31.4367 90.0127L31.4694 90.0534L31.4892 90.0794L31.5124 90.1112L31.5385 90.1484L31.5667 90.1906L31.5965 90.2376C31.6016 90.2458 31.6067 90.2542 31.6118 90.2628L31.6429 90.3163C31.6481 90.3255 31.6533 90.3349 31.6584 90.3445L31.6893 90.4038C31.8318 90.6888 31.9458 91.0869 31.7506 91.4507C31.5135 91.8925 31.2032 91.8976 30.8196 91.466C29.7359 90.2916 28.5382 89.3821 27.2264 88.7376C25.2201 87.9921 23.8554 88.1477 23.1324 89.2043C22.5028 90.423 22.995 91.0881 24.6089 91.1994L24.8378 91.2118C24.8753 91.2139 24.9126 91.2162 24.9495 91.2185L25.1671 91.2328L25.3773 91.2486L25.5799 91.2656C25.613 91.2686 25.6459 91.2716 25.6784 91.2747L25.8697 91.2938C26.0573 91.3136 26.2336 91.3354 26.3986 91.3592L26.5598 91.3838C26.8748 91.4342 27.1447 91.4927 27.3694 91.5593C28.8515 92.0084 29.6503 92.6511 29.766 93.4875C29.5349 94.4168 28.8085 94.7196 27.5869 94.396C25.5055 93.4554 23.5958 93.0088 21.8578 93.0563L21.6829 93.0683L21.5124 93.082L21.3462 93.0975C21.3188 93.1002 21.2917 93.103 21.2647 93.1059L21.105 93.124L20.9496 93.1439C20.822 93.1612 20.6988 93.1804 20.5802 93.2013L20.44 93.2274C20.371 93.2408 20.3036 93.255 20.2379 93.2697L20.1086 93.3002C18.8369 93.6135 18.216 94.1908 18.2458 95.032C18.2766 95.7917 18.8836 96.1044 20.0668 95.9701L20.1981 95.9537C20.2427 95.9476 20.288 95.941 20.3341 95.9337C22.5796 95.3582 24.4623 95.213 25.9822 95.4981C27.0663 95.8045 27.3644 96.3052 26.8767 97.0003C25.9911 97.7835 24.7218 98.321 23.0689 98.6128C20.7616 99.0938 18.9836 99.797 17.7347 100.723L17.6705 100.789L17.5453 100.919C17.5248 100.941 17.5044 100.963 17.4843 100.984L17.3654 101.113L17.2508 101.241C17.2132 101.284 17.1764 101.326 17.1403 101.368L17.0341 101.493L16.9321 101.617C16.8987 101.658 16.8661 101.698 16.8342 101.739L16.7406 101.86C16.6339 102.001 16.5358 102.139 16.4462 102.274L16.3716 102.39C15.5374 103.709 15.5388 104.771 16.3758 105.575C16.6671 105.77 17.1051 105.7 17.6897 105.364L17.7832 105.308C17.799 105.299 17.8149 105.289 17.8309 105.279L17.9281 105.217L18.0277 105.151C18.0781 105.117 18.1295 105.081 18.1817 105.043L18.2874 104.966L18.3956 104.884L18.5062 104.798L18.6192 104.707C18.6573 104.676 18.6957 104.645 18.7346 104.612L18.8525 104.513L18.9729 104.409L19.0956 104.301L19.2208 104.188C19.2419 104.169 19.2631 104.15 19.2844 104.13L19.4132 104.011L19.5445 103.887L19.6782 103.759L19.8144 103.626L19.953 103.489C21.491 101.895 22.8193 101.056 23.9381 100.973C24.857 101.153 25.1211 101.575 24.7302 102.24L24.2648 102.563L23.9287 102.799L23.393 103.178L22.9867 103.469L22.6 103.75L22.3229 103.953L22.0569 104.15L21.7195 104.404L21.4017 104.647L21.1763 104.823L21.0322 104.936L20.8253 105.102L20.6294 105.261L20.505 105.364L20.3276 105.513L20.1613 105.657L20.0565 105.749L19.9567 105.838L19.8618 105.925L19.7719 106.01L19.6868 106.091C19.6731 106.104 19.6595 106.118 19.6462 106.131C17.6738 108.248 16.7621 110.271 16.9112 112.199C17.1386 113.916 18.325 114.73 20.4701 114.641C22.7557 114.216 24.2869 112.978 25.0638 110.928C25.1691 110.603 25.2671 110.25 25.358 109.869L25.4068 109.658C25.4148 109.622 25.4228 109.586 25.4307 109.55L25.4774 109.331C25.4927 109.257 25.5078 109.182 25.5227 109.106L25.5665 108.875L25.6089 108.639C25.6159 108.599 25.6228 108.559 25.6296 108.519L25.6699 108.274C25.6962 108.109 25.7216 107.941 25.7461 107.768L25.7821 107.507C25.788 107.463 25.7938 107.418 25.7995 107.374L25.8334 107.104L25.8658 106.828C25.8711 106.782 25.8763 106.735 25.8815 106.689L25.9117 106.405L25.9406 106.115L25.968 105.82L25.9939 105.519L26.0185 105.213L26.0416 104.901L26.0633 104.583L26.0835 104.26L26.1024 103.931C26.1084 103.82 26.1142 103.709 26.1198 103.597L26.1727 103.488L26.2256 103.384C26.252 103.334 26.2784 103.286 26.3047 103.239L26.3574 103.149C26.4101 103.062 26.4626 102.982 26.5151 102.911L26.5675 102.842C27.0388 102.247 27.5017 102.301 27.9562 103.002C28.0679 104.058 27.9719 105.128 27.6684 106.212L27.5573 106.597C27.5453 106.639 27.5334 106.681 27.5216 106.723L27.4526 106.971L27.3866 107.215C27.3759 107.256 27.3653 107.296 27.3548 107.336L27.2935 107.573L27.2352 107.807L27.1801 108.036L27.1281 108.261L27.0791 108.481L27.0333 108.697C27.0259 108.733 27.0187 108.768 27.0115 108.804L26.9703 109.013L26.9322 109.219L26.8972 109.42L26.8653 109.617C26.6427 111.045 26.6698 112.128 26.9466 112.866C27.5627 113.789 28.3809 113.855 29.4012 113.065C30.6454 111.883 31.396 109.776 31.6529 106.746C31.8063 105.414 31.6281 103.631 31.1185 101.396L31.0531 101.114C31.0419 101.067 31.0306 101.02 31.0191 100.972L30.9485 100.683C30.9364 100.635 30.9242 100.586 30.9119 100.537L30.8361 100.241C30.8232 100.191 30.8101 100.141 30.7969 100.091C30.4703 99.1424 30.6141 98.5861 31.2282 98.4226C32.3839 98.7087 33.0446 99.7824 33.2102 101.644L33.2182 101.79C33.2195 101.815 33.2206 101.84 33.2217 101.865L33.2276 102.02C33.2284 102.047 33.2293 102.073 33.23 102.1L33.2337 102.263L33.2361 102.432L33.237 102.607L33.2357 102.879L33.233 103.068L33.229 103.262L33.2235 103.462L33.2166 103.667L33.2083 103.878L33.1985 104.095L33.1873 104.317L33.1748 104.545L33.1608 104.778L33.1453 105.017L33.1195 105.387L33.0905 105.768L33.0694 106.03L33.0351 106.433L32.9976 106.848L32.9708 107.132L32.928 107.569L32.8976 107.867C32.8587 108.137 32.833 108.388 32.8204 108.62L32.8144 108.757C32.7756 109.946 33.1067 110.6 33.8077 110.72C34.6899 110.517 35.5517 109.599 36.3931 107.966C37.6421 105.27 37.5728 102.33 36.1852 99.1448C36.0605 98.7325 35.7939 98.339 35.5318 97.994L35.4276 97.8586L35.2039 97.5728L35.1086 97.4477L35.0512 97.3688C34.942 97.2148 34.8677 97.0837 34.8567 96.9813C34.8371 96.7993 34.872 96.3466 35.2497 96.2001C35.3341 96.1674 35.4969 96.1757 35.7382 96.2249L35.8323 96.2452C35.8486 96.2489 35.8652 96.2528 35.8821 96.2569L35.9873 96.283C36.0054 96.2877 36.0239 96.2925 36.0426 96.2975C36.9217 96.5858 37.6354 97.3403 38.1835 98.561L38.2351 98.7368L38.2908 98.9192L38.3506 99.108C38.3712 99.172 38.3925 99.2371 38.4144 99.3033L38.4823 99.5052L38.5542 99.7135C38.5665 99.7487 38.579 99.7843 38.5917 99.8201L38.6697 100.038L38.7518 100.263L38.838 100.494C38.8526 100.533 38.8675 100.572 38.8825 100.612L38.9748 100.852L39.0711 101.1L39.1714 101.353L39.2758 101.614L39.3843 101.88L39.4968 102.154L39.6134 102.433C40.1076 103.288 40.652 103.544 41.2466 103.199C41.8268 102.239 41.6277 100.959 40.6492 99.3584L40.5566 99.2097C40.4461 99.0352 40.3265 98.8569 40.1979 98.6749L40.0854 98.5181C40.009 98.4129 39.9296 98.3064 39.8472 98.1988L39.6105 97.8911L39.3636 97.5661L39.0318 97.1235L38.8204 96.8385L38.4476 96.3311L38.1309 95.896L37.7978 95.4351L37.5371 95.0724C37.4625 94.6365 37.7317 94.5062 38.3446 94.6814C39.233 95.1115 39.9751 96.0495 40.5712 97.4952C40.9656 97.7603 41.2053 97.7262 41.2902 97.3928C41.2811 96.4711 40.8149 95.4537 39.8918 94.3408C38.8938 93.2603 37.5283 92.6173 35.7953 92.4115C34.8455 92.3729 34.2062 92.1529 33.8774 91.7513C33.6384 90.415 33.0664 89.31 32.1612 88.4365Z" fill="white"/>
<path fill-rule="evenodd" clip-rule="evenodd" d="M107.425 124.85H132.575L134.371 145.15H105.629L107.425 124.85Z" fill="#637CED"/>
<path fill-rule="evenodd" clip-rule="evenodd" d="M103.653 143.353H136.348C139.324 143.353 141.737 145.766 141.737 148.742H98.2637C98.2637 145.766 100.677 143.353 103.653 143.353Z" fill="#0F175F"/>
<path fill-rule="evenodd" clip-rule="evenodd" d="M61.0787 28.0239H179.103C182.079 28.0239 184.492 30.4368 184.492 33.4131V123.952C184.492 126.928 182.079 129.341 179.103 129.341H61.0787C58.1023 129.341 55.6895 126.928 55.6895 123.952V33.4131C55.6895 30.4368 58.1023 28.0239 61.0787 28.0239Z" fill="#637CED"/>
<path fill-rule="evenodd" clip-rule="evenodd" d="M61.0781 33.4132H179.098V111.377H61.0781V33.4132Z" fill="white"/>
<path fill-rule="evenodd" clip-rule="evenodd" d="M101.935 93.4691C101.855 94.4524 101.031 95.2096 100.041 95.2096C99.0207 95.2096 98.1416 94.4945 97.9373 93.4987L94.032 74.4602C93.7665 73.1657 94.1808 71.8255 95.1314 70.9043L111.019 55.509V73.7118L104.745 76.562C103.828 76.9784 103.21 77.8566 103.128 78.8571L101.935 93.4691Z" fill="#0F175F"/>
<path fill-rule="evenodd" clip-rule="evenodd" d="M138.066 93.4691L136.873 78.8571C136.792 77.8566 136.173 76.9784 135.256 76.562L128.982 73.7118V55.509L144.87 70.9043C145.821 71.8255 146.235 73.1657 145.969 74.4602L142.064 93.4987C141.86 94.4945 140.981 95.2096 139.961 95.2096C138.971 95.2096 138.147 94.4524 138.066 93.4691Z" fill="#0F175F"/>
<path fill-rule="evenodd" clip-rule="evenodd" d="M103.654 37.1254C103.654 13.74 118.013 0 120.181 0C122.349 0 136.708 13.74 136.708 37.1254C136.708 52.7157 133.942 67.9453 128.41 82.8144H111.952C106.42 67.9453 103.654 52.7157 103.654 37.1254Z" fill="#637CED"/>
<path fill-rule="evenodd" clip-rule="evenodd" d="M111.918 82.8143H128.445L127.828 86.4857C127.783 86.7514 127.551 86.9461 127.28 86.9461H113.083C112.811 86.9461 112.58 86.7514 112.535 86.4857L111.918 82.8143Z" fill="#0F175F"/>
<path fill-rule="evenodd" clip-rule="evenodd" d="M106.168 20.4268C107.054 17.6719 108.108 15.1695 109.237 12.9341C112.67 13.7343 116.295 14.161 120.113 14.2141C124.053 14.269 127.694 13.8735 131.036 13.0277C132.127 15.2013 133.148 17.6255 134.012 20.2871C129.889 21.7324 125.256 22.455 120.113 22.455C115.138 22.455 110.49 21.779 106.168 20.4268L106.168 20.4268Z" fill="#0F175F"/>
<path fill-rule="evenodd" clip-rule="evenodd" d="M120.002 59.8203C120.696 59.8203 121.259 60.3773 121.259 61.0645V93.9654C121.259 94.6525 120.696 95.2095 120.002 95.2095C119.307 95.2095 118.744 94.6525 118.744 93.9654V61.0645C118.744 60.3773 119.307 59.8203 120.002 59.8203Z" fill="#0F175F"/>
<circle cx="120.091" cy="37.8143" r="8.89222" fill="#0F175F"/>
<circle cx="120" cy="37.9041" r="7.18563" fill="#F2FBFF"/>
<path fill-rule="evenodd" clip-rule="evenodd" d="M55.6895 116.766H184.492V123.952C184.492 126.928 182.079 129.341 179.103 129.341H61.0787C58.1023 129.341 55.6895 126.928 55.6895 123.952V116.766Z" fill="#0F175F"/>
<path d="M65.2101 20.6587H35.749C33.6655 20.6587 31.9766 22.3477 31.9766 24.4311V40.0599C31.9766 42.1434 33.6655 43.8323 35.749 43.8323H65.2101C67.2936 43.8323 68.9826 42.1434 68.9826 40.0599V24.4311C68.9826 22.3477 67.2936 20.6587 65.2101 20.6587Z" fill="#0F175F"/>
<path d="M35.7491 21.0179H65.2102C67.0952 21.0179 68.6234 22.5461 68.6234 24.4311V40.0599C68.6234 41.9449 67.0952 43.473 65.2102 43.473H35.7491C33.8641 43.473 32.3359 41.9449 32.3359 40.0599V24.4311C32.3359 22.5461 33.8641 21.0179 35.7491 21.0179Z" fill="white"/>
<circle cx="39.6122" cy="32.4252" r="4.22156" fill="#5BC587"/>
<rect x="45.9902" y="28.5629" width="8.44311" height="0.538922" rx="0.269461" fill="#0F175F"/>
<path fill-rule="evenodd" clip-rule="evenodd" d="M45.9902 32.2455C45.9902 32.0967 46.1109 31.9761 46.2597 31.9761H64.2238C64.3726 31.9761 64.4932 32.0967 64.4932 32.2455V32.2455C64.4932 32.3944 64.3726 32.515 64.2238 32.515H57.8044H46.2597C46.1109 32.515 45.9902 32.3944 45.9902 32.2455V32.2455Z" fill="#0F175F"/>
<path fill-rule="evenodd" clip-rule="evenodd" d="M45.9902 35.6586C45.9902 35.5098 46.1109 35.3892 46.2597 35.3892H64.2238C64.3726 35.3892 64.4932 35.5098 64.4932 35.6586V35.6586C64.4932 35.8074 64.3726 35.9281 64.2238 35.9281H57.8044H46.2597C46.1109 35.9281 45.9902 35.8074 45.9902 35.6586V35.6586Z" fill="#0F175F"/>
<path d="M208.743 20.6587H179.282C177.199 20.6587 175.51 22.3477 175.51 24.4311V40.0599C175.51 42.1434 177.199 43.8323 179.282 43.8323H208.743C210.827 43.8323 212.516 42.1434 212.516 40.0599V24.4311C212.516 22.3477 210.827 20.6587 208.743 20.6587Z" fill="#0F175F"/>
<path d="M179.282 21.0179H208.743C210.628 21.0179 212.157 22.5461 212.157 24.4311V40.0599C212.157 41.9449 210.628 43.473 208.743 43.473H179.282C177.397 43.473 175.869 41.9449 175.869 40.0599V24.4311C175.869 22.5461 177.397 21.0179 179.282 21.0179Z" fill="white"/>
<circle cx="183.145" cy="32.4252" r="4.22156" fill="#EC539C"/>
<rect x="189.523" y="28.5629" width="8.44311" height="0.538922" rx="0.269461" fill="#0F175F"/>
<path fill-rule="evenodd" clip-rule="evenodd" d="M189.523 32.2455C189.523 32.0967 189.644 31.9761 189.793 31.9761H207.757C207.906 31.9761 208.026 32.0967 208.026 32.2455V32.2455C208.026 32.3944 207.906 32.515 207.757 32.515H201.338H189.793C189.644 32.515 189.523 32.3944 189.523 32.2455V32.2455Z" fill="#0F175F"/>
<path fill-rule="evenodd" clip-rule="evenodd" d="M189.523 35.6586C189.523 35.5098 189.644 35.3892 189.793 35.3892H207.757C207.906 35.3892 208.026 35.5098 208.026 35.6586V35.6586C208.026 35.8074 207.906 35.9281 207.757 35.9281H201.338H189.793C189.644 35.9281 189.523 35.8074 189.523 35.6586V35.6586Z" fill="#0F175F"/>
<circle cx="171.287" cy="12.3054" r="8.53293" fill="#5BC587"/>
<path d="M167.95 11.8467C167.479 11.5293 166.84 11.6538 166.523 12.1246C166.206 12.5954 166.33 13.2344 166.801 13.5518L170.154 15.8125C170.589 16.106 171.176 16.0241 171.514 15.6225L175.986 10.3135C176.352 9.87927 176.296 9.23067 175.862 8.86477C175.428 8.49886 174.78 8.55421 174.414 8.9884L170.537 13.5913L167.95 11.8467Z" fill="white"/>
<path fill-rule="evenodd" clip-rule="evenodd" d="M203.605 59.1018L200.997 59.6976L200.762 62.0925L199.49 62.4203L199.09 65.03H204.479L204.514 62.495L203.169 62.2189L203.605 59.1018Z" fill="#FFB5B9"/>
<path fill-rule="evenodd" clip-rule="evenodd" d="M200.839 61.4371C200.839 61.4371 202.028 61.0736 202.482 60.6805C202.935 60.2873 203.533 59.1018 203.533 59.1018L200.935 60.5L200.839 61.4371Z" fill="#FF9595"/>
<path fill-rule="evenodd" clip-rule="evenodd" d="M200.835 53.7125C199.399 53.7125 199.588 55.0063 199.588 56.4827V58.1921C199.588 59.6684 200.862 60.9617 201.042 60.9617C201.221 60.9617 203.892 59.6271 203.892 58.8419C203.892 58.0566 204.27 56.2182 204.27 56.2182C204.27 56.2182 202.271 53.7125 200.835 53.7125Z" fill="#FFB5B9"/>
<path fill-rule="evenodd" clip-rule="evenodd" d="M201.188 53.3595C198.893 52.8745 199.059 54.5225 199.581 55.3613C200.103 56.2001 201.826 55.8354 203.083 56.3908C203.359 57.4938 203.607 57.5055 203.749 57.5055C203.754 57.5055 203.761 57.5067 203.769 57.5089C203.747 57.7864 203.859 58.0748 204.089 58.2644C203.996 58.3895 203.965 58.5452 203.99 58.6934C203.832 58.9139 203.59 59.2183 203.265 59.6067C203.647 59.4213 203.956 59.2358 204.193 59.0504C204.194 59.0514 204.196 59.0524 204.197 59.0534C204.4 59.2216 204.677 59.2186 204.863 59.062C204.949 59.082 205.051 59.0832 205.167 59.0655C205.112 59.2582 205.149 59.4509 205.26 59.5775C205.181 59.659 205.115 59.756 205.064 59.8657C204.874 60.2788 204.985 60.7271 205.309 60.9119C205.301 61.0032 205.306 61.0957 205.325 61.1863C205.312 61.4017 205.413 61.5963 205.601 61.6717C205.613 61.6767 205.626 61.6811 205.638 61.6849C205.691 61.7231 205.749 61.7538 205.81 61.7765C205.676 61.9456 205.622 62.1782 205.685 62.3887C205.756 62.6223 205.953 62.7619 206.171 62.7603C206.162 62.8777 206.173 62.997 206.208 63.1118C206.349 63.5772 206.822 63.7939 207.265 63.5959C207.359 63.9062 207.674 64.0506 207.97 63.9186C208.054 63.881 208.127 63.825 208.187 63.7569C208.289 63.7222 208.386 63.6681 208.474 63.5985C208.548 63.7307 208.679 63.817 208.841 63.8204C209.042 63.8247 209.238 63.699 209.354 63.5122C209.531 63.871 209.953 63.9832 210.334 63.7582C210.554 63.6281 210.715 63.412 210.792 63.1749C210.932 63.2786 211.13 63.2877 211.314 63.1793C211.517 63.0589 211.645 62.828 211.653 62.6027C211.753 62.5886 211.856 62.5527 211.956 62.4935C212.362 62.2537 212.568 61.7215 212.415 61.3049C212.685 61.145 212.822 60.7902 212.72 60.5124C212.688 60.4244 212.635 60.3546 212.57 60.3055C212.554 60.1904 212.502 60.081 212.423 59.9944C212.496 59.9233 212.557 59.8359 212.599 59.7342C212.768 59.3303 212.587 58.8507 212.196 58.65C212.197 58.6226 212.197 58.595 212.196 58.567C212.261 58.3184 212.145 58.0456 211.913 57.9207C212.052 57.8167 212.137 57.6435 212.124 57.451C212.11 57.2224 211.962 57.0318 211.764 56.9566C211.797 56.8574 211.812 56.7494 211.805 56.637C211.778 56.2137 211.446 55.8773 211.046 55.8462C211.007 55.766 210.955 55.6897 210.892 55.6204C210.796 55.4328 210.601 55.3074 210.385 55.3161C210.371 55.3167 210.357 55.3178 210.343 55.3195C210.273 55.3078 210.203 55.3041 210.133 55.3086C210.175 55.1136 210.11 54.8956 209.944 54.7421C209.759 54.5718 209.502 54.5296 209.294 54.6156C209.244 54.5126 209.173 54.4161 209.083 54.3323C208.714 53.993 208.155 53.9927 207.833 54.3318C207.588 54.1055 207.215 54.1054 207.001 54.3314C206.94 54.3958 206.898 54.4716 206.875 54.5524C206.796 54.6213 206.73 54.7048 206.682 54.7977C206.545 54.7143 206.377 54.6919 206.222 54.7517C206.056 54.8151 205.943 54.9566 205.903 55.1223C205.85 55.1257 205.797 55.1295 205.745 55.1336C205.491 55.0276 205.205 55.061 204.99 55.223C204.286 54.3091 203.103 53.764 201.188 53.3595ZM211.418 60.2137C211.401 60.2126 211.383 60.2117 211.365 60.2109C211.367 60.1957 211.369 60.1806 211.37 60.1655C211.386 60.1821 211.402 60.1982 211.418 60.2137V60.2137Z" fill="#0F175F"/>
<path d="M202.195 56.6907C201.964 56.3844 201.684 56.3844 201.455 56.6913C201.414 56.7469 201.425 56.8257 201.481 56.8672C201.537 56.9088 201.615 56.8973 201.657 56.8416C201.785 56.6694 201.864 56.6694 201.995 56.8422C202.036 56.8976 202.115 56.9087 202.171 56.8668C202.226 56.825 202.237 56.7462 202.195 56.6907Z" fill="#021768"/>
<path d="M200.4 56.6907C200.169 56.3844 199.889 56.3844 199.66 56.6913C199.619 56.7469 199.63 56.8257 199.686 56.8672C199.742 56.9088 199.82 56.8973 199.862 56.8416C199.99 56.6694 200.069 56.6694 200.2 56.8422C200.241 56.8976 200.32 56.9087 200.376 56.8668C200.431 56.825 200.442 56.7462 200.4 56.6907Z" fill="#021768"/>
<path d="M201.272 59.4409C201.13 59.7965 200.86 59.8691 200.557 59.633C200.476 59.5691 200.502 59.4392 200.602 59.4124L201.123 59.2729C201.223 59.2461 201.31 59.3448 201.272 59.4409Z" fill="#FF9595"/>
<circle cx="0.179641" cy="0.179641" r="0.179641" transform="matrix(-1 0 0 1 201.916 57.485)" fill="#021768"/>
<circle cx="0.179641" cy="0.179641" r="0.179641" transform="matrix(-1 0 0 1 200.119 57.485)" fill="#021768"/>
<path fill-rule="evenodd" clip-rule="evenodd" d="M200.838 57.3053V58.8408C200.838 58.8408 200.006 59.0851 200.137 58.595C200.268 58.1049 200.838 57.3053 200.838 57.3053Z" fill="#FF9595"/>
<path fill-rule="evenodd" clip-rule="evenodd" d="M203.236 59.0938C203.843 59.2505 204.502 59.0198 204.708 58.5784C204.913 58.1371 204.588 57.6523 203.981 57.4955C203.373 57.3388 202.629 58.937 203.236 59.0938Z" fill="#FFB5B9"/>
<path d="M204.304 58.3527C204.16 57.814 203.844 57.7471 203.539 58.2011C203.501 58.2588 203.516 58.3369 203.574 58.3756C203.632 58.4143 203.71 58.3989 203.748 58.3413L203.781 58.2941L203.81 58.2535L203.836 58.2196C203.921 58.1178 203.965 58.1282 204.015 58.2627L204.03 58.3068L204.045 58.3584L204.061 58.4176C204.079 58.4847 204.148 58.5246 204.215 58.5067C204.282 58.4887 204.322 58.4198 204.304 58.3527Z" fill="#F97A80"/>
<path fill-rule="evenodd" clip-rule="evenodd" d="M199.318 108.477L208.954 145.509H212.336L210.258 123.277L210.961 98.443H204.522L191.351 98.0837C188.017 109.481 186.123 116.941 185.667 120.462C185.212 123.984 186.349 132.333 189.078 145.509H192.478L192.142 122.315L199.318 108.477Z" fill="#FFB5B9"/>
<path fill-rule="evenodd" clip-rule="evenodd" d="M210.258 123.277L210.961 98.443H204.522L191.351 98.0837C188.018 109.481 186.123 116.941 185.667 120.462C185.212 123.984 210.258 123.277 210.258 123.277Z" fill="#637CED"/>
<path fill-rule="evenodd" clip-rule="evenodd" d="M208.973 145.329C208.649 146.276 208.444 146.776 208.358 146.827C206.363 148.019 205.487 147.7 204.971 148.742C205.603 148.742 207.41 148.742 210.392 148.742C210.566 148.742 210.743 148.742 210.924 148.742C211.094 148.742 211.268 148.742 211.446 148.742C211.637 148.742 211.934 148.742 212.336 148.742V145.329H208.973Z" fill="#0F175F"/>
<path fill-rule="evenodd" clip-rule="evenodd" d="M189.034 145.329C188.71 146.276 188.505 146.776 188.419 146.827C186.423 148.019 185.548 147.7 185.031 148.742C185.664 148.742 187.471 148.742 190.453 148.742C190.626 148.742 190.803 148.742 190.985 148.742C191.155 148.742 191.329 148.742 191.506 148.742C191.698 148.742 191.995 148.742 192.396 148.742V145.329H189.034Z" fill="#0F175F"/>
<path fill-rule="evenodd" clip-rule="evenodd" d="M179.784 65.3844C189.279 69.8783 195.032 71.7751 197.043 71.0747C199.053 70.3743 199.251 63.01 198.404 62.926C192.08 62.2994 187.079 61.6101 183.403 60.8582C179.367 56.198 175.017 48.2726 175.017 48.2726C175.126 47.9155 175.152 47.5891 175.095 47.2935C174.972 46.6658 174.818 46.1196 174.686 46.0334C174.202 45.7192 174.415 47.5021 174.171 47.3468C173.731 47.0666 172.099 44.6003 171.72 44.8362C171.633 44.89 171.871 45.4565 172.433 46.5358C172.095 46.9199 171.887 47.1903 171.809 47.3468C171.692 47.5815 171.461 47.9133 171.591 48.2238C171.72 48.5342 172.141 49.2518 173.132 49.5636C173.275 49.9881 177.906 61.9113 179.784 65.3844Z" fill="#FFB5B9"/>
<path fill-rule="evenodd" clip-rule="evenodd" d="M210.324 77.8134L212.064 77.7016C211.946 70.9215 210.804 66.7559 208.641 65.2047C208.496 65.1011 208.353 65.0104 208.213 64.9326C208.177 64.9061 208.141 64.8796 208.104 64.853C207.659 64.535 206.574 63.8139 204.851 62.6898C203.697 63.8858 202.499 64.4511 201.255 64.3856C200.012 64.3202 199.307 63.6425 199.38 62.5588C199.117 62.636 198.86 62.7231 198.609 62.8201L188.919 61.87L187.023 68.8484L194.028 71.8953C193.112 77.8458 191.984 87.4121 190.643 100.594L210.921 101.479C211.129 101.488 211.305 101.327 211.314 101.119C211.315 101.108 211.315 101.098 211.314 101.087C210.897 90.7695 210.567 83.0116 210.324 77.8134V77.8134Z" fill="#5BC587"/>
<path fill-rule="evenodd" clip-rule="evenodd" d="M204.833 78.4151L203.002 72.8118L204.844 83.9932L193.739 88.2075C202.817 90.5506 208.101 91.4569 209.59 90.9264C210.913 90.4556 211.205 84.251 210.973 78.1467C210.96 77.819 208.914 77.9085 204.833 78.4151Z" fill="#0F175F"/>
<path fill-rule="evenodd" clip-rule="evenodd" d="M204.832 78.2354L205.921 83.4543C197.134 84.588 191.171 85.1109 190.907 85.0228C190.643 84.9349 190.336 84.8966 189.89 84.8262C189.258 84.7265 188.293 84.7303 188.167 84.8255C187.706 85.1727 189.454 85.5822 189.225 85.7583C188.811 86.076 185.936 86.7655 186.027 87.2028C186.048 87.3026 186.662 87.273 187.868 87.1139C186.722 87.7993 186.175 88.193 186.229 88.2949C186.283 88.3967 186.941 88.2135 188.203 87.7451C187.213 88.5064 186.745 88.9283 186.8 89.0109C186.854 89.0936 187.434 88.8426 188.54 88.2582C187.726 88.998 187.375 89.3879 187.487 89.4279C187.654 89.4879 189.136 88.5 189.166 88.4829C189.816 88.1171 190.402 87.7863 190.923 87.4903C203.213 89.1766 209.854 89.8429 210.847 89.4893C211.994 89.0808 212.427 83.4501 212.065 77.7015L204.832 78.2354Z" fill="#FFB5B9"/>
<path fill-rule="evenodd" clip-rule="evenodd" d="M204.513 62.4949C203.512 63.6186 202.533 64.1804 201.576 64.1804C200.619 64.1804 199.924 63.5937 199.489 62.4203L198.653 62.7871C198.804 64.1933 199.705 64.99 201.359 65.1772C203.012 65.3644 204.416 64.6516 205.57 63.0388L204.513 62.4949Z" fill="white"/>
<path fill-rule="evenodd" clip-rule="evenodd" d="M36.5735 59.4611L39.1814 60.0568L39.4163 62.4517L40.8655 62.8742L41.0888 65.3892H35.6992L35.8419 62.9488L37.0095 62.5782L36.5735 59.4611Z" fill="#FFB5B9"/>
<path fill-rule="evenodd" clip-rule="evenodd" d="M39.3411 61.7964C39.3411 61.7964 38.1518 61.4329 37.6982 61.0397C37.2445 60.6466 36.6465 59.4611 36.6465 59.4611L39.2451 60.8593L39.3411 61.7964Z" fill="#FF9595"/>
<path fill-rule="evenodd" clip-rule="evenodd" d="M39.3427 54.0718C40.779 54.0718 40.5892 55.3656 40.5892 56.8419V58.5513C40.5892 60.0277 40.7181 61.2553 39.1393 61.2553C37.5605 61.2553 36.3713 60.872 36.2862 59.2011C36.201 57.5302 35.9082 56.5774 35.9082 56.5774C35.9082 56.5774 37.9064 54.0718 39.3427 54.0718Z" fill="#FFB5B9"/>
<path d="M38.3418 56.8703C38.5728 56.564 38.853 56.564 39.0819 56.8708C39.1234 56.9265 39.1119 57.0053 39.0563 57.0468C39.0006 57.0883 38.9218 57.0769 38.8803 57.0212C38.7519 56.849 38.6728 56.849 38.5426 57.0217C38.5007 57.0772 38.4219 57.0882 38.3664 57.0464C38.311 57.0046 38.2999 56.9257 38.3418 56.8703Z" fill="#021768"/>
<path d="M39.959 56.8703C40.19 56.564 40.4702 56.564 40.6991 56.8708C40.7406 56.9265 40.7291 57.0053 40.6735 57.0468C40.6178 57.0883 40.539 57.0769 40.4975 57.0212C40.369 56.849 40.29 56.849 40.1597 57.0217C40.1179 57.0772 40.0391 57.0882 39.9836 57.0464C39.9282 57.0046 39.9171 56.9257 39.959 56.8703Z" fill="#021768"/>
<path fill-rule="evenodd" clip-rule="evenodd" d="M39.6899 59.9655C39.5582 60.3229 39.401 60.4684 39.2184 60.4018C39.0359 60.3353 38.9435 60.1489 38.9414 59.8427L39.6899 59.9655Z" fill="#0F175F"/>
<path fill-rule="evenodd" clip-rule="evenodd" d="M39.6899 59.9145C39.6506 59.9489 39.6163 59.9725 39.5869 59.9855C39.3514 59.9935 39.1362 59.9459 38.9414 59.8427L39.6899 59.9145Z" fill="white"/>
<circle cx="38.8007" cy="58.0239" r="0.179641" fill="#021768"/>
<circle cx="40.4179" cy="58.0239" r="0.179641" fill="#021768"/>
<path fill-rule="evenodd" clip-rule="evenodd" d="M39.6992 57.8442V59.3797C39.6992 59.3797 40.5309 59.6241 40.4 59.1339C40.2691 58.6438 39.6992 57.8442 39.6992 57.8442Z" fill="#FF9595"/>
<path fill-rule="evenodd" clip-rule="evenodd" d="M36.406 59.2814C36.406 59.2814 36.1661 57.8128 36.4039 57.6392C36.6418 57.4656 36.8084 58.424 37.0343 58.3823C37.2601 58.3406 37.3412 57.1501 37.3412 57.1501C37.3412 57.1501 37.4702 57.1598 37.6511 56.9944C37.832 56.829 37.6511 55.5252 37.6511 55.5252C37.6511 55.5252 40.0083 56.4862 40.756 56.103C41.5037 55.7198 40.7785 54.0155 38.6223 53.7349C36.4661 53.4543 36.0871 54.7586 36.0871 54.7586C36.0871 54.7586 35.7975 54.8518 35.7509 55.7198C35.7044 56.5877 36.406 59.2814 36.406 59.2814Z" fill="#0F175F"/>
<path fill-rule="evenodd" clip-rule="evenodd" d="M36.9415 59.453C36.3343 59.6098 35.6753 59.379 35.4698 58.9377C35.2643 58.4964 35.5899 58.0115 36.1972 57.8548C36.8045 57.6981 37.5488 59.2963 36.9415 59.453Z" fill="#FFB5B9"/>
<path d="M35.8754 58.7121C36.0192 58.1734 36.3356 58.1065 36.6402 58.5605C36.6789 58.6182 36.6635 58.6963 36.6059 58.735C36.5482 58.7737 36.4701 58.7583 36.4314 58.7006L36.3991 58.6535L36.3698 58.6129L36.3432 58.579C36.2586 58.4772 36.2143 58.4875 36.1651 58.6221L36.1502 58.6661L36.1347 58.7178L36.1184 58.777C36.1005 58.8441 36.0315 58.8839 35.9644 58.866C35.8973 58.8481 35.8575 58.7792 35.8754 58.7121Z" fill="#F97A80"/>
<path fill-rule="evenodd" clip-rule="evenodd" d="M54.5124 120.822C54.0566 117.3 52.1622 109.841 48.8291 98.4431L35.6581 98.8024H29.2188L29.922 123.637L27.8438 145.868H31.2257L40.8616 108.836L48.0377 122.674L47.7016 145.868H51.1012C53.8311 132.692 54.9682 124.343 54.5124 120.822Z" fill="#637CED"/>
<path fill-rule="evenodd" clip-rule="evenodd" d="M31.2062 145.689C31.4916 146.236 31.7014 146.52 31.8357 146.538C34.2334 146.876 35.209 147.73 35.209 149.102C34.4491 149.102 31.994 149.102 27.8438 149.102V145.689H31.2062Z" fill="#0F175F"/>
<path fill-rule="evenodd" clip-rule="evenodd" d="M51.1457 145.689C51.4311 146.236 51.6409 146.52 51.7751 146.538C54.1728 146.876 55.1485 147.73 55.1485 149.102C54.3885 149.102 51.9334 149.102 47.7832 149.102V145.689H51.1457Z" fill="#0F175F"/>
<path fill-rule="evenodd" clip-rule="evenodd" d="M69.1357 79.9808C69.373 79.8358 69.6634 79.7294 70.0824 79.5604C70.6755 79.3212 71.6166 79.1078 71.7611 79.1721C72.2882 79.4068 70.6768 80.1991 70.9399 80.3191C71.4146 80.5356 74.3715 80.5605 74.3804 81.0073C74.3824 81.1093 73.7778 81.2184 72.5666 81.3348C73.8381 81.7447 74.459 82.0054 74.4293 82.1168C74.3996 82.2282 73.7174 82.1976 72.3826 82.0251C73.5183 82.5442 74.069 82.8501 74.0348 82.9428C74.0005 83.0355 73.3789 82.9215 72.1699 82.6008C73.1289 83.1387 73.5585 83.4397 73.4587 83.5037C73.3092 83.5998 71.6432 82.9705 71.6097 82.9607C70.8942 82.7505 70.2493 82.5598 69.6749 82.3887L66.9312 82.8177L66.4609 79.9245C67.8873 80.18 68.7789 80.1987 69.1357 79.9808Z" fill="#FFB5B9"/>
<path fill-rule="evenodd" clip-rule="evenodd" d="M29.5085 89.9432C27.2742 89.1475 27.7488 68.5361 31.5362 65.8383C31.6279 65.773 31.7188 65.7128 31.809 65.6577C31.9407 65.5407 32.0876 65.4241 32.2517 65.3069C32.6487 65.0231 33.2636 64.249 34.7851 63.4928C34.9775 63.3972 35.3188 63.2648 35.5046 63.1437C36.6582 64.3397 37.8567 64.9049 39.1001 64.8395C40.3434 64.7741 40.9832 64.2447 40.9102 63.1611C41.1686 63.2167 41.4567 63.1643 41.7025 63.2411C42.7668 63.5736 43.6767 64.2233 44.5042 64.9528L44.5063 64.9494L44.5189 64.9659C44.5566 64.9993 44.5941 65.0332 44.6314 65.0675C44.698 65.1287 44.7672 65.2347 44.839 65.3854L54.154 77.5934L68.8765 79.7674L68.874 82.7396C62.3771 83.7644 57.1554 84.3319 53.2087 84.4422C51.0079 82.9199 49.0744 81.5236 47.4084 80.2534C48.0902 85.7168 48.8582 92.6483 49.7126 101.048L29.4344 101.933C29.2262 101.942 29.0501 101.781 29.041 101.573C29.0406 101.562 29.0405 101.552 29.041 101.541C29.2154 97.2292 29.3746 93.3645 29.5185 89.9468C29.5152 89.9456 29.5118 89.9444 29.5085 89.9432Z" fill="#EC539C"/>
<path fill-rule="evenodd" clip-rule="evenodd" d="M35.8429 62.9489C36.8439 64.0725 37.8228 64.6344 38.7795 64.6344C39.7362 64.6344 40.4318 64.0477 40.8664 62.8743L41.7025 63.2411C41.5519 64.6473 40.65 65.444 38.9969 65.6312C37.3439 65.8184 35.94 65.1056 34.7852 63.4928L35.8429 62.9489Z" fill="white"/>
<path fill-rule="evenodd" clip-rule="evenodd" d="M49.4484 85.4768C49.7123 85.389 50.0191 85.3506 50.4654 85.2802C51.0971 85.1806 52.0621 85.1843 52.1884 85.2795C52.6492 85.6267 50.9009 86.0362 51.1303 86.2123C51.5441 86.5301 54.4196 87.2195 54.3277 87.6569C54.3068 87.7567 53.6931 87.727 52.4867 87.5679C53.6334 88.2534 54.1798 88.647 54.1258 88.7489C54.0718 88.8508 53.4139 88.6675 52.1522 88.1992C53.142 88.9604 53.6098 89.3823 53.5556 89.465C53.5013 89.5476 52.9213 89.2967 51.8155 88.7122C52.6288 89.4521 52.9797 89.842 52.8681 89.882C52.7008 89.942 51.2191 88.9541 51.1887 88.9369C50.5388 88.5712 49.9533 88.2403 49.4321 87.9444L46.541 88.2702L46.7336 85.3455C48.1468 85.5651 49.0517 85.6089 49.4484 85.4768Z" fill="#FFB5B9"/>
<path fill-rule="evenodd" clip-rule="evenodd" d="M37.3528 73.3043L36.9632 84.0676L35.8716 83.9083L37.3528 73.3043V73.3043ZM46.5221 88.6201L46.6171 88.6615C37.539 91.0046 32.2552 91.9109 30.7657 91.3805C30.4503 91.2681 30.1957 90.7952 29.9941 90.0571C31.9862 90.3652 37.4956 89.8862 46.5221 88.6201V88.6201Z" fill="#0F175F"/>
</svg>
