<svg width="240" height="147" viewBox="0 0 240 147" fill="none" xmlns="http://www.w3.org/2000/svg">
<path fill-rule="evenodd" clip-rule="evenodd" d="M204.884 74.3054C204.884 74.3054 200.269 73.2178 196.806 75.701C196.806 75.701 201.113 78.0192 205.771 76.6632C205.771 76.6632 205.046 81.5005 207.527 86.185C207.527 86.185 209.362 81.1048 208.163 77.3488C208.163 77.3488 212.198 79.9894 216.966 79.6232C216.966 79.6232 213.145 75.4452 208.982 75.3787C208.982 75.3787 212.828 72.7201 213.15 68.8929C213.15 68.8929 207.94 70.0695 206.77 73.877C206.77 73.877 205.364 68.0826 200.818 64.9653C200.818 64.9653 201.434 68.3819 202.12 69.9573C202.79 71.4953 204.884 74.3054 204.884 74.3054Z" fill="#0F175F" stroke="#0F175F" stroke-width="2"/>
<path fill-rule="evenodd" clip-rule="evenodd" d="M204.28 81.6255C209.44 76.0049 216.414 77.6702 220.337 85.4599L221.266 87.3034L221.585 87.2402C228.914 85.7884 235.959 92.2944 238.879 103.211L239.999 107.401H148.996L150.008 103.614C152.645 93.7493 159.009 87.8698 165.628 89.1818L165.917 89.2389L166.755 87.573C170.299 80.5335 176.598 79.0285 181.258 84.1078C181.258 82.3253 193.235 64.3444 204.28 81.6255Z" fill="#0F175F"/>
<path d="M180.535 91.6895C178.547 92.487 176.686 93.6803 175.157 95.0298L175.094 95.086L175.023 95.1491L174.885 95.275C174.863 95.2959 174.84 95.3169 174.818 95.3377L174.685 95.4628C174.663 95.4835 174.641 95.5043 174.62 95.525L174.493 95.6486L174.37 95.7711C174.35 95.7914 174.33 95.8116 174.31 95.8318L174.194 95.9521C174.175 95.972 174.156 95.9918 174.138 96.0116L174.028 96.1291L173.924 96.2445C173.89 96.2826 173.856 96.3203 173.824 96.3576L173.73 96.4682L173.641 96.5759C173.612 96.6114 173.584 96.6463 173.557 96.6807L173.479 96.7822C173.342 96.9653 173.234 97.1309 173.161 97.2728L173.138 97.3206L173.057 97.2631C168.345 93.9669 162.115 95.0731 158.584 99.8865L157.809 100.942L157.628 100.918C150.923 100.006 144.481 104.09 141.814 110.937L140.802 113.535C140.755 113.654 140.843 113.783 140.972 113.783H231.975C232.103 113.783 232.191 113.654 232.145 113.535L231.024 110.66L230.934 110.434C227.932 103.002 220.877 98.5874 213.536 99.5853L213.324 99.614L212.46 98.4364L212.339 98.2749C208.376 93.0406 201.477 91.9101 196.304 95.6508L196.278 95.6702L196.389 95.7886C191.475 90.5122 185.984 89.5032 180.535 91.6895Z" fill="#0F175F"/>
<path d="M196.122 96.0373C196.186 96.1054 196.29 96.1148 196.365 96.0591C201.442 92.2633 208.301 93.3874 212.166 98.6523L213.094 99.9174C213.134 99.9713 213.2 99.9992 213.266 99.9902L213.585 99.9468L213.802 99.9189C220.967 99.0508 227.823 103.451 230.684 110.792L231.708 113.419H141.238L142.154 111.069C144.761 104.375 151.046 100.391 157.579 101.279L157.868 101.318C157.934 101.327 158 101.3 158.039 101.246L158.878 100.102C162.363 95.3523 168.547 94.3383 173.125 97.7626C173.24 97.8484 173.401 97.7741 173.415 97.6366L173.416 97.6165C173.416 97.5704 173.441 97.5014 173.488 97.4137L173.519 97.3588L173.555 97.2997C173.562 97.2895 173.569 97.2791 173.575 97.2685L173.619 97.2033C173.627 97.1921 173.635 97.1807 173.643 97.1692L173.694 97.0983L173.749 97.0239L173.809 96.9461L173.874 96.8652L173.942 96.7813L174.015 96.6947L174.092 96.6056L174.173 96.5141L174.258 96.4204L174.346 96.3248L174.485 96.1781L174.581 96.0784L174.681 95.9775L174.784 95.8754L174.89 95.7724L174.999 95.6688L175.11 95.5646L175.224 95.4602L175.34 95.3556C175.359 95.3382 175.379 95.3207 175.399 95.3033C176.898 93.9801 178.724 92.8092 180.671 92.0281C185.985 89.896 191.315 90.8755 196.122 96.0373Z" fill="white"/>
<path d="M199.953 89.7581C202.425 92.2491 203.288 95.3871 202.544 99.2142L203.26 99.3534C204.049 95.2959 203.118 91.9121 200.471 89.2443L199.953 89.7581Z" fill="white"/>
<path d="M196.153 78.8243L196.1 79.0669L196.075 79.1835C195.328 82.7121 195.855 85.4711 197.663 87.4407L197.737 87.5197L197.599 87.4966C193.577 86.8379 189.906 87.4644 186.593 89.3764L186.094 89.6692L186.518 89.7806C186.612 89.8052 186.705 89.8295 186.797 89.8533L187.071 89.9234L187.341 89.9908L187.604 90.0556L187.863 90.1177L188.117 90.1772L188.365 90.234L188.608 90.2881L188.846 90.3397L189.079 90.3885L189.307 90.4347L189.53 90.4783L189.747 90.5192C189.783 90.5258 189.819 90.5323 189.854 90.5386L190.064 90.5756L190.268 90.6098L190.468 90.6414L190.662 90.6704C190.694 90.675 190.726 90.6795 190.757 90.6839L190.944 90.7088C190.975 90.7128 191.005 90.7166 191.035 90.7203L191.214 90.7413C191.243 90.7446 191.273 90.7478 191.302 90.7508L191.473 90.7678L191.639 90.7822C191.666 90.7843 191.693 90.7864 191.72 90.7884L191.878 90.7987C191.904 90.8002 191.93 90.8016 191.955 90.8029L192.106 90.8093C192.131 90.8101 192.155 90.8109 192.179 90.8115L192.25 90.813C192.398 90.8155 192.555 90.8143 192.72 90.8093L192.888 90.8031C192.917 90.8019 192.946 90.8005 192.975 90.7991L193.152 90.7891C193.212 90.7854 193.273 90.7812 193.334 90.7767L193.523 90.7617C193.555 90.759 193.587 90.7562 193.619 90.7533L193.816 90.7346C193.85 90.7313 193.883 90.7279 193.917 90.7243L194.123 90.7019L194.334 90.677C194.37 90.6726 194.406 90.6682 194.442 90.6636L194.662 90.6349L194.888 90.6038L195.12 90.5701L195.358 90.534L195.601 90.4954L195.85 90.4543L196.105 90.4106L196.366 90.3645L196.632 90.3159L196.904 90.2649L197.182 90.2113L197.401 90.168L197.398 90.1731C195.426 92.837 194.719 95.6673 195.283 98.6533L195.337 98.9396L195.571 98.7659L195.675 98.6878C198.441 96.5975 200.131 93.8702 200.74 90.5137L200.758 90.4101L200.774 90.4204C203.758 92.3154 207.172 93.1658 211.011 92.9716L211.423 92.9507L211.13 92.6599L211.016 92.5475C208.39 89.9752 205.731 88.439 203.04 87.9444L202.939 87.9263L203.035 87.863C205.827 86.0026 207.818 83.4998 209.004 80.3584L209.136 80.0081L208.644 80.1628C204.956 81.3414 202.394 83.1734 200.968 85.6604L200.919 85.7467L200.903 85.6693C200.243 82.5413 198.731 80.2962 196.369 78.9474L196.153 78.8243Z" fill="#0F175F"/>
<path d="M196.405 79.392L196.449 79.4191C198.706 80.8131 200.108 83.1112 200.658 86.3276L200.753 86.8859L201.001 86.3768L201.047 86.2849C202.319 83.7503 204.752 81.8686 208.357 80.6415L208.524 80.5854L208.501 80.644C207.253 83.7001 205.199 86.1103 202.335 87.879L201.897 88.1499L202.408 88.2151L202.524 88.2304C205.213 88.604 207.883 90.0543 210.533 92.5874L210.572 92.6242L210.512 92.6262C206.838 92.7276 203.577 91.8366 200.724 89.9534L200.487 89.7968L200.444 90.0777L200.423 90.2046C199.884 93.4979 198.299 96.173 195.662 98.2376L195.59 98.2932L195.585 98.2582C195.129 95.3533 195.927 92.6063 197.985 90.0061L198.297 89.613L197.666 89.7429L197.256 89.8253L196.858 89.9026L196.599 89.9512L196.221 90.02L195.975 90.063L195.735 90.1038L195.5 90.1423L195.271 90.1785L195.047 90.2124L194.828 90.244L194.614 90.2734L194.406 90.3006C194.372 90.3049 194.338 90.3091 194.304 90.3133L194.104 90.337L193.91 90.3585C193.878 90.3618 193.846 90.3651 193.814 90.3683L193.628 90.3864L193.446 90.4022C193.417 90.4046 193.387 90.407 193.358 90.4092L193.185 90.4216L193.017 90.4317L192.854 90.4396L192.697 90.4452C192.671 90.4459 192.646 90.4466 192.62 90.4471L192.471 90.4493C192.398 90.4498 192.327 90.4495 192.258 90.4483L192.118 90.4447L191.964 90.4382C191.886 90.4342 191.806 90.4291 191.724 90.4229L191.556 90.4092L191.383 90.3926L191.204 90.3731C191.144 90.3662 191.082 90.3587 191.02 90.3508L190.829 90.3256C190.797 90.3212 190.765 90.3166 190.732 90.312L190.534 90.2825L190.329 90.2502L190.119 90.215L189.904 90.1769C189.867 90.1703 189.831 90.1636 189.794 90.1568L189.57 90.1144L189.34 90.0692L189.104 90.0211L188.863 89.9702C188.823 89.9614 188.782 89.9526 188.741 89.9436L188.491 89.8884L188.236 89.8303L187.975 89.7693L187.709 89.7054L187.437 89.6387L187.045 89.5402L187.132 89.4925C190.474 87.6729 194.18 87.171 198.259 87.9874L198.911 88.1179L198.417 87.673C196.354 85.8169 195.673 83.0981 196.384 79.4927L196.405 79.392Z" fill="white"/>
<path fill-rule="evenodd" clip-rule="evenodd" d="M217.02 84.2767C217.02 84.2767 214.812 87.0786 215.404 90.2304C215.404 90.2304 218.353 88.0306 218.909 84.4219C218.909 84.4219 221.976 86.4553 225.957 86.2529C225.957 86.2529 223.078 83.3852 220.137 83.0087C220.137 83.0087 223.219 81.096 224.485 77.728C224.485 77.728 220.422 79.0052 219.054 81.8234C219.054 81.8234 218.464 78.3546 215.958 76.9174C215.958 76.9174 215.104 80.8453 217.327 82.8547C217.327 82.8547 212.931 81.9707 209.361 84.0798C209.361 84.0798 211.886 84.7459 213.178 84.7791C214.439 84.8115 217.02 84.2767 217.02 84.2767Z" fill="#0F175F" stroke="#0F175F" stroke-width="2"/>
<path d="M209.702 75.6162C205.903 76.4977 203.243 78.9338 201.696 82.9627L200.938 82.6716C202.578 78.4002 205.446 75.7733 209.515 74.8292L209.702 75.6162Z" fill="#0F175F"/>
<path d="M215.984 94.5656C218.162 97.8015 218.446 101.397 216.829 105.398L217.582 105.703C219.296 101.46 218.99 97.5833 216.658 94.1177L215.984 94.5656Z" fill="white"/>
<path d="M214.135 83.3215L214.04 83.5211L213.983 83.6411C212.258 87.3168 212.379 90.4676 214.354 93.0648L214.399 93.1241L214.36 93.1104C209.185 91.3006 204.205 91.0479 199.423 92.3543L198.922 92.4912L199.551 92.7637L200.002 92.9571L200.443 93.1432L200.873 93.322L201.292 93.4935L201.566 93.6038L201.834 93.7109L202.098 93.8146L202.485 93.9642L202.738 94.0599L202.985 94.1523L203.227 94.2415L203.465 94.3274L203.698 94.41L203.927 94.4895C203.964 94.5024 204.002 94.5153 204.039 94.528L204.26 94.6025L204.477 94.6738L204.688 94.7419C204.723 94.753 204.758 94.7639 204.792 94.7747L204.997 94.8379L205.197 94.8978C205.262 94.9173 205.327 94.9362 205.392 94.9545L205.582 95.008C205.613 95.0166 205.644 95.0251 205.675 95.0335L205.859 95.0821L206.037 95.1274L206.211 95.1695C206.239 95.1763 206.268 95.1829 206.296 95.1893L206.462 95.2266L206.542 95.2436L206.705 95.2768C206.733 95.2823 206.761 95.2878 206.789 95.2932L206.961 95.3251C206.99 95.3303 207.02 95.3355 207.05 95.3407L207.23 95.3713L207.417 95.401L207.609 95.4298L207.807 95.4577L208.01 95.4847L208.22 95.5107L208.435 95.5359L208.656 95.5602L208.883 95.5836L209.115 95.6061L209.353 95.6277C209.393 95.6312 209.434 95.6347 209.474 95.6382L209.847 95.6682L210.102 95.6871L210.363 95.7051L210.63 95.7222L210.903 95.7385L211.181 95.7538L211.466 95.7682L211.756 95.7818L212.201 95.8004L212.506 95.8117L212.973 95.827L213.415 95.8392L213.345 95.8933C210.264 98.2773 208.766 101.158 208.863 104.525L208.871 104.782L209.111 104.69L209.241 104.64C213.27 103.066 216.034 100.52 217.522 97.0063L217.568 96.8961L217.631 96.9485C221.075 99.7536 225.292 101.532 230.281 102.283L230.748 102.354L230.449 101.988L230.337 101.85C227.479 98.3875 224.36 96.0544 220.982 94.8548L220.861 94.8122L220.908 94.7974C224.95 93.4914 228.08 91.2711 230.291 88.1378L230.511 87.8259L229.967 87.8617C224.875 88.2167 221.148 89.5977 218.795 92.0127L218.74 92.0697L218.739 92.0358C218.59 88.4393 217.145 85.5971 214.407 83.5238L214.135 83.3215Z" fill="#0F175F"/>
<path d="M214.272 83.8808L214.275 83.883C216.984 85.9744 218.353 88.8509 218.385 92.5284L218.389 93.0078L218.704 92.6469L218.773 92.5691C220.964 90.1172 224.544 88.6786 229.519 88.2616L229.763 88.2421L229.747 88.2644C227.49 91.3006 224.311 93.4227 220.205 94.6321L219.624 94.8032L220.203 94.9814L220.336 95.0231C223.714 96.0947 226.838 98.3097 229.709 101.672L229.858 101.847L229.776 101.834C224.972 101.025 220.917 99.2331 217.607 96.4568L217.413 96.2938L217.321 96.5298L217.275 96.6441C215.881 100.101 213.249 102.617 209.368 104.196L209.222 104.254L209.222 104.205C209.226 100.958 210.798 98.1907 213.954 95.8905L214.5 95.498L213.624 95.4795L213.302 95.4714L212.985 95.4624L212.521 95.4473L212.219 95.4361L211.776 95.4176L211.488 95.4042L211.206 95.3899L210.794 95.3668L210.395 95.3417L210.136 95.3239L209.882 95.3052L209.635 95.2856L209.274 95.2546C209.235 95.2511 209.196 95.2475 209.157 95.2438L208.927 95.2216L208.703 95.1986L208.484 95.1746L208.271 95.1497L208.064 95.124L207.863 95.0974L207.668 95.07L207.478 95.0416L207.294 95.0124L207.116 94.9823C207.087 94.9772 207.058 94.9721 207.029 94.9669L206.859 94.9355C206.832 94.9302 206.804 94.9249 206.777 94.9195L206.616 94.8868L206.457 94.8522L206.29 94.8139L206.119 94.7725L205.944 94.7278L205.763 94.6798L205.578 94.6286C205.546 94.6198 205.515 94.6109 205.483 94.6018L205.291 94.5458L205.093 94.4865L204.891 94.424C204.857 94.4133 204.823 94.4024 204.788 94.3915L204.579 94.3241L204.365 94.2535L204.146 94.1796L203.922 94.1025L203.694 94.0222C203.655 94.0085 203.617 93.9947 203.578 93.9808L203.342 93.8956L203.102 93.8072L202.857 93.7155L202.607 93.6206C202.565 93.6045 202.522 93.5883 202.48 93.5719L202.223 93.4722L201.961 93.3692L201.694 93.2629L201.423 93.1534L201.146 93.0407L200.723 92.8656L200.289 92.6831L200.029 92.5726L200.139 92.5455C204.863 91.3944 209.784 91.7775 214.907 93.6968L215.604 93.9581L215.106 93.4042C212.828 90.8682 212.525 87.7527 214.207 84.0239L214.272 83.8808Z" fill="white"/>
<path fill-rule="evenodd" clip-rule="evenodd" d="M28.2978 82.9646C28.2978 82.9646 24.8721 86.2428 25.0686 90.4995C25.0686 90.4995 29.3582 88.1506 30.7582 83.5051C30.7582 83.5051 34.4198 86.7482 39.6999 87.2187C39.6999 87.2187 36.439 82.9125 32.6358 81.8727C32.6358 81.8727 37.0482 79.9263 39.3375 75.7288C39.3375 75.7288 33.7526 76.6576 31.4296 80.1127C31.4296 80.1127 31.2945 75.4392 28.2605 73.0843C28.2605 73.0843 26.4095 78.0947 28.9652 81.1502C28.9652 81.1502 23.34 79.1734 18.2497 81.2881C18.2497 81.2881 21.451 82.6318 23.1457 82.9146C24.8004 83.1906 28.2978 82.9646 28.2978 82.9646Z" fill="#0F175F" stroke="#0F175F" stroke-width="2"/>
<path d="M29.4377 82.588C31.7269 85.746 32.1359 89.3293 30.6599 93.3846L31.4232 93.6624C32.9881 89.363 32.547 85.4989 30.0953 82.1168L29.4377 82.588Z" fill="#0F175F"/>
<path fill-rule="evenodd" clip-rule="evenodd" d="M67.5027 83.4922C72.6625 77.8716 79.6362 79.5369 83.5598 87.3266L84.4883 89.1701L84.8075 89.1069C92.1365 87.6551 99.1815 94.1611 102.101 105.078L103.222 109.267H12.2188L13.2309 105.481C15.868 95.616 22.2313 89.7365 28.851 91.0485L29.1393 91.1056L29.978 89.4397C33.5219 82.4002 39.8207 80.8952 44.4812 85.9745C44.4812 84.192 56.4576 66.2111 67.5027 83.4922Z" fill="#0F175F"/>
<path d="M16.3687 95.4785C19.1238 98.2395 20.0883 101.715 19.2648 105.951L20.0622 106.106C20.9352 101.615 19.8952 97.8672 16.9445 94.9103L16.3687 95.4785Z" fill="white"/>
<path d="M36.7911 93.676C37.0674 97.5666 39.0574 100.575 42.7948 102.732L42.3886 103.436C38.4263 101.148 36.2803 97.9046 35.9845 93.7378L36.7911 93.676Z" fill="white"/>
<path d="M43.7576 93.5562C41.7701 94.3537 39.9086 95.547 38.3799 96.8965L38.3165 96.9527L38.1766 97.0788L38.0402 97.2044L37.9075 97.3295C37.8857 97.3502 37.864 97.371 37.8426 97.3917L37.7157 97.5153L37.5928 97.6378L37.4743 97.7589C37.4356 97.7989 37.3975 97.8387 37.3603 97.8783L37.2509 97.9958L37.1463 98.1112C37.1122 98.1493 37.079 98.187 37.0467 98.2243L36.9523 98.3349L36.8632 98.4426C36.8344 98.4781 36.8066 98.513 36.7797 98.5474L36.7019 98.6489C36.5646 98.832 36.457 98.9976 36.3841 99.1395L36.3605 99.1874L36.2794 99.1298C31.5678 95.8336 25.3375 96.9398 21.8065 101.753L21.0318 102.809L20.8511 102.784C14.1453 101.872 7.70333 105.957 5.03647 112.803L4.02433 115.402C3.97775 115.521 4.06595 115.65 4.19426 115.65H95.1973C95.3256 115.65 95.4138 115.521 95.3672 115.402L94.2466 112.526L94.1569 112.3C91.1547 104.869 84.0993 100.454 76.7585 101.452L76.5466 101.481L75.6823 100.303L75.5619 100.142C71.5983 94.9073 64.6997 93.7768 59.5268 97.5175L59.5002 97.5369L59.6117 97.6553C54.6975 92.3789 49.2065 91.3699 43.7576 93.5562Z" fill="#0F175F"/>
<path d="M59.3448 97.904C59.4083 97.9721 59.5129 97.9815 59.5875 97.9258C64.6651 94.13 71.524 95.2541 75.3883 100.519L76.3168 101.784C76.3564 101.838 76.4222 101.866 76.4884 101.857L76.8076 101.814L77.0248 101.786C84.1895 100.917 91.0458 105.318 93.9068 112.659L94.9305 115.286H4.46094L5.37638 112.936C7.98379 106.242 14.2684 102.257 20.802 103.146L21.0903 103.185C21.1566 103.194 21.2224 103.166 21.2619 103.112L22.1006 101.969C25.5852 97.219 31.7692 96.205 36.3475 99.6293C36.4623 99.7151 36.6236 99.6408 36.638 99.5033L36.6391 99.4832C36.6391 99.4371 36.664 99.3681 36.7111 99.2804L36.742 99.2255L36.7781 99.1664C36.7845 99.1562 36.7912 99.1458 36.798 99.1352L36.8417 99.07C36.8493 99.0588 36.8572 99.0474 36.8653 99.0359L36.9162 98.965L36.9717 98.8906L37.0318 98.8128C37.0422 98.7996 37.0528 98.7862 37.0635 98.7727L37.1651 98.648L37.238 98.5614L37.315 98.4723L37.3958 98.3808L37.4804 98.2871L37.5686 98.1915L37.6603 98.0941L37.8041 97.9451L37.904 97.8442L38.0069 97.7421L38.1127 97.6391L38.2213 97.5355L38.3325 97.4313L38.4463 97.3269L38.5624 97.2223C38.5819 97.2049 38.6016 97.1874 38.6213 97.17C40.1202 95.8468 41.9468 94.6759 43.8935 93.8948C49.2073 91.7627 54.5373 92.7422 59.3448 97.904Z" fill="white"/>
<path d="M13.1842 85.6365L13.1285 85.8507L13.0955 85.9794C12.1035 89.9167 12.8233 92.9865 15.2575 95.1591L15.3137 95.2086L15.2727 95.2027C9.8476 94.4135 4.91026 95.1158 0.465441 97.3107L0 97.5406L0.669563 97.688L1.14954 97.7918L1.61758 97.8904L2.07371 97.9839L2.51792 98.0723L2.80744 98.1283L3.09166 98.1821L3.37059 98.2336L3.77907 98.3066L4.04477 98.3524L4.30518 98.3959L4.56031 98.4372L4.81014 98.4761L5.05469 98.5128L5.29395 98.5472C5.33339 98.5528 5.3726 98.5582 5.4116 98.5636L5.64293 98.5946L5.86899 98.6233L6.08975 98.6497C6.12611 98.6539 6.16224 98.658 6.19816 98.662L6.411 98.6851L6.61857 98.7058C6.68688 98.7123 6.7543 98.7184 6.82085 98.7242L7.01786 98.7404C7.05026 98.7429 7.08243 98.7453 7.11439 98.7476L7.30348 98.7603L7.48729 98.7708L7.66584 98.779C7.69515 98.7801 7.72425 98.7812 7.75313 98.7822L7.92376 98.7869L8.00512 98.7884L8.17194 98.7899C8.2002 98.79 8.22868 98.79 8.2574 98.7899L8.43241 98.7884C8.46204 98.788 8.49189 98.7875 8.52197 98.787L8.70518 98.7825L8.89385 98.7761L9.08799 98.7677L9.2876 98.7573L9.49268 98.7449L9.70322 98.7305L9.91924 98.7142L10.1407 98.6959L10.3677 98.6756L10.6001 98.6534L10.838 98.6291C10.8781 98.6249 10.9185 98.6206 10.959 98.6163L11.3303 98.5747L11.5846 98.5445L11.8444 98.5124L12.1097 98.4782L12.3805 98.4421L12.6568 98.404L12.9385 98.364L13.2257 98.3219L13.6668 98.2552L13.9678 98.2082L14.4295 98.134L14.8656 98.0616L14.8068 98.1282C12.2378 101.056 11.3165 104.17 12.0548 107.456L12.1112 107.707L12.3293 107.571L12.4476 107.497C16.1026 105.183 18.3297 102.157 19.1195 98.4237L19.1436 98.3067L19.2162 98.3461C23.1315 100.443 27.611 101.383 32.6512 101.169L33.1233 101.149L32.7601 100.847L32.6233 100.734C29.1572 97.8797 25.651 96.1844 22.1058 95.6515L21.9788 95.6328L22.022 95.6094C25.7408 93.556 28.3893 90.7793 29.9619 87.2818L30.1184 86.9336L29.5913 87.0725C24.6604 88.3926 21.2658 90.4593 19.4167 93.2789L19.3734 93.3454L19.3658 93.3123C18.5338 89.8102 16.5726 87.2961 13.4894 85.7833L13.1842 85.6365Z" fill="#0F175F"/>
<path d="M13.4259 86.1592L13.429 86.1608C16.4881 87.6968 18.3801 90.2593 19.1132 93.8632L19.2087 94.333L19.4496 93.9185L19.5022 93.829C21.1851 91.0041 24.4244 88.9089 29.2294 87.5502L29.4651 87.4845L29.4534 87.5094C27.817 90.9206 25.1016 93.6102 21.3016 95.5809L20.764 95.8597L21.3662 95.9241L21.5052 95.9396C25.025 96.3471 28.5143 97.9253 31.9743 100.678L32.1534 100.821L32.0708 100.824C27.2006 100.947 22.878 99.9615 19.0999 97.8676L18.8782 97.7447L18.8322 97.9941L18.8093 98.115C18.1008 101.774 15.997 104.746 12.4886 107.036L12.3563 107.122L12.3469 107.074C11.7312 103.886 12.7467 100.869 15.4055 98.0089L15.8664 97.5195L15.0036 97.6684L14.6855 97.7219L14.3729 97.7735L13.9144 97.8472L13.6155 97.8939L13.1775 97.9602L12.8924 98.002L12.6127 98.0418L12.2036 98.0978L11.8068 98.1494L11.5491 98.1813L11.297 98.2113L11.0503 98.2393L10.6907 98.2776C10.6514 98.2816 10.6123 98.2855 10.5735 98.2894L10.3434 98.3115L10.1187 98.3317L9.89955 98.3498L9.68591 98.3661L9.47777 98.3803L9.27514 98.3926L9.07802 98.4029L8.8864 98.4113L8.7003 98.4177L8.51971 98.4222C8.49007 98.4227 8.46066 98.4232 8.43148 98.4236L8.25916 98.4251C8.23089 98.4252 8.20286 98.4252 8.17506 98.4252L8.01101 98.4237L7.84783 98.4202L7.67738 98.4144L7.50162 98.4063L7.32052 98.396L7.13411 98.3834L6.94237 98.3685C6.90997 98.3658 6.87735 98.363 6.84451 98.3602L6.64479 98.3419L6.43975 98.3214L6.22939 98.2986C6.19389 98.2946 6.15816 98.2905 6.12221 98.2863L5.90388 98.2601L5.68023 98.2317L5.45126 98.2009L5.21698 98.1679L4.97738 98.1326C4.93701 98.1266 4.89641 98.1204 4.85559 98.1142L4.60803 98.0755L4.35515 98.0346L4.09697 97.9914L3.83348 97.9459C3.78912 97.9381 3.74454 97.9303 3.69974 97.9223L3.42828 97.8734L3.15152 97.8223L2.86945 97.7689L2.58208 97.7132L2.2894 97.6553L1.84044 97.5641L1.37955 97.4679L1.10352 97.4089L1.20611 97.3613C5.6237 95.3301 10.5274 94.7671 15.9221 95.6738L16.6563 95.7972L16.0622 95.3484C13.3423 93.2937 12.4503 90.2932 13.3892 86.3121L13.4259 86.1592Z" fill="white"/>
<path d="M33.2071 87.0863L33.1527 87.313L33.1295 87.4116C32.6243 89.6056 32.9542 91.3487 34.1237 92.6196L34.1903 92.6903L34.0818 92.675C31.2616 92.2899 28.6849 92.7195 26.3572 93.9648L25.9336 94.1914L26.5295 94.3335L26.7822 94.3925L27.0287 94.4486L27.2692 94.5018L27.5035 94.5522L27.7317 94.5997C27.7692 94.6074 27.8065 94.615 27.8435 94.6224L28.0626 94.6656L28.2755 94.706L28.4823 94.7435L28.6831 94.7781L28.8777 94.8099L29.0663 94.8388C29.0972 94.8434 29.1278 94.8479 29.1582 94.8522L29.3376 94.8768L29.511 94.8986C29.738 94.9257 29.9488 94.9451 30.1434 94.9569L30.2864 94.9643L30.4233 94.9689L30.4863 94.97C30.6294 94.972 30.7836 94.9695 30.9489 94.9626L31.118 94.9543C31.2332 94.9477 31.3533 94.9392 31.4784 94.9287L31.6698 94.9116C31.7023 94.9085 31.7351 94.9052 31.7683 94.9019L31.9708 94.8803L32.1809 94.8558L32.3984 94.8283C32.4352 94.8235 32.4724 94.8186 32.5099 94.8135L32.7386 94.7817C32.7773 94.7761 32.8164 94.7704 32.8557 94.7646L33.0957 94.7284L33.343 94.6892L33.5979 94.6471L33.8603 94.602L33.9793 94.581L33.9557 94.6112C32.645 96.2969 32.1813 98.0891 32.5727 99.9762L32.6279 100.243L32.8534 100.09L32.9508 100.024C34.8881 98.6851 36.0831 96.9426 36.5291 94.8034L36.5423 94.7374L36.5459 94.7395C38.6576 95.9459 41.0693 96.4864 43.7768 96.3618L44.2201 96.3414L43.8905 96.0442L43.7837 95.9486C41.9661 94.3353 40.1253 93.3557 38.2618 93.0141L38.2291 93.0082L38.2309 93.0073C40.1747 91.8071 41.5658 90.2008 42.3996 88.1917L42.5443 87.8431L42.1812 87.9464L42.0533 87.9834C39.5076 88.7286 37.7159 89.8757 36.687 91.4286L36.6421 91.4972L36.628 91.4382C36.1401 89.4713 35.0673 88.0522 33.4141 87.1937L33.2071 87.0863Z" fill="#0F175F"/>
<path d="M33.4542 87.6307L33.4907 87.6515C35.0393 88.5451 36.0017 89.9987 36.3824 92.0264L36.4779 92.5348L36.7224 92.0789L36.7651 92.0008C37.647 90.4176 39.3171 89.2314 41.7851 88.4464L41.9061 88.4084L41.8677 88.4915C40.9823 90.3667 39.562 91.8532 37.6024 92.9541L37.1122 93.2295L37.6708 93.2942L37.7782 93.3074C39.605 93.5444 41.4193 94.422 43.2221 95.9448L43.3009 96.012L43.1783 96.0138C40.6799 96.0386 38.4564 95.4646 36.5042 94.2925L36.2753 94.1551L36.2305 94.4182L36.2116 94.5255C35.8328 96.5927 34.743 98.2778 32.9352 99.5877L32.879 99.628C32.5839 97.8013 33.1465 96.0736 34.5759 94.4314L34.9204 94.0357L34.281 94.1555L34.0379 94.1999L33.8007 94.242L33.5695 94.2818L33.3443 94.3193L33.1251 94.3545L32.9118 94.3874L32.7045 94.4179L32.5032 94.4462L32.3079 94.4722C32.2758 94.4763 32.244 94.4804 32.2125 94.4843L32.0261 94.5068L31.8457 94.527C31.8162 94.5302 31.7868 94.5333 31.7578 94.5362L31.5864 94.553L31.421 94.5675C31.394 94.5697 31.3671 94.5718 31.3406 94.5738L31.1842 94.5848L31.0338 94.5935L30.8894 94.5999C30.8659 94.6008 30.8426 94.6016 30.8195 94.6022L30.6842 94.6052C30.5959 94.6064 30.5117 94.606 30.4315 94.6042L30.3677 94.6024C30.0865 94.593 29.7635 94.5646 29.3987 94.517L29.2128 94.4915L29.0199 94.4629C28.9872 94.4579 28.9542 94.4527 28.9209 94.4474L28.7175 94.414L28.5072 94.3774L28.29 94.3376L28.0658 94.2946L27.8346 94.2484L27.5965 94.199L27.3514 94.1464L27.0993 94.0906C27.0567 94.081 27.0139 94.0713 26.9707 94.0615L26.9911 94.0518C29.3184 92.9334 31.8949 92.6315 34.7263 93.147L35.4207 93.2734L34.8745 92.8264C33.4463 91.6577 32.9668 89.9546 33.4418 87.6884L33.4542 87.6307Z" fill="white"/>
<path fill-rule="evenodd" clip-rule="evenodd" d="M108.874 122.736H134.406L136.23 143.343H107.051L108.874 122.736Z" fill="#637CED"/>
<path fill-rule="evenodd" clip-rule="evenodd" d="M105.045 141.52H138.237C141.258 141.52 143.708 143.969 143.708 146.991H99.5742C99.5742 143.969 102.024 141.52 105.045 141.52Z" fill="#0F175F"/>
<path fill-rule="evenodd" clip-rule="evenodd" d="M61.8227 24.4377H181.64C184.662 24.4377 187.111 26.8873 187.111 29.9089V121.824C187.111 124.845 184.662 127.295 181.64 127.295H61.8227C58.8011 127.295 56.3516 124.845 56.3516 121.824V29.9089C56.3516 26.8873 58.8011 24.4377 61.8227 24.4377Z" fill="#637CED"/>
<path fill-rule="evenodd" clip-rule="evenodd" d="M61.8223 29.9088H181.635V109.058H61.8223V29.9088Z" fill="white"/>
<path fill-rule="evenodd" clip-rule="evenodd" d="M103.404 46.5046H105.41V109.24H103.404V46.5046Z" fill="#637CED"/>
<path fill-rule="evenodd" clip-rule="evenodd" d="M94.832 48.5107V46.5046H137.507V48.5107H94.832Z" fill="#637CED"/>
<path fill-rule="evenodd" clip-rule="evenodd" d="M86.4434 55.4408L89.8424 53.4347H144.907L147.173 55.4408H86.4434Z" fill="#637CED"/>
<path fill-rule="evenodd" clip-rule="evenodd" d="M103.939 55.2584H101.353L94.9669 49.0287L88.6643 55.1774H86.0781L93.6739 47.7672L94.885 46.5857L94.9681 46.5046H97.5542L96.26 47.7672L102.654 54.0048L109.048 47.7672L107.837 46.5857H110.259L110.342 46.5046H112.928L111.634 47.7672L117.236 53.2329L122.839 47.7672L121.628 46.5857H124.05L124.133 46.5046H126.719L125.425 47.7672L130.801 53.0123L136.178 47.7672L134.967 46.5857H137.389L137.472 46.5046L138.764 47.7672L146.443 55.2584H143.857L137.471 49.0287L132.095 54.2738L133.104 55.2584H130.518L130.435 55.1774H128.582L129.508 54.2738L124.132 49.0287L118.529 54.4944L119.313 55.2584H116.726L116.643 55.1774H115.243L115.943 54.4944L110.341 49.0287L104.038 55.1774H103.856L103.939 55.2584Z" fill="#637CED"/>
<path fill-rule="evenodd" clip-rule="evenodd" d="M95.9258 46.5046H97.9319V109.24H95.9258V46.5046Z" fill="#637CED"/>
<path fill-rule="evenodd" clip-rule="evenodd" d="M98.4876 91.2716L104.016 96.896L105.32 95.5687V98.2234L105.41 98.3144V101.149L104.016 99.7303L95.7441 108.146V105.312L102.623 98.3132L97.0947 92.6888L95.7441 94.0629V91.2286L95.8336 91.1375V88.5714L97.0947 89.8545L102.623 84.2301L97.0947 78.6058L95.7441 79.9799V77.1455L95.8336 77.0545V74.4884L97.0947 75.7714L102.623 70.1471L97.0947 64.5227L95.7441 65.8968V63.0625L95.8336 62.9714V60.4053L97.0947 61.6884L102.623 56.064L95.8336 49.1566V46.3223L104.016 54.6469L105.32 53.3195V55.9742L105.41 56.0653V58.8996L104.016 57.4812L98.4876 63.1055L104.016 68.7299L105.32 67.4026V70.0573L105.41 70.1483V72.9826L104.016 71.5642L98.4876 77.1886L104.016 82.813L105.32 81.4856V84.1403L105.41 84.2314V87.0657L104.016 85.6473L98.4876 91.2716Z" fill="#637CED"/>
<path fill-rule="evenodd" clip-rule="evenodd" d="M127.565 98.1156H137.772C138.023 98.1156 138.226 98.3189 138.226 98.5697V108.786C138.226 109.037 138.023 109.24 137.772 109.24H127.565C127.314 109.24 127.111 109.037 127.111 108.786V98.5697C127.111 98.3189 127.314 98.1156 127.565 98.1156Z" fill="#637CED"/>
<path fill-rule="evenodd" clip-rule="evenodd" d="M139.247 98.1156H149.454C149.704 98.1156 149.908 98.3189 149.908 98.5697V108.786C149.908 109.037 149.704 109.24 149.454 109.24H139.247C138.996 109.24 138.793 109.037 138.793 108.786V98.5697C138.793 98.3189 138.996 98.1156 139.247 98.1156Z" fill="#EC539C"/>
<path fill-rule="evenodd" clip-rule="evenodd" d="M133.122 86.991H143.329C143.579 86.991 143.783 87.1943 143.783 87.445V97.6615C143.783 97.9123 143.579 98.1156 143.329 98.1156H133.122C132.871 98.1156 132.668 97.9123 132.668 97.6615V87.445C132.668 87.1943 132.871 86.991 133.122 86.991Z" fill="#5BC587"/>
<rect x="144.438" y="56.1703" width="0.729483" height="18.4195" fill="#637CED"/>
<path fill-rule="evenodd" clip-rule="evenodd" d="M146.787 72.2189C148.081 72.9457 148.967 74.3311 148.995 75.935C149.024 77.5979 148.123 79.0582 146.776 79.8085L146.709 75.975L142.71 76.0449L142.777 79.8784C141.405 79.1757 140.453 77.7478 140.425 76.0849C140.397 74.481 141.234 73.0655 142.502 72.2938L146.787 72.2189Z" fill="#637CED"/>
<circle cx="144.619" cy="54.5289" r="2.37082" fill="#0F175F"/>
<path fill-rule="evenodd" clip-rule="evenodd" d="M56.3516 114.529H187.111V121.824C187.111 124.845 184.662 127.295 181.64 127.295H61.8227C58.8011 127.295 56.3516 124.845 56.3516 121.824V114.529Z" fill="#0F175F"/>
<path d="M66.0179 16.9604H36.1091C33.994 16.9604 32.2793 18.6751 32.2793 20.7902V36.6565C32.2793 38.7716 33.994 40.4863 36.1091 40.4863H66.0179C68.133 40.4863 69.8477 38.7716 69.8477 36.6565V20.7902C69.8477 18.6751 68.133 16.9604 66.0179 16.9604Z" fill="#0F175F"/>
<path d="M36.1096 17.3252H66.0184C67.9321 17.3252 69.4834 18.8765 69.4834 20.7902V36.6565C69.4834 38.5702 67.9321 40.1215 66.0184 40.1215H36.1096C34.1959 40.1215 32.6445 38.5702 32.6445 36.6565V20.7902C32.6445 18.8765 34.1959 17.3252 36.1096 17.3252Z" fill="white"/>
<circle cx="40.0299" cy="28.9057" r="4.28571" fill="#EC539C"/>
<rect x="46.5059" y="24.9847" width="8.57143" height="0.547112" rx="0.273556" fill="#0F175F"/>
<path fill-rule="evenodd" clip-rule="evenodd" d="M46.5059 28.7234C46.5059 28.5723 46.6283 28.4498 46.7794 28.4498H65.0165C65.1676 28.4498 65.2901 28.5723 65.2901 28.7234V28.7234C65.2901 28.8745 65.1676 28.9969 65.0165 28.9969H58.4996H46.7794C46.6283 28.9969 46.5059 28.8745 46.5059 28.7234V28.7234Z" fill="#0F175F"/>
<path fill-rule="evenodd" clip-rule="evenodd" d="M46.5059 32.1884C46.5059 32.0373 46.6283 31.9148 46.7794 31.9148H65.0165C65.1676 31.9148 65.2901 32.0373 65.2901 32.1884V32.1884C65.2901 32.3394 65.1676 32.4619 65.0165 32.4619H58.4996H46.7794C46.6283 32.4619 46.5059 32.3394 46.5059 32.1884V32.1884Z" fill="#0F175F"/>
<path d="M224.315 28.6322H194.406C192.291 28.6322 190.576 30.3469 190.576 32.462V48.3283C190.576 50.4434 192.291 52.158 194.406 52.158H224.315C226.43 52.158 228.145 50.4434 228.145 48.3283V32.462C228.145 30.3469 226.43 28.6322 224.315 28.6322Z" fill="#0F175F"/>
<path d="M194.406 28.9969H224.315C226.229 28.9969 227.78 30.5483 227.78 32.462V48.3283C227.78 50.2419 226.229 51.7933 224.315 51.7933H194.406C192.493 51.7933 190.941 50.2419 190.941 48.3283V32.462C190.941 30.5483 192.493 28.9969 194.406 28.9969Z" fill="white"/>
<circle cx="198.327" cy="40.5775" r="4.28571" fill="#5BC587"/>
<rect x="204.803" y="36.6565" width="8.57143" height="0.547112" rx="0.273556" fill="#0F175F"/>
<path fill-rule="evenodd" clip-rule="evenodd" d="M204.803 40.3951C204.803 40.2441 204.925 40.1216 205.076 40.1216H223.313C223.464 40.1216 223.587 40.2441 223.587 40.3951V40.3951C223.587 40.5462 223.464 40.6687 223.313 40.6687H216.796H205.076C204.925 40.6687 204.803 40.5462 204.803 40.3951V40.3951Z" fill="#0F175F"/>
<path fill-rule="evenodd" clip-rule="evenodd" d="M204.803 43.8601C204.803 43.709 204.925 43.5865 205.076 43.5865H223.313C223.464 43.5865 223.587 43.709 223.587 43.8601V43.8601C223.587 44.0112 223.464 44.1337 223.313 44.1337H216.796H205.076C204.925 44.1337 204.803 44.0112 204.803 43.8601V43.8601Z" fill="#0F175F"/>
<path fill-rule="evenodd" clip-rule="evenodd" d="M166.971 0H184.303C185.367 0 186.229 0.862226 186.229 1.92584V19.2584C186.229 20.322 185.367 21.1842 184.303 21.1842H166.971C165.907 21.1842 165.045 20.322 165.045 19.2584V1.92584C165.045 0.862226 165.907 0 166.971 0Z" fill="#637CED"/>
<path fill-rule="evenodd" clip-rule="evenodd" d="M170.91 6.97872L171.783 6.10532C171.851 6.03783 171.956 6.02494 172.037 6.07404L172.808 6.53671C173.31 6.21412 173.874 5.97935 174.477 5.85414L174.698 4.97213C174.721 4.87953 174.804 4.81458 174.899 4.81458H176.135C176.23 4.81458 176.313 4.87953 176.336 4.97213L176.557 5.85456V5.86525C177.153 5.99554 177.708 6.23276 178.203 6.55577L178.217 6.54202L178.997 6.07404C179.078 6.02494 179.183 6.03783 179.251 6.10532L180.124 6.97872C180.192 7.04621 180.205 7.15097 180.155 7.23281L179.687 8.01278L179.669 8.03121C179.987 8.52515 180.22 9.07916 180.347 9.67246H180.375L181.257 9.89307C181.35 9.91622 181.415 9.99942 181.415 10.0949V11.33C181.415 11.4255 181.35 11.5087 181.257 11.5318L180.375 11.7524H180.349C180.223 12.3468 179.99 12.9019 179.672 13.3968L179.687 13.4121L180.155 14.1921C180.205 14.2739 180.192 14.3787 180.124 14.4462L179.251 15.3196C179.183 15.3871 179.078 15.4 178.997 15.3509L178.217 14.8829L178.208 14.874C177.712 15.1987 177.155 15.437 176.557 15.5677V15.5703L176.336 16.4528C176.313 16.5454 176.23 16.6103 176.135 16.6103H174.899C174.804 16.6103 174.721 16.5454 174.698 16.4528L174.479 15.5793C173.872 15.4536 173.306 15.2172 172.802 14.8921L172.037 15.3509C171.956 15.4 171.851 15.3871 171.783 15.3196L170.91 14.4462C170.842 14.3787 170.83 14.2739 170.879 14.1921L171.334 13.4336C171.002 12.9276 170.761 12.3573 170.632 11.7456L169.777 11.5318C169.684 11.5087 169.619 11.4255 169.619 11.33V10.0949C169.619 9.99942 169.684 9.91622 169.777 9.89307L170.634 9.67883C170.763 9.06878 171.005 8.50016 171.336 7.99551L170.879 7.23281C170.83 7.15097 170.842 7.04621 170.91 6.97872ZM175.543 13.3185C176.98 13.3185 178.145 12.1535 178.145 10.7165C178.145 9.27944 176.98 8.11448 175.543 8.11448C174.106 8.11448 172.941 9.27944 172.941 10.7165C172.941 12.1535 174.106 13.3185 175.543 13.3185Z" fill="white"/>
<path fill-rule="evenodd" clip-rule="evenodd" d="M187.476 61.7871C187.476 61.7871 186.19 66.8338 186.19 67.9064C186.19 68.9791 189.482 69.0273 189.482 69.0273L187.476 61.7871Z" fill="#0F175F"/>
<path fill-rule="evenodd" clip-rule="evenodd" d="M191.56 66.0182L188.913 66.623L188.675 69.0543L187.354 69.446L186.977 72.0364H192.448L192.479 69.5212L191.126 69.1297L191.56 66.0182Z" fill="#FFB5B9"/>
<path fill-rule="evenodd" clip-rule="evenodd" d="M188.753 68.389C188.753 68.389 189.96 68.02 190.421 67.6208C190.881 67.2217 191.488 66.0182 191.488 66.0182L188.85 67.4377L188.753 68.389Z" fill="#FF9595"/>
<path fill-rule="evenodd" clip-rule="evenodd" d="M188.752 60.5471C187.293 60.5471 187.486 61.8606 187.486 63.3594V65.0948C187.486 66.5936 188.779 67.9065 188.961 67.9065C189.144 67.9065 191.855 66.5516 191.855 65.7544C191.855 64.9572 192.238 63.0909 192.238 63.0909C192.238 63.0909 190.21 60.5471 188.752 60.5471Z" fill="#FFB5B9"/>
<path fill-rule="evenodd" clip-rule="evenodd" d="M189.109 60.1887C186.778 59.6964 186.947 61.3694 187.477 62.2209C188.006 63.0724 189.756 62.7022 191.032 63.2661C191.313 64.3858 191.564 64.3978 191.708 64.3978C191.713 64.3978 191.72 64.3989 191.728 64.4012C191.707 64.6829 191.82 64.9756 192.053 65.1682C191.959 65.2951 191.928 65.4533 191.953 65.6037C191.793 65.8275 191.547 66.1366 191.217 66.5309C189.869 69.1731 190.703 69.2442 193.121 69.3863C195.538 69.5283 193.026 62.037 192.968 62.0805C192.254 61.1527 191.052 60.5993 189.109 60.1887ZM199.494 67.1471C199.476 67.1459 199.458 67.145 199.44 67.1442C199.442 67.1288 199.444 67.1135 199.446 67.0982C199.461 67.115 199.478 67.1313 199.494 67.1471V67.1471Z" fill="#0F175F"/>
<path d="M190.132 63.5706C189.898 63.2596 189.613 63.2596 189.381 63.5711C189.339 63.6276 189.351 63.7076 189.407 63.7498C189.464 63.7919 189.544 63.7803 189.586 63.7238C189.716 63.549 189.796 63.549 189.929 63.7243C189.971 63.7806 190.051 63.7918 190.107 63.7494C190.164 63.7069 190.175 63.6269 190.132 63.5706Z" fill="#021768"/>
<path d="M188.308 63.5706C188.074 63.2596 187.789 63.2596 187.557 63.5711C187.515 63.6276 187.526 63.7076 187.583 63.7498C187.639 63.7919 187.719 63.7803 187.762 63.7238C187.892 63.549 187.972 63.549 188.104 63.7243C188.147 63.7806 188.227 63.7918 188.283 63.7494C188.339 63.7069 188.351 63.6269 188.308 63.5706Z" fill="#021768"/>
<path d="M189.194 66.3626C189.05 66.7236 188.775 66.7972 188.468 66.5576C188.385 66.4927 188.412 66.3609 188.514 66.3336L189.042 66.192C189.144 66.1648 189.233 66.265 189.194 66.3626Z" fill="#FF9595"/>
<circle cx="0.182371" cy="0.182371" r="0.182371" transform="matrix(-1 0 0 1 189.848 64.377)" fill="#021768"/>
<circle cx="0.182371" cy="0.182371" r="0.182371" transform="matrix(-1 0 0 1 188.023 64.377)" fill="#021768"/>
<path fill-rule="evenodd" clip-rule="evenodd" d="M188.754 64.1946V65.7534C188.754 65.7534 187.91 66.0015 188.042 65.5039C188.175 65.0063 188.754 64.1946 188.754 64.1946Z" fill="#FF9595"/>
<path fill-rule="evenodd" clip-rule="evenodd" d="M191.189 66.0101C191.806 66.1692 192.475 65.935 192.684 65.4869C192.892 65.0389 192.562 64.5467 191.945 64.3876C191.329 64.2284 190.573 65.8509 191.189 66.0101Z" fill="#FFB5B9"/>
<path d="M192.271 65.2579C192.125 64.711 191.804 64.6431 191.495 65.104C191.455 65.1626 191.471 65.2419 191.529 65.2812C191.588 65.3204 191.667 65.3048 191.707 65.2463L191.739 65.1984L191.769 65.1572L191.796 65.1228C191.882 65.0194 191.927 65.0299 191.977 65.1665L191.992 65.2113L192.008 65.2637L192.024 65.3238C192.043 65.3919 192.113 65.4324 192.181 65.4142C192.249 65.396 192.289 65.326 192.271 65.2579Z" fill="#F97A80"/>
<path fill-rule="evenodd" clip-rule="evenodd" d="M186.73 118.947C188.427 126.392 189.983 131.085 191.397 133.027C191.644 133.365 191.89 133.656 192.136 133.898L192.019 134.137L192.706 134.373C193.13 134.662 193.552 134.807 193.973 134.807L214.007 141.683L215.986 138.856L197.801 128.463L198.853 105.593L183.339 105.593C171.387 111.257 163.773 114.84 160.496 116.342C159.321 116.881 158.695 117.479 158.617 118.137C158.48 118.493 158.379 118.927 158.313 119.438C157.85 123.013 159.612 131.063 163.6 143.588H167.051L165.067 122.01L186.73 118.947V118.947Z" fill="#5BC587"/>
<path fill-rule="evenodd" clip-rule="evenodd" d="M213.939 141.651C214.37 142.106 214.572 142.401 214.546 142.536C213.639 142.689 213.395 143.36 213.814 144.551H216.605L218.326 139.552L215.05 138.424L213.939 141.651Z" fill="#0F175F"/>
<path fill-rule="evenodd" clip-rule="evenodd" d="M163.637 143.526C163.347 144.082 163.134 144.369 162.998 144.389C160.564 144.731 159.574 145.599 159.574 146.991C160.345 146.991 162.837 146.991 167.051 146.991V143.526H163.637Z" fill="#0F175F"/>
<path fill-rule="evenodd" clip-rule="evenodd" d="M161.321 82.8601C161.06 82.7525 160.752 82.6919 160.305 82.589C159.672 82.4433 158.694 82.3788 158.56 82.4663C158.069 82.7853 159.81 83.3238 159.565 83.4859C159.124 83.7783 156.163 84.2729 156.225 84.7223C156.239 84.8249 156.863 84.8383 158.096 84.7627C156.886 85.3756 156.305 85.7356 156.352 85.8426C156.4 85.9496 157.079 85.8106 158.39 85.4256C157.333 86.1265 156.83 86.5206 156.879 86.6082C156.928 86.6957 157.533 86.4826 158.694 85.9691C157.818 86.6607 157.435 87.0307 157.545 87.0792C157.711 87.1518 159.281 86.2562 159.313 86.241C159.997 85.9166 160.614 85.623 161.162 85.3602L161.497 85.3595C161.529 85.3711 161.563 85.3791 161.599 85.3831C162.046 85.4653 174.912 87.2214 178.92 87.2634C187.583 81.0447 192.099 76.8702 192.467 74.74C192.835 72.6097 184.394 70.9189 183.903 71.6296C180.234 76.9367 179.16 78.9281 176.682 81.8224C172.935 82.6119 168.329 83.0281 162.866 83.071C162.105 83.0414 161.59 82.9711 161.321 82.8601Z" fill="#FFB5B9"/>
<path fill-rule="evenodd" clip-rule="evenodd" d="M198.384 85.0142L200.15 84.9007C200.03 78.0176 198.871 73.7886 196.675 72.214C196.528 72.1087 196.383 72.0166 196.24 71.9377C196.204 71.9108 196.167 71.8838 196.129 71.8568C195.678 71.534 194.577 70.802 192.827 69.6608C191.656 70.8749 190.439 71.4488 189.177 71.3824C187.915 71.316 187.199 70.628 187.273 69.5278C185.86 69.9418 184.623 70.6371 183.562 71.6138C183.535 71.6378 183.509 71.6686 183.482 71.7061C183.464 71.6806 183.445 71.6551 183.427 71.6296L177.9 80.2504L181.242 83.176C180.432 89.1756 179.486 97.4973 178.403 108.141L198.99 109.04C199.201 109.049 199.38 108.885 199.389 108.674C199.389 108.663 199.389 108.652 199.389 108.642C198.965 98.1673 198.63 90.2915 198.384 85.0142V85.0142Z" fill="#EC539C"/>
<path fill-rule="evenodd" clip-rule="evenodd" d="M192.809 85.6251L190.95 79.9366L192.82 91.288L181.546 95.5663C190.762 97.9451 196.127 98.8651 197.639 98.3266C198.981 97.8486 199.277 91.5497 199.042 85.3527C199.029 85.02 196.952 85.1108 192.809 85.6251Z" fill="#0F175F"/>
<path fill-rule="evenodd" clip-rule="evenodd" d="M192.809 85.4427L193.913 90.7409C184.993 91.8919 178.94 92.4227 178.671 92.3333C178.403 92.2441 178.092 92.2052 177.639 92.1337C176.997 92.0325 176.018 92.0363 175.89 92.133C175.422 92.4855 177.197 92.9012 176.964 93.08C176.544 93.4025 173.624 94.1024 173.718 94.5464C173.739 94.6478 174.362 94.6177 175.587 94.4562C174.423 95.152 173.868 95.5517 173.923 95.6551C173.978 95.7585 174.645 95.5725 175.926 95.097C174.921 95.8698 174.447 96.2981 174.502 96.382C174.557 96.4659 175.146 96.2112 176.268 95.6178C175.442 96.3689 175.086 96.7648 175.199 96.8054C175.369 96.8663 176.874 95.8633 176.904 95.846C177.564 95.4746 178.159 95.1387 178.688 94.8383C191.164 96.5502 197.906 97.2267 198.915 96.8677C200.079 96.453 200.519 90.7366 200.151 84.9008L192.809 85.4427Z" fill="#FFB5B9"/>
<path fill-rule="evenodd" clip-rule="evenodd" d="M192.485 69.463C191.469 70.6037 190.475 71.1741 189.504 71.1741C188.532 71.1741 187.826 70.5784 187.385 69.3872L186.536 69.7596C186.689 71.1872 187.605 71.996 189.283 72.186C190.961 72.376 192.386 71.6524 193.559 70.0152L192.485 69.463Z" fill="white"/>
<path fill-rule="evenodd" clip-rule="evenodd" d="M36.9482 55.9878L39.5957 56.5926L39.8341 59.0239L41.3053 59.4528L41.532 62.006H36.0605L36.2054 59.5286L37.3908 59.1523L36.9482 55.9878Z" fill="#FFB5B9"/>
<path fill-rule="evenodd" clip-rule="evenodd" d="M39.7551 58.3586C39.7551 58.3586 38.5477 57.9896 38.0872 57.5904C37.6267 57.1913 37.0195 55.9878 37.0195 55.9878L39.6576 57.4073L39.7551 58.3586Z" fill="#FF9595"/>
<path fill-rule="evenodd" clip-rule="evenodd" d="M39.7582 50.5167C41.2163 50.5167 41.0237 51.8302 41.0237 53.329V55.0644C41.0237 56.5632 41.1545 57.8095 39.5517 57.8095C37.9489 57.8095 36.7416 57.4203 36.6552 55.724C36.5687 54.0277 36.2715 53.0605 36.2715 53.0605C36.2715 53.0605 38.3001 50.5167 39.7582 50.5167Z" fill="#FFB5B9"/>
<path d="M38.7425 53.3578C38.9771 53.0468 39.2616 53.0468 39.4939 53.3583C39.5361 53.4149 39.5244 53.4948 39.4679 53.537C39.4114 53.5791 39.3314 53.5675 39.2892 53.511C39.1589 53.3362 39.0786 53.3362 38.9464 53.5115C38.9039 53.5678 38.8239 53.579 38.7676 53.5366C38.7113 53.4941 38.7001 53.4141 38.7425 53.3578Z" fill="#021768"/>
<path d="M40.3832 53.3578C40.6177 53.0468 40.9022 53.0468 41.1345 53.3583C41.1767 53.4149 41.165 53.4948 41.1085 53.537C41.052 53.5791 40.972 53.5675 40.9299 53.511C40.7995 53.3362 40.7192 53.3362 40.587 53.5115C40.5446 53.5678 40.4645 53.579 40.4082 53.5366C40.3519 53.4941 40.3407 53.4141 40.3832 53.3578Z" fill="#021768"/>
<path fill-rule="evenodd" clip-rule="evenodd" d="M40.1114 56.4999C39.9777 56.8628 39.8182 57.0105 39.6328 56.9429C39.4475 56.8754 39.3537 56.6861 39.3516 56.3752L40.1114 56.4999Z" fill="#0F175F"/>
<path fill-rule="evenodd" clip-rule="evenodd" d="M40.1114 56.4482C40.0715 56.4831 40.0367 56.5071 40.0069 56.5203C39.7678 56.5284 39.5493 56.4801 39.3516 56.3753L40.1114 56.4482Z" fill="white"/>
<circle cx="39.2078" cy="54.5288" r="0.182371" fill="#021768"/>
<circle cx="40.8503" cy="54.5288" r="0.182371" fill="#021768"/>
<path fill-rule="evenodd" clip-rule="evenodd" d="M40.1211 54.3464V55.9053C40.1211 55.9053 40.9654 56.1533 40.8325 55.6557C40.6996 55.1581 40.1211 54.3464 40.1211 54.3464Z" fill="#FF9595"/>
<path fill-rule="evenodd" clip-rule="evenodd" d="M36.7754 55.8055C36.7754 55.8055 36.5318 54.3145 36.7733 54.1383C37.0148 53.9621 37.1838 54.935 37.4132 54.8927C37.6425 54.8503 37.7248 53.6418 37.7248 53.6418C37.7248 53.6418 37.8557 53.6516 38.0394 53.4837C38.223 53.3158 38.0394 51.9921 38.0394 51.9921C38.0394 51.9921 40.0546 52.7681 41.1915 52.5788C42.3284 52.3894 42.772 50.2001 41.6838 49.4153C40.5955 48.6305 41.5221 50.7681 39.0025 50.2318C36.4828 49.6956 36.4516 51.2139 36.4516 51.2139C36.4516 51.2139 36.1576 51.3085 36.1104 52.1897C36.0631 53.0709 36.7754 55.8055 36.7754 55.8055Z" fill="#0F175F"/>
<path fill-rule="evenodd" clip-rule="evenodd" d="M37.3203 55.9797C36.7038 56.1388 36.0349 55.9046 35.8262 55.4565C35.6175 55.0085 35.9482 54.5163 36.5647 54.3572C37.1812 54.198 37.9368 55.8206 37.3203 55.9797Z" fill="#FFB5B9"/>
<path d="M36.2387 55.2275C36.3847 54.6806 36.706 54.6127 37.0152 55.0736C37.0545 55.1322 37.0388 55.2115 36.9803 55.2508C36.9218 55.29 36.8424 55.2744 36.8032 55.2159L36.7704 55.168L36.7407 55.1268L36.7136 55.0924C36.6278 54.989 36.5828 54.9995 36.5329 55.1361L36.5177 55.1809L36.502 55.2333L36.4854 55.2934C36.4672 55.3615 36.3973 55.402 36.3291 55.3838C36.261 55.3656 36.2205 55.2956 36.2387 55.2275Z" fill="#F97A80"/>
<path fill-rule="evenodd" clip-rule="evenodd" d="M55.1579 118.281C54.6953 114.706 52.772 107.133 49.3883 95.5623L36.0171 95.927H29.48L30.1938 121.139L28.084 143.708H31.5174L41.2997 106.113L48.5848 120.161L48.2437 143.708H51.6949C54.4663 130.332 55.6206 121.856 55.1579 118.281Z" fill="#0F175F"/>
<path fill-rule="evenodd" clip-rule="evenodd" d="M31.4976 143.526C31.7873 144.082 32.0003 144.369 32.1366 144.389C34.5707 144.731 35.5612 145.599 35.5612 146.991C34.7897 146.991 32.2973 146.991 28.084 146.991V143.526H31.4976Z" fill="#0F175F"/>
<path fill-rule="evenodd" clip-rule="evenodd" d="M51.7398 143.526C52.0295 144.082 52.2425 144.369 52.3787 144.389C54.8129 144.731 55.8034 145.599 55.8034 146.991C55.0319 146.991 52.5395 146.991 48.3262 146.991V143.526H51.7398Z" fill="#0F175F"/>
<path fill-rule="evenodd" clip-rule="evenodd" d="M31.5356 62.6963C33.5135 61.824 34.0656 64.6919 33.1917 71.2999L23.6203 78.756L30.876 89.0601L28.9964 91.2523C20.8438 84.7968 16.4488 80.8324 15.8113 79.3592C14.8552 77.1494 28.5686 64.0047 31.5356 62.6963Z" fill="#FFB5B9"/>
<path fill-rule="evenodd" clip-rule="evenodd" d="M62.7065 74.7609C60.8728 76.3214 45.8705 71.4662 43.7518 69.0115C42.3394 67.3749 41.7024 64.3969 41.8408 60.0772L58.7913 67.9694C58.7913 67.9694 63.0854 55.1623 63.3263 54.8128C63.4866 54.5803 63.7119 54.3618 64.0307 54.0321C64.482 53.5653 65.2667 52.9788 65.4273 52.9788C66.013 52.9788 64.8457 54.3789 65.1393 54.3815C65.6689 54.3863 68.4215 53.1885 68.6143 53.5992C68.6582 53.6929 68.1426 54.0438 67.0673 54.6519C68.4158 54.507 69.0993 54.4924 69.1177 54.608C69.1362 54.7236 68.4909 54.9769 67.1817 55.3681C68.4493 55.3805 69.0864 55.4368 69.0929 55.5369C69.0994 55.6371 68.4758 55.788 67.2222 55.9898C68.3336 56.0927 68.8563 56.1944 68.7903 56.295C68.6913 56.4459 66.8864 56.5502 66.8512 56.5549C66.1009 56.6554 65.5079 56.6554 65.0722 56.5549C65.0722 56.5549 63.929 73.7206 62.7065 74.7609Z" fill="#FFB5B9"/>
<path fill-rule="evenodd" clip-rule="evenodd" d="M43.6006 60.5589L53.0637 65.2326L51.0122 72.5776L47.2203 71.5946C48.0785 77.681 49.1004 86.5518 50.2858 98.2068L29.6994 99.1055C29.4881 99.1147 29.3093 98.9509 29.3001 98.7395C29.2996 98.7288 29.2996 98.7181 29.3 98.7074C29.7631 87.2613 30.1203 78.9183 30.3717 73.6783L28.6204 75.1554L23.6699 68.7653C28.7668 64.5693 31.73 62.2884 32.5596 61.9226C33.0113 61.5998 34.1121 60.8677 35.8619 59.7265C37.0331 60.9407 38.2498 61.5146 39.512 61.4482C40.7742 61.3818 41.4294 60.6579 41.3553 59.5577C42.1644 59.8341 42.9129 60.1578 43.6006 60.5589V60.5589Z" fill="#5BC587"/>
<path fill-rule="evenodd" clip-rule="evenodd" d="M36.2047 59.5286C37.2209 60.6694 38.2146 61.2397 39.1859 61.2397C40.1571 61.2397 40.8633 60.6441 41.3046 59.4529L42.1534 59.8253C42.0004 61.2529 41.0848 62.0617 39.4067 62.2517C37.7285 62.4417 36.3032 61.7181 35.1309 60.0808L36.2047 59.5286Z" fill="white"/>
<path fill-rule="evenodd" clip-rule="evenodd" d="M28.4353 91.1232C27.5608 89.9691 29.7426 87.6796 29.7522 87.715C29.9202 88.3324 29.5774 88.7831 29.9245 88.9101C29.9674 88.9258 32.2101 89.5591 32.2894 89.7755C32.3423 89.9198 31.6531 89.9015 30.2217 89.7206C31.7405 90.3224 32.4807 90.685 32.4424 90.8085C32.404 90.932 31.5844 90.8249 29.9835 90.4873C31.3333 91.1009 31.9792 91.4775 31.9211 91.617C31.863 91.7565 31.1401 91.6922 29.7522 91.4241C30.4729 91.8801 30.7849 92.1696 30.6882 92.2926C30.5432 92.477 29.3097 92.2774 28.4353 91.1232Z" fill="#FFB5B9"/>
</svg>
