<svg id="Layer_1" data-name="Layer 1" xmlns="http://www.w3.org/2000/svg" viewBox="0 0 512 512"><defs><style>.cls-1{fill:#ffdd15;}.cls-2{fill:#231f20;}</style></defs><rect class="cls-1" x="-6.5" y="-5.92" width="526.01" height="526.01" rx="135.38"/><path class="cls-2" d="M354,470.45c-110.13-10.07-166.41-59.58-194.5-100.51a152.67,152.67,0,0,1-26.42-86.44h0V24.31a1.64,1.64,0,0,1,2.24-1.53c9,3.56,43.4,18.28,74.39,45.93,28.66,25.56,44.66,62.44,44.66,100.85V302.43a187.63,187.63,0,0,0,3.46,37c16.53,82.44,81.52,121.63,96.58,129.71A.7.7,0,0,1,354,470.45Z"/><circle class="cls-2" cx="384.89" cy="477.1" r="14.4"/></svg>