<svg width="37" height="142" viewBox="0 0 37 142" fill="none" xmlns="http://www.w3.org/2000/svg">
<path d="M10.6518 1.12097C10.1663 0.4497 9.22858 0.29908 8.5573 0.784553C7.88603 1.27003 7.73541 2.20775 8.22088 2.87903L10.6518 1.12097ZM25.5827 83.3249L24.1736 82.8108L25.5827 83.3249ZM4.8686 80.8017L6.31792 80.4151L6.31792 80.4151L4.8686 80.8017ZM3.85945 57.6076L2.84772 56.5002L3.85945 57.6076ZM15.5975 77.308L17.0493 76.9311L17.0493 76.9311L15.5975 77.308ZM24.6283 141.061C25.2141 141.646 26.1638 141.646 26.7496 141.061L36.2956 131.515C36.8813 130.929 36.8813 129.979 36.2956 129.393C35.7098 128.808 34.76 128.808 34.1742 129.393L25.689 137.879L17.2037 129.393C16.6179 128.808 15.6681 128.808 15.0824 129.393C14.4966 129.979 14.4966 130.929 15.0824 131.515L24.6283 141.061ZM9.97973 5.36917C10.45 6.05118 11.3841 6.22281 12.0661 5.75253C12.7481 5.28225 12.9198 4.34814 12.4495 3.66613L9.97973 5.36917ZM15.8775 8.89306C15.4397 8.18976 14.5146 7.97453 13.8113 8.41232C13.108 8.85012 12.8928 9.77515 13.3306 10.4785L15.8775 8.89306ZM16.4238 15.7321C16.8259 16.4564 17.739 16.7175 18.4633 16.3154C19.1876 15.9132 19.4487 15.0001 19.0466 14.2758L16.4238 15.7321ZM21.939 19.827C21.5763 19.0822 20.6785 18.7724 19.9337 19.1351C19.1889 19.4978 18.8791 20.3956 19.2418 21.1404L21.939 19.827ZM21.7486 26.6857C22.0676 27.4503 22.9459 27.8115 23.7105 27.4925C24.4751 27.1736 24.8363 26.2952 24.5173 25.5306L21.7486 26.6857ZM26.7511 31.3887C26.4807 30.6057 25.6267 30.1902 24.8436 30.4606C24.0606 30.7311 23.6451 31.5851 23.9155 32.3682L26.7511 31.3887ZM25.706 38.1732C25.9229 38.9727 26.7468 39.445 27.5464 39.2281C28.3459 39.0112 28.8182 38.1872 28.6013 37.3877L25.706 38.1732ZM30.0273 43.5056C29.869 42.6925 29.0815 42.1616 28.2683 42.3199C27.4551 42.4782 26.9242 43.2657 27.0825 44.0788L30.0273 43.5056ZM28.0111 50.0649C28.106 50.8879 28.8501 51.4781 29.673 51.3833C30.496 51.2884 31.0863 50.5443 30.9914 49.7213L28.0111 50.0649ZM31.4586 56.0009C31.4312 55.1729 30.7377 54.524 29.9097 54.5515C29.0818 54.5789 28.4328 55.2724 28.4603 56.1004L31.4586 56.0009ZM28.406 62.1483C28.3633 62.9757 28.9994 63.6809 29.8267 63.7236C30.654 63.7663 31.3593 63.1302 31.402 62.3029L28.406 62.1483ZM30.8062 68.5797C30.92 67.7591 30.3471 67.0016 29.5266 66.8877C28.706 66.7739 27.9485 67.3468 27.8346 68.1673L30.8062 68.5797ZM26.7462 74.1122C26.562 74.9199 27.0675 75.724 27.8753 75.9081C28.683 76.0922 29.487 75.5867 29.6711 74.779L26.7462 74.1122ZM28.0109 80.8577C28.2626 80.0685 27.8268 79.2246 27.0375 78.9729C26.2482 78.7212 25.4044 79.157 25.1527 79.9463L28.0109 80.8577ZM23.1475 85.3267C22.8035 86.0803 23.1354 86.9701 23.889 87.3142C24.6426 87.6583 25.5325 87.3263 25.8765 86.5727L23.1475 85.3267ZM22.7593 91.7385C23.2849 91.0981 23.1918 90.1529 22.5515 89.6274C21.9111 89.1018 20.966 89.1948 20.4404 89.8352L22.7593 91.7385ZM16.6832 92.5735C15.883 92.7877 15.408 93.6102 15.6223 94.4104C15.8366 95.2106 16.659 95.6856 17.4592 95.4713L16.6832 92.5735ZM10.8522 94.112C11.5274 94.592 12.4639 94.4337 12.9438 93.7584C13.4238 93.0832 13.2655 92.1467 12.5902 91.6668L10.8522 94.112ZM9.31953 87.8872C8.89438 87.1762 7.97334 86.9445 7.26233 87.3696C6.55131 87.7948 6.31956 88.7158 6.7447 89.4268L9.31953 87.8872ZM4.27553 84.0005C4.54609 84.7835 5.40016 85.1989 6.18316 84.9283C6.96617 84.6578 7.38159 83.8037 7.11104 83.0207L4.27553 84.0005ZM5.57479 77.5461C5.3752 76.7421 4.56161 76.2521 3.75759 76.4517C2.95356 76.6513 2.46357 77.4649 2.66316 78.2689L5.57479 77.5461ZM1.36958 72.3359C1.51855 73.1509 2.29994 73.6907 3.11486 73.5417C3.92978 73.3928 4.46964 72.6114 4.32067 71.7965L1.36958 72.3359ZM3.56528 66.0402C3.51089 65.2135 2.79668 64.5875 1.97004 64.6419C1.1434 64.6963 0.517365 65.4105 0.571754 66.2371L3.56528 66.0402ZM0.992021 59.8001C0.774896 60.5996 1.24698 61.4237 2.04645 61.6408C2.84591 61.8579 3.67002 61.3859 3.88715 60.5864L0.992021 59.8001ZM6.1273 58.3926C6.86781 58.764 7.76919 58.4648 8.1406 57.7243C8.51201 56.9838 8.2128 56.0824 7.4723 55.711L6.1273 58.3926ZM11.9702 61.4405C11.6145 60.6923 10.7196 60.3741 9.97144 60.7298C9.22325 61.0855 8.90507 61.9803 9.26076 62.7285L11.9702 61.4405ZM11.5255 68.5325C11.7865 69.3188 12.6355 69.7446 13.4217 69.4835C14.208 69.2225 14.6337 68.3735 14.3727 67.5873L11.5255 68.5325ZM16.2296 73.8196C16.0128 73.0201 15.1889 72.5476 14.3893 72.7644C13.5898 72.9812 13.1174 73.8052 13.3342 74.6047L16.2296 73.8196ZM14.9427 80.7657C15.1494 81.568 15.9673 82.0507 16.7696 81.844C17.5718 81.6373 18.0546 80.8194 17.8479 80.0172L14.9427 80.7657ZM19.4188 86.2009C19.2183 85.3971 18.4041 84.9081 17.6003 85.1087C16.7965 85.3092 16.3075 86.1234 16.5081 86.9272L19.4188 86.2009ZM18.0079 93.0969C18.198 93.9032 19.0057 94.4027 19.812 94.2127C20.6184 94.0226 21.1179 93.2148 20.9278 92.4085L18.0079 93.0969ZM22.3412 98.6465C22.1659 97.8369 21.3674 97.3226 20.5577 97.4979C19.7481 97.6733 19.2338 98.4718 19.4092 99.2814L22.3412 98.6465ZM20.68 105.486C20.8364 106.3 21.6227 106.833 22.4362 106.676C23.2498 106.52 23.7824 105.733 23.626 104.92L20.68 105.486ZM24.7511 111.231C24.6173 110.414 23.8462 109.859 23.0286 109.993C22.211 110.127 21.6567 110.898 21.7904 111.716L24.7511 111.231ZM22.7134 117.968C22.8211 118.79 23.5743 119.368 24.3957 119.261C25.2171 119.153 25.7957 118.4 25.688 117.578L22.7134 117.968ZM26.4128 123.958C26.3339 123.133 25.6014 122.529 24.7767 122.608C23.9521 122.687 23.3475 123.419 23.4265 124.244L26.4128 123.958ZM23.912 130.537C23.9602 131.364 24.6698 131.996 25.4968 131.948C26.3238 131.899 26.9552 131.19 26.9069 130.363L23.912 130.537ZM27.1574 136.784C27.1412 135.956 26.4566 135.298 25.6283 135.314C24.8001 135.33 24.1418 136.015 24.158 136.843L27.1574 136.784ZM8.22088 2.87903C8.80736 3.68995 9.39432 4.52022 9.97973 5.36917L12.4495 3.66613C11.851 2.7982 11.251 1.9496 10.6518 1.12097L8.22088 2.87903ZM13.3306 10.4785C14.3848 12.172 15.4201 13.9245 16.4238 15.7321L19.0466 14.2758C18.0174 12.4223 16.9566 10.6267 15.8775 8.89306L13.3306 10.4785ZM19.2418 21.1404C20.1204 22.9447 20.9595 24.7943 21.7486 26.6857L24.5173 25.5306C23.7049 23.5831 22.8417 21.6808 21.939 19.827L19.2418 21.1404ZM23.9155 32.3682C24.5719 34.2685 25.1719 36.2045 25.706 38.1732L28.6013 37.3877C28.0487 35.3508 27.4286 33.3501 26.7511 31.3887L23.9155 32.3682ZM27.0825 44.0788C27.4657 46.0472 27.7781 48.0435 28.0111 50.0649L30.9914 49.7213C30.7491 47.6201 30.4247 45.5472 30.0273 43.5056L27.0825 44.0788ZM28.4603 56.1004C28.5265 58.0958 28.511 60.1126 28.406 62.1483L31.402 62.3029C31.5115 60.1805 31.5276 58.0789 31.4586 56.0009L28.4603 56.1004ZM27.8346 68.1673C27.5617 70.134 27.2012 72.1163 26.7462 74.1122L29.6711 74.779C30.1455 72.6982 30.5215 70.6309 30.8062 68.5797L27.8346 68.1673ZM25.1527 79.9463C24.849 80.8984 24.5229 81.8533 24.1736 82.8108L26.9919 83.839C27.3553 82.843 27.6947 81.8492 28.0109 80.8577L25.1527 79.9463ZM24.1736 82.8108C23.8437 83.715 23.5008 84.5531 23.1475 85.3267L25.8765 86.5727C26.2649 85.7221 26.6372 84.811 26.9919 83.839L24.1736 82.8108ZM20.4404 89.8352C19.1341 91.4267 17.8462 92.262 16.6832 92.5735L17.4592 95.4713C19.394 94.9533 21.1805 93.6621 22.7593 91.7385L20.4404 89.8352ZM12.5902 91.6668C11.4835 90.8801 10.3638 89.6337 9.31953 87.8872L6.7447 89.4268C7.93976 91.4255 9.32004 93.023 10.8522 94.112L12.5902 91.6668ZM7.11104 83.0207C6.8278 82.201 6.56255 81.3322 6.31792 80.4151L3.41928 81.1883C3.68142 82.171 3.96749 83.109 4.27553 84.0005L7.11104 83.0207ZM6.31792 80.4151C6.11706 79.6621 5.85673 78.6819 5.57479 77.5461L2.66316 78.2689C2.95169 79.4312 3.2176 80.4322 3.41928 81.1883L6.31792 80.4151ZM4.32067 71.7965C3.96911 69.8732 3.68723 67.8937 3.56528 66.0402L0.571754 66.2371C0.703673 68.2421 1.00516 70.3424 1.36958 72.3359L4.32067 71.7965ZM3.88715 60.5864C4.13876 59.6599 4.48826 59.0649 4.87118 58.715L2.84772 56.5002C1.89791 57.3679 1.33037 58.5543 0.992021 59.8001L3.88715 60.5864ZM4.87118 58.715C5.21936 58.3969 5.46417 58.3087 5.60359 58.2851C5.73116 58.2635 5.89189 58.2746 6.1273 58.3926L7.4723 55.711C6.7622 55.3549 5.95746 55.1827 5.10358 55.327C4.26156 55.4694 3.50895 55.8961 2.84772 56.5002L4.87118 58.715ZM9.26076 62.7285C10.0819 64.4558 10.8444 66.4808 11.5255 68.5325L14.3727 67.5873C13.6712 65.4742 12.8645 63.3218 11.9702 61.4405L9.26076 62.7285ZM13.3342 74.6047C13.6599 75.8059 13.9316 76.8607 14.1456 77.6849L17.0493 76.9311C16.8368 76.1125 16.5605 75.0399 16.2296 73.8196L13.3342 74.6047ZM14.1456 77.6849C14.4127 78.714 14.6786 79.7407 14.9427 80.7657L17.8479 80.0172C17.5831 78.9898 17.3168 77.9612 17.0493 76.9311L14.1456 77.6849ZM16.5081 86.9272C17.0216 88.9851 17.523 91.0401 18.0079 93.0969L20.9278 92.4085C20.4394 90.3366 19.9348 88.2688 19.4188 86.2009L16.5081 86.9272ZM19.4092 99.2814C19.8554 101.342 20.2806 103.409 20.68 105.486L23.626 104.92C23.2217 102.818 22.7919 100.728 22.3412 98.6465L19.4092 99.2814ZM21.7904 111.716C22.1288 113.784 22.4379 115.867 22.7134 117.968L25.688 117.578C25.4081 115.444 25.0943 113.329 24.7511 111.231L21.7904 111.716ZM23.4265 124.244C23.6252 126.319 23.7883 128.416 23.912 130.537L26.9069 130.363C26.781 128.203 26.615 126.069 26.4128 123.958L23.4265 124.244ZM24.158 136.843C24.1785 137.888 24.189 138.941 24.189 140H27.189C27.189 138.921 27.1783 137.849 27.1574 136.784L24.158 136.843Z" fill="#A0A0A0"/>
</svg>
