<svg width="94" height="94" viewBox="0 0 94 94" fill="none" xmlns="http://www.w3.org/2000/svg">
<circle cx="47" cy="47" r="47" fill="#FFE604"/>
<path d="M39.6801 52.1881C36.154 52.4148 32.9539 53.7578 31.1382 58.5426C30.9316 59.0884 30.435 59.4197 29.8559 59.4197C28.8794 59.4197 25.8604 56.9878 25 56.4007C25.0009 63.6385 28.3345 70 36.2507 70C42.9179 70 47.5004 66.153 47.5004 59.4364C47.5004 59.1631 47.4433 58.902 47.4152 58.634L39.6801 52.1881ZM65.2443 25C63.9119 25 62.663 25.5897 61.7103 26.4458C43.7449 42.4946 41.8755 42.8717 41.8755 47.5958C41.8755 48.7999 42.1612 49.9478 42.6428 50.9972L48.2519 55.6712C48.8856 55.8294 49.5386 55.9375 50.2197 55.9375C55.6785 55.9375 58.8425 51.9411 68.7783 33.3971C69.427 32.1358 70 30.7735 70 29.355C70 26.8141 67.7149 25 65.2443 25Z" fill="#232323"/>
</svg>
