<svg width="94" height="94" viewBox="0 0 94 94" fill="none" xmlns="http://www.w3.org/2000/svg">
<circle cx="47" cy="47" r="47" fill="#FFE604"/>
<path d="M42.3303 47.4414C42.7795 47.9297 43.5076 47.9297 43.9568 47.4414L44.7697 46.5578C45.2189 46.0695 45.2189 45.2781 44.7697 44.7898L42.2023 42L44.769 39.2094C45.2182 38.7211 45.2182 37.9297 44.769 37.4414L43.9561 36.5578C43.5069 36.0695 42.7788 36.0695 42.3296 36.5578L38.1364 41.1156C37.6872 41.6039 37.6872 42.3953 38.1364 42.8836L42.3303 47.4414ZM49.231 46.5586L50.0439 47.4422C50.4931 47.9305 51.2212 47.9305 51.6704 47.4422L55.8636 42.8844C56.3128 42.3961 56.3128 41.6047 55.8636 41.1164L51.6704 36.5586C51.2212 36.0703 50.4931 36.0703 50.0439 36.5586L49.231 37.4422C48.7818 37.9305 48.7818 38.7219 49.231 39.2102L51.7977 42L49.231 44.7906C48.7818 45.2789 48.7818 46.0703 49.231 46.5586ZM68.85 59.5H51.4232C51.37 61.0477 50.3659 62 49.07 62H44.7C43.3567 62 42.3267 60.6352 42.3447 59.5H25.15C24.5175 59.5 24 60.0625 24 60.75V62C24 64.75 26.07 67 28.6 67H65.4C67.93 67 70 64.75 70 62V60.75C70 60.0625 69.4825 59.5 68.85 59.5ZM65.4 30.75C65.4 28.6875 63.8475 27 61.95 27H32.05C30.1525 27 28.6 28.6875 28.6 30.75V57H65.4V30.75ZM60.8 52H33.2V32H60.8V52Z" fill="black"/>
</svg>
