<svg width="94" height="94" viewBox="0 0 94 94" fill="none" xmlns="http://www.w3.org/2000/svg">
<circle cx="47" cy="47" r="47" fill="#FFE604"/>
<path d="M69.3826 25.716C69.3248 25.4471 69.1907 25.2007 68.9962 25.0062C68.8017 24.8118 68.5551 24.6776 68.2862 24.6199C65.3924 24 63.1287 24 60.873 24C51.5986 24 46.0358 28.9593 41.8848 35.4998H32.5206C31.7208 35.5005 30.937 35.7234 30.2567 36.1437C29.5764 36.564 29.0263 37.165 28.6679 37.8798L24.2267 46.7562C24.0626 47.085 23.9854 47.4503 24.0023 47.8173C24.0191 48.1844 24.1295 48.5411 24.323 48.8535C24.5165 49.1659 24.7866 49.4237 25.1078 49.6024C25.4289 49.7811 25.7904 49.8748 26.1579 49.8746H35.4835L33.4642 51.8934C32.925 52.4325 32.6221 53.1637 32.6221 53.9261C32.6221 54.6885 32.925 55.4196 33.4642 55.9588L38.0385 60.5326C38.3055 60.7997 38.6226 61.0115 38.9715 61.156C39.3205 61.3006 39.6945 61.3749 40.0722 61.3749C40.4499 61.3749 40.8239 61.3006 41.1728 61.156C41.5218 61.0115 41.8388 60.7997 42.1059 60.5326L44.1252 58.5139V67.8431C44.1251 68.2104 44.2189 68.5717 44.3976 68.8926C44.5763 69.2136 44.8341 69.4835 45.1464 69.6769C45.4588 69.8703 45.8154 69.9807 46.1824 69.9977C46.5495 70.0147 46.9147 69.9376 47.2436 69.7738L56.1136 65.3365C56.8297 64.9789 57.4319 64.4288 57.8526 63.748C58.2733 63.0671 58.4958 62.2825 58.4951 61.4823V52.1018C65.0186 47.9421 69.9982 42.3629 69.9982 33.137C70.0072 30.8729 70.0072 28.6089 69.3826 25.716ZM58.5041 39.0935C57.7931 39.0935 57.0981 38.8828 56.507 38.4879C55.9158 38.093 55.4551 37.5318 55.183 36.8751C54.9109 36.2184 54.8397 35.4959 54.9784 34.7987C55.1171 34.1016 55.4595 33.4613 55.9622 32.9587C56.465 32.4561 57.1055 32.1139 57.8028 31.9752C58.5001 31.8365 59.2229 31.9077 59.8797 32.1797C60.5366 32.4517 61.098 32.9123 61.493 33.5033C61.888 34.0943 62.0988 34.7891 62.0988 35.4998C62.0988 36.4529 61.7201 37.367 61.0459 38.041C60.3718 38.7149 59.4575 39.0935 58.5041 39.0935Z" fill="black"/>
</svg>
