<svg id="Layer_1" data-name="Layer 1" xmlns="http://www.w3.org/2000/svg" viewBox="0 0 3000 3000"><defs><style>.cls-1{fill:#ffde17;}.cls-2{fill:#fff;}.cls-3{fill:#231f20;}</style></defs><rect class="cls-1" x="116.56" y="930.92" width="2766.89" height="1138.15" rx="170.85"/><path class="cls-2" d="M760.65,1763.26c-162.55-14.83-246-87.5-287.79-147.9a225.84,225.84,0,0,1-39.71-128.65h0V1103.29a2.42,2.42,0,0,1,3.31-2.28c13.23,5.23,63.79,26.8,109.57,67.3C588.88,1206.23,613,1261,613,1318.15v197.74a265.34,265.34,0,0,0,1.89,33.93c17.49,135.46,123,199,146.43,211.54A1,1,0,0,1,760.65,1763.26Z"/><ellipse class="cls-2" cx="818.41" cy="1773.11" rx="34.62" ry="34.55"/><path class="cls-3" d="M944.43,1763.27V1365h92.94v323.17h199v75.1Z"/><path class="cls-3" d="M1445.59,1767.82q-48.46,0-86.37-20.48t-59.59-56q-21.66-35.55-21.66-81.07,0-46.1,21.66-81.65t59.59-55.75q37.9-20.19,86.37-20.2,49,0,87.24,20.2t59.86,55.75q21.66,35.57,21.67,81.65t-21.67,81.36q-21.68,35.28-59.86,55.76T1445.59,1767.82Zm0-72.83q22.8,0,40.2-10t27.94-29.31q10.55-19.34,10.54-45.51,0-26.74-10.54-45.52T1485.79,1536q-17.4-9.95-39.62-10t-39.92,10A73.38,73.38,0,0,0,1378,1564.7q-10.56,18.78-10.55,45.52,0,26.17,10.55,45.51t28.22,29.31A78.7,78.7,0,0,0,1445.59,1695Z"/><path class="cls-3" d="M1654.27,1532.27V1464h212.67v68.27Zm47.32,231V1450.34q0-52.33,30.79-83.06t87.8-30.73a174.17,174.17,0,0,1,37.06,4q18.24,4,30.79,12l-23.37,64.86a61,61,0,0,0-16.54-8,64.61,64.61,0,0,0-19.38-2.85q-19.4,0-29.94,10.81t-10.55,34.14v28.45l2.86,37.55v245.79Z"/><path class="cls-3" d="M1892,1532.27V1464h212.67v68.27Zm161.92,235.55q-54.17,0-84.38-27.6T1939.34,1658V1389.46h89.52V1656.3q0,19.35,10,30.16t27.09,10.81q21.66,0,36.49-11.38l23.37,62.58q-13.11,9.69-32.21,14.51A161.05,161.05,0,0,1,2053.94,1767.82Z"/><path class="cls-3" d="M2233,1878.2a154.58,154.58,0,0,1-46.76-7.4q-23.39-7.4-38.77-20.48l32.5-63.73a71.29,71.29,0,0,0,23.66,14.8,75.41,75.41,0,0,0,27.09,5.12q18.24,0,29.36-8.82t20.24-29.3l16-37.55,6.84-9.68,110.62-264h84.95L2360.11,1782q-14.84,37.56-33.92,58.32t-42.19,29.3Q2260.9,1878.19,2233,1878.2Zm52.45-103-136.27-318h91.23L2347,1713.77Z"/></svg>