<svg id="Layer_1" data-name="Layer 1" xmlns="http://www.w3.org/2000/svg" viewBox="0 0 3000 1200"><defs><style>.cls-1{fill:#ffde17;}.cls-2{fill:#231f20;}</style></defs><rect class="cls-1" x="116.56" y="30.63" width="2766.89" height="1138.15" rx="170.85"/><path class="cls-2" d="M760.65,863c-162.55-14.83-246-87.5-287.79-147.9a225.87,225.87,0,0,1-39.71-128.66h0V203a2.43,2.43,0,0,1,3.31-2.29C449.69,206,500.25,227.52,546,268,588.88,305.93,613,360.71,613,417.86V615.59a265.14,265.14,0,0,0,1.89,33.93c17.49,135.46,123,199,146.43,211.55A1,1,0,0,1,760.65,863Z"/><ellipse class="cls-2" cx="818.41" cy="872.82" rx="34.62" ry="34.55"/><path class="cls-2" d="M944.43,863V464.71h92.94V787.87h199V863Z"/><path class="cls-2" d="M1445.59,867.52q-48.46,0-86.37-20.48t-59.59-56Q1278,755.45,1278,709.92q0-46.08,21.66-81.64t59.59-55.76q37.9-20.19,86.37-20.2,49,0,87.24,20.2t59.86,55.76q21.66,35.57,21.67,81.64t-21.67,81.36Q1571,826.58,1532.83,847T1445.59,867.52Zm0-72.82q22.8,0,40.2-10t27.94-29.3q10.55-19.34,10.54-45.52,0-26.73-10.54-45.51t-27.94-28.73q-17.4-10-39.62-10t-39.92,10A73.38,73.38,0,0,0,1378,664.41q-10.56,18.76-10.55,45.51,0,26.19,10.55,45.52t28.22,29.3A78.71,78.71,0,0,0,1445.59,794.7Z"/><path class="cls-2" d="M1654.27,632V563.7h212.67V632Zm47.32,231V550.05q0-52.33,30.79-83.07t87.8-30.72a173.52,173.52,0,0,1,37.06,4q18.24,4,30.79,11.95l-23.37,64.86a61.34,61.34,0,0,0-16.54-8,64.93,64.93,0,0,0-19.38-2.84q-19.4,0-29.94,10.81t-10.55,34.14v28.44l2.86,37.55V863Z"/><path class="cls-2" d="M1892,632V563.7h212.67V632Zm161.92,235.54q-54.17,0-84.38-27.59t-30.22-82.21V489.17h89.52V756q0,19.35,10,30.15T2065.92,797q21.66,0,36.49-11.38l23.37,62.59q-13.11,9.68-32.21,14.51A161.05,161.05,0,0,1,2053.94,867.52Z"/><path class="cls-2" d="M2233,977.9a154.27,154.27,0,0,1-46.76-7.4q-23.39-7.39-38.77-20.48l32.5-63.72a71.1,71.1,0,0,0,23.66,14.79,75.2,75.2,0,0,0,27.09,5.12q18.24,0,29.36-8.82t20.24-29.3l16-37.55,6.84-9.67,110.62-264h84.95L2360.11,881.75q-14.84,37.54-33.92,58.32T2284,969.37Q2260.9,977.91,2233,977.9Zm52.45-103-136.27-318h91.23L2347,813.47Z"/></svg>