<svg width="94" height="94" viewBox="0 0 94 94" fill="none" xmlns="http://www.w3.org/2000/svg">
<circle cx="47" cy="47" r="47" fill="#FFE604"/>
<path d="M69.388 63.9054L60.6247 55.1435C60.2291 54.7481 59.693 54.5284 59.1304 54.5284H57.6977C60.1237 51.4261 61.5652 47.5242 61.5652 43.2795C61.5652 33.1818 53.382 25 43.2826 25C33.1832 25 25 33.1818 25 43.2795C25 53.3771 33.1832 61.5589 43.2826 61.5589C47.528 61.5589 51.4306 60.1177 54.5334 57.6921V59.1246C54.5334 59.687 54.7532 60.2231 55.1487 60.6186L63.912 69.3804C64.7383 70.2065 66.0743 70.2065 66.8917 69.3804L69.3792 66.8934C70.2055 66.0673 70.2055 64.7315 69.388 63.9054ZM43.2826 54.5284C37.0683 54.5284 32.0318 49.5015 32.0318 43.2795C32.0318 37.0662 37.0595 32.0306 43.2826 32.0306C49.4969 32.0306 54.5334 37.0574 54.5334 43.2795C54.5334 49.4927 49.5057 54.5284 43.2826 54.5284Z" fill="#232323"/>
</svg>
