<svg width="60" height="61" viewBox="0 0 60 61" fill="none" xmlns="http://www.w3.org/2000/svg">
<path d="M51.2093 46.3017C55.0537 41.4759 57.3638 35.3526 57.362 28.7097C57.3638 20.9184 54.1946 13.8351 49.0877 8.73348C43.9846 3.62563 36.9013 0.457232 29.1105 0.459107C21.3191 0.457232 14.2364 3.62563 9.13387 8.73348C4.02637 13.8351 0.857618 20.9184 0.859376 28.7097C0.857618 36.5001 4.02637 43.5834 9.13387 48.686C14.2364 53.7938 21.3193 56.9622 29.1106 56.9604C35.0811 56.9622 40.6315 55.0959 45.1982 51.9283L53.7303 60.4591L59.549 54.6404L51.2093 46.3017ZM44.5606 44.1602C40.5966 48.118 35.1543 50.5576 29.1105 50.5593C23.0666 50.5576 17.6243 48.118 13.6599 44.1602C9.70082 40.1953 7.26203 34.7534 7.26027 28.7097C7.26203 22.6659 9.70082 17.2241 13.6599 13.2593C17.6243 9.30067 23.0666 6.86188 29.1105 6.86012C35.1543 6.86188 40.5965 9.30067 44.5606 13.2593C48.5205 17.2241 50.9593 22.666 50.961 28.7097C50.9593 34.7536 48.5205 40.1953 44.5606 44.1602Z" fill="black"/>
<path d="M18.4774 28.0105L17.8099 27.9177C16.1039 27.6765 15.4917 27.0837 15.4917 26.212C15.4917 25.2289 16.1963 24.5243 17.476 24.5243C18.5328 24.5243 19.4785 24.8396 20.4987 25.5075C20.5912 25.5629 20.6841 25.5442 20.7581 25.4512L21.6484 24.0797C21.7226 23.968 21.7038 23.8939 21.6109 23.8197C20.6099 23.0599 19.1079 22.5588 17.5317 22.5588C14.9353 22.5588 13.2663 24.0795 13.2663 26.3604C13.2663 28.4553 14.6388 29.6243 17.0679 29.9573L17.7354 30.0501C19.4786 30.2913 20.0349 30.8851 20.0349 31.7933C20.0349 32.8506 19.1633 33.6105 17.6612 33.6105C16.2522 33.6105 15.0465 32.9247 14.2308 32.2755C14.1567 32.2015 14.0455 32.2015 13.9713 32.2943L12.8216 33.6293C12.7476 33.7221 12.7846 33.8328 12.8587 33.9079C13.8414 34.8348 15.6399 35.576 17.4947 35.576C20.6282 35.576 22.2419 33.9079 22.2419 31.6638C22.2419 29.4937 20.9063 28.3446 18.4774 28.0105Z" fill="black"/>
<path d="M32.4968 22.7625H24.5974C24.4862 22.7625 24.4121 22.8365 24.4121 22.9482V35.1867C24.4121 35.2984 24.4862 35.3724 24.5974 35.3724H32.4968C32.6084 35.3724 32.6825 35.2984 32.6825 35.1867V33.5927C32.6825 33.4811 32.6084 33.4069 32.4968 33.4069H26.7114L26.6002 33.2953V30.1064L26.7114 29.9948H31.5881C31.6998 29.9948 31.7739 29.9206 31.7739 29.8089V28.2141C31.7739 28.1034 31.6998 28.0293 31.5881 28.0293H26.7114L26.6002 27.9176V24.8396L26.7114 24.7289H32.4968C32.6084 24.7289 32.6825 24.6539 32.6825 24.5431V22.9482C32.6825 22.8365 32.6084 22.7625 32.4968 22.7625Z" fill="black"/>
<path d="M39.3975 22.5588C37.2279 22.5588 35.596 23.5974 34.9473 25.6003C34.6873 26.379 34.6133 27.0837 34.6133 29.0678C34.6133 31.052 34.6873 31.7565 34.9473 32.5352C35.596 34.5382 37.228 35.5759 39.3975 35.5759C41.5862 35.5759 43.2167 34.5382 43.8669 32.5352C44.1259 31.7565 44.2009 31.052 44.2009 29.0678C44.2009 27.0835 44.1259 26.379 43.8669 25.6003C43.2167 23.5974 41.5861 22.5588 39.3975 22.5588ZM41.7522 31.9603C41.4003 32.9801 40.6592 33.6105 39.3973 33.6105C38.1552 33.6105 37.4131 32.9801 37.0609 31.9603C36.9126 31.4968 36.8384 30.8476 36.8384 29.0679C36.8384 27.2685 36.9126 26.6381 37.0609 26.1745C37.4132 25.1547 38.1553 24.5243 39.3973 24.5243C40.6592 24.5243 41.4003 25.1547 41.7522 26.1745C41.9005 26.638 41.9754 27.2685 41.9754 29.0679C41.9755 30.8476 41.9005 31.4967 41.7522 31.9603Z" fill="black"/>
</svg>
