<svg width="1440" height="900" viewBox="0 0 1440 900" fill="none" xmlns="http://www.w3.org/2000/svg">
<g clip-path="url(#clip0_446_26)">
<rect width="1440" height="900" fill="#FFFEFB"/>
<path d="M1321.23 233.647C1440 139.277 1440 0 1440 0V904C1440 904 1440 700.291 1321.23 635.859C1202.47 571.427 920.158 571.427 870.186 536.282C820.214 501.138 741.037 421.737 870.186 347.542C999.335 273.348 1202.47 328.017 1321.23 233.647Z" fill="#F8F6ED"/>
<g style="mix-blend-mode:multiply" opacity="0.4">
<path style="mix-blend-mode:multiply" opacity="0.4" d="M606.288 753.701C606.285 753.275 606.372 752.852 606.544 752.457C606.716 752.062 606.97 751.703 607.292 751.399C607.613 751.096 607.996 750.854 608.417 750.689C608.839 750.523 609.292 750.436 609.749 750.433C610.669 750.427 611.555 750.761 612.212 751.361C612.869 751.961 613.245 752.779 613.257 753.637V753.637C613.263 754.063 613.179 754.486 613.01 754.882C612.84 755.278 612.589 755.639 612.269 755.945C611.95 756.25 611.569 756.494 611.149 756.663C610.728 756.831 610.276 756.921 609.819 756.926C609.359 756.932 608.903 756.853 608.476 756.694C608.05 756.535 607.661 756.298 607.333 755.999C607.005 755.699 606.743 755.342 606.564 754.947C606.385 754.553 606.291 754.13 606.288 753.701ZM595.787 756.861C595.32 756.85 594.861 756.753 594.435 756.574C594.009 756.395 593.626 756.139 593.308 755.82C592.99 755.502 592.743 755.128 592.582 754.719C592.422 754.311 592.35 753.876 592.372 753.442C592.384 753.015 592.486 752.595 592.673 752.206C592.859 751.816 593.126 751.465 593.458 751.171C593.79 750.878 594.181 750.648 594.609 750.495C595.036 750.343 595.492 750.27 595.95 750.282V750.282C596.407 750.29 596.859 750.383 597.278 750.554C597.697 750.725 598.076 750.971 598.394 751.278C598.711 751.586 598.96 751.949 599.126 752.346C599.293 752.743 599.374 753.167 599.365 753.593V753.593C599.34 754.445 598.96 755.254 598.305 755.848C597.65 756.443 596.771 756.775 595.857 756.775L595.787 756.861ZM620.203 753.442C620.181 753.016 620.25 752.591 620.406 752.191C620.561 751.79 620.8 751.423 621.109 751.109C621.418 750.795 621.791 750.541 622.205 750.362C622.62 750.183 623.069 750.082 623.525 750.065V750.065C624.448 750.03 625.349 750.335 626.032 750.915C626.715 751.494 627.125 752.301 627.173 753.16V753.16C627.204 754.02 626.871 754.857 626.244 755.489C625.618 756.121 624.75 756.497 623.827 756.537H623.665C622.77 756.537 621.91 756.216 621.265 755.639C620.62 755.062 620.239 754.274 620.203 753.442V753.442ZM581.755 756.277C581.297 756.252 580.849 756.143 580.437 755.957C580.024 755.77 579.655 755.51 579.35 755.19C579.046 754.87 578.813 754.498 578.663 754.094C578.514 753.69 578.451 753.262 578.48 752.836V752.836C578.534 751.978 578.95 751.175 579.638 750.603C580.326 750.031 581.229 749.737 582.15 749.784V749.784C583.071 749.84 583.93 750.233 584.54 750.878C585.15 751.523 585.46 752.367 585.403 753.225V753.225C585.349 754.052 584.959 754.829 584.311 755.396C583.663 755.963 582.807 756.279 581.918 756.277H581.709H581.755ZM634.096 752.836C634.061 752.41 634.117 751.983 634.261 751.578C634.405 751.173 634.634 750.798 634.934 750.476C635.234 750.154 635.6 749.891 636.011 749.701C636.421 749.512 636.868 749.4 637.325 749.373V749.373C637.781 749.343 638.24 749.399 638.673 749.535C639.107 749.672 639.507 749.888 639.851 750.17C640.194 750.451 640.474 750.794 640.675 751.177C640.875 751.561 640.992 751.977 641.019 752.403V752.403C641.076 753.261 640.766 754.105 640.156 754.75C639.546 755.395 638.687 755.789 637.766 755.844H637.557C636.687 755.842 635.849 755.536 635.209 754.988C634.568 754.439 634.171 753.687 634.096 752.879V752.836ZM567.77 755.217C567.314 755.176 566.872 755.052 566.469 754.851C566.065 754.65 565.708 754.377 565.419 754.047C565.129 753.717 564.913 753.336 564.782 752.928C564.651 752.519 564.609 752.091 564.657 751.667V751.667C564.7 751.243 564.834 750.831 565.049 750.455C565.265 750.079 565.558 749.746 565.913 749.476C566.267 749.207 566.675 749.005 567.113 748.883C567.552 748.762 568.012 748.722 568.467 748.767C568.922 748.807 569.365 748.931 569.768 749.132C570.172 749.333 570.529 749.606 570.818 749.937C571.108 750.267 571.324 750.647 571.455 751.055C571.586 751.464 571.628 751.892 571.58 752.316V752.316C571.494 753.116 571.092 753.858 570.452 754.398C569.813 754.937 568.981 755.237 568.118 755.238H567.77V755.217ZM647.965 751.883C647.887 751.029 648.176 750.18 648.768 749.523C649.36 748.866 650.207 748.454 651.124 748.377C651.58 748.338 652.04 748.384 652.478 748.511C652.915 748.638 653.321 748.844 653.673 749.117C654.024 749.391 654.315 749.726 654.527 750.104C654.74 750.482 654.87 750.896 654.911 751.321V751.321C654.982 752.18 654.689 753.031 654.094 753.691C653.498 754.35 652.649 754.766 651.728 754.849H651.426C650.563 754.847 649.732 754.548 649.092 754.008C648.453 753.468 648.051 752.727 647.965 751.927V751.883ZM553.808 753.593C552.891 753.465 552.066 753.003 551.513 752.31C550.96 751.616 550.724 750.747 550.857 749.892V749.892C550.926 749.47 551.082 749.064 551.319 748.698C551.556 748.333 551.867 748.014 552.236 747.761C552.605 747.507 553.025 747.324 553.47 747.222C553.915 747.12 554.377 747.101 554.83 747.165C555.283 747.229 555.719 747.375 556.111 747.595C556.504 747.816 556.846 748.106 557.118 748.45C557.39 748.794 557.586 749.184 557.696 749.599C557.806 750.013 557.826 750.444 557.757 750.866V750.866C557.634 751.633 557.219 752.333 556.588 752.837C555.956 753.342 555.151 753.618 554.319 753.615H553.808V753.593ZM661.811 750.693C661.713 749.838 661.984 748.982 662.563 748.312C663.142 747.642 663.983 747.214 664.901 747.122V747.122C665.356 747.074 665.816 747.11 666.256 747.229C666.696 747.348 667.106 747.548 667.462 747.815C667.819 748.083 668.115 748.414 668.333 748.789C668.551 749.164 668.687 749.576 668.734 750V750C668.785 750.424 668.746 750.854 668.618 751.263C668.49 751.673 668.277 752.055 667.989 752.387C667.702 752.719 667.347 752.995 666.944 753.198C666.541 753.402 666.1 753.528 665.644 753.572H665.272C664.424 753.573 663.604 753.285 662.967 752.763C662.329 752.241 661.918 751.521 661.811 750.736V750.693ZM675.75 749.243C675.644 748.389 675.905 747.53 676.475 746.853C677.044 746.177 677.877 745.737 678.793 745.628C679.248 745.577 679.709 745.61 680.15 745.724C680.591 745.839 681.003 746.034 681.364 746.297C681.724 746.56 682.025 746.887 682.25 747.259C682.474 747.631 682.618 748.04 682.673 748.464V748.464C682.728 748.887 682.693 749.317 682.57 749.728C682.447 750.139 682.238 750.523 681.955 750.859C681.672 751.194 681.322 751.475 680.922 751.684C680.523 751.893 680.084 752.027 679.629 752.078H679.211C678.334 752.13 677.469 751.871 676.788 751.353C676.107 750.835 675.662 750.097 675.541 749.286L675.75 749.243ZM540.055 751.407C539.605 751.327 539.177 751.165 538.795 750.929C538.414 750.694 538.086 750.39 537.831 750.036C537.576 749.681 537.399 749.284 537.31 748.865C537.221 748.447 537.222 748.016 537.314 747.598V747.598C537.402 747.178 537.579 746.779 537.834 746.423C538.089 746.067 538.417 745.762 538.8 745.524C539.182 745.287 539.61 745.122 540.061 745.04C540.512 744.958 540.975 744.959 541.425 745.044C541.874 745.129 542.3 745.296 542.68 745.534C543.059 745.773 543.384 746.079 543.636 746.435C543.889 746.791 544.064 747.189 544.151 747.608C544.238 748.027 544.235 748.457 544.144 748.875V748.875C543.983 749.608 543.555 750.267 542.933 750.741C542.311 751.214 541.532 751.472 540.729 751.472V751.472L540.055 751.407ZM689.549 747.728C689.487 747.304 689.515 746.873 689.633 746.46C689.75 746.046 689.953 745.659 690.232 745.319C690.51 744.979 690.858 744.694 691.255 744.479C691.652 744.265 692.091 744.126 692.546 744.07V744.07C693.001 744.009 693.465 744.033 693.91 744.141C694.355 744.249 694.772 744.439 695.138 744.699C695.503 744.959 695.809 745.284 696.038 745.655C696.268 746.027 696.415 746.437 696.472 746.862V746.862C696.534 747.283 696.506 747.711 696.39 748.122C696.274 748.532 696.073 748.918 695.796 749.256C695.52 749.594 695.175 749.877 694.78 750.091C694.386 750.304 693.95 750.442 693.498 750.498V750.498H693.011C692.154 750.516 691.32 750.239 690.668 749.72C690.017 749.201 689.593 748.476 689.479 747.685L689.549 747.728ZM703.325 745.953C703.256 745.531 703.277 745.1 703.387 744.686C703.496 744.271 703.693 743.88 703.965 743.537C704.237 743.193 704.579 742.902 704.971 742.682C705.364 742.462 705.799 742.315 706.252 742.252V742.252C707.167 742.128 708.097 742.344 708.84 742.855C709.584 743.365 710.082 744.129 710.225 744.979V744.979C710.359 745.831 710.126 746.697 709.578 747.39C709.03 748.083 708.211 748.547 707.298 748.68H706.764C705.908 748.709 705.072 748.443 704.415 747.931C703.759 747.419 703.329 746.699 703.209 745.91L703.325 745.953ZM526.302 748.485C525.409 748.267 524.645 747.727 524.179 746.984C523.713 746.241 523.583 745.357 523.816 744.525V744.525C523.927 744.111 524.125 743.723 524.398 743.381C524.671 743.04 525.014 742.752 525.407 742.535C525.8 742.318 526.236 742.175 526.688 742.115C527.141 742.056 527.602 742.08 528.044 742.187V742.187C528.489 742.293 528.906 742.48 529.273 742.736C529.639 742.993 529.948 743.314 530.181 743.682C530.414 744.05 530.567 744.457 530.631 744.88C530.695 745.304 530.668 745.734 530.553 746.148C530.362 746.844 529.926 747.46 529.316 747.899C528.706 748.338 527.956 748.575 527.185 748.572V748.572C526.847 748.569 526.511 748.525 526.186 748.442L526.302 748.485ZM717.078 743.94C716.998 743.522 717.007 743.094 717.105 742.679C717.203 742.265 717.388 741.872 717.649 741.524C717.91 741.176 718.243 740.88 718.627 740.652C719.012 740.424 719.44 740.269 719.889 740.196V740.196C720.341 740.121 720.804 740.13 721.252 740.223C721.7 740.315 722.123 740.489 722.499 740.734C722.875 740.979 723.194 741.291 723.44 741.652C723.686 742.013 723.853 742.415 723.932 742.836C724.087 743.683 723.876 744.552 723.344 745.254C722.813 745.956 722.005 746.433 721.097 746.581V746.581C720.897 746.602 720.694 746.602 720.493 746.581C719.655 746.612 718.832 746.356 718.182 745.862C717.532 745.368 717.098 744.669 716.962 743.897L717.078 743.94ZM512.758 744.806C512.315 744.682 511.903 744.478 511.546 744.205C511.188 743.931 510.893 743.595 510.677 743.214C510.46 742.833 510.328 742.416 510.286 741.987C510.245 741.558 510.295 741.126 510.435 740.715V740.715C510.565 740.301 510.782 739.915 511.075 739.581C511.368 739.246 511.729 738.97 512.139 738.768C512.548 738.566 512.997 738.443 513.459 738.406C513.92 738.368 514.385 738.418 514.826 738.551V738.551C515.268 738.674 515.681 738.879 516.038 739.152C516.395 739.425 516.691 739.762 516.907 740.143C517.123 740.524 517.256 740.941 517.297 741.37C517.339 741.799 517.288 742.231 517.149 742.642V742.642C516.903 743.278 516.452 743.828 515.857 744.216C515.262 744.604 514.553 744.81 513.827 744.806V744.806C513.433 744.863 513.032 744.856 512.642 744.784L512.758 744.806ZM730.738 741.624C730.559 740.778 730.744 739.901 731.252 739.18C731.76 738.46 732.552 737.954 733.456 737.772V737.772C734.362 737.605 735.301 737.778 736.07 738.252C736.84 738.726 737.378 739.463 737.568 740.304V740.304C737.664 740.721 737.669 741.15 737.585 741.569C737.501 741.988 737.328 742.386 737.078 742.743C736.827 743.099 736.503 743.405 736.125 743.644C735.747 743.883 735.322 744.05 734.874 744.135V744.135C734.634 744.156 734.393 744.156 734.153 744.135V744.135C733.337 744.163 732.536 743.922 731.89 743.455C731.245 742.988 730.796 742.325 730.622 741.581L730.738 741.624ZM744.352 738.854C744.237 738.442 744.211 738.012 744.275 737.591C744.339 737.169 744.492 736.763 744.725 736.397C744.959 736.031 745.268 735.711 745.634 735.457C746.001 735.203 746.418 735.018 746.861 734.915V734.915C747.76 734.711 748.709 734.843 749.504 735.285C750.3 735.726 750.877 736.44 751.112 737.274C751.223 737.689 751.245 738.12 751.177 738.543C751.108 738.966 750.951 739.372 750.713 739.738C750.476 740.104 750.163 740.423 749.793 740.676C749.423 740.929 749.003 741.112 748.557 741.213C748.284 741.281 748.003 741.317 747.721 741.321V741.321C746.918 741.341 746.133 741.101 745.498 740.644C744.864 740.187 744.418 739.539 744.236 738.811L744.352 738.854ZM499.33 740.456C498.904 740.298 498.516 740.064 498.187 739.767C497.859 739.469 497.596 739.114 497.415 738.722C497.234 738.33 497.137 737.909 497.131 737.482C497.125 737.055 497.209 736.631 497.379 736.235C497.545 735.839 497.794 735.478 498.111 735.172C498.428 734.866 498.807 734.621 499.226 734.452C499.645 734.283 500.096 734.193 500.552 734.187C501.008 734.181 501.462 734.259 501.886 734.417V734.417C502.744 734.731 503.434 735.349 503.804 736.136C504.174 736.923 504.195 737.815 503.86 738.616C503.603 739.224 503.155 739.745 502.575 740.112C501.995 740.479 501.309 740.674 500.608 740.672C500.171 740.674 499.738 740.601 499.33 740.456V740.456ZM757.664 735.629C757.396 734.805 757.49 733.916 757.926 733.157C758.362 732.398 759.103 731.832 759.987 731.582V731.582C760.425 731.455 760.885 731.411 761.341 731.451C761.797 731.492 762.24 731.617 762.644 731.818C763.049 732.019 763.406 732.293 763.695 732.624C763.985 732.955 764.201 733.337 764.331 733.746V733.746C764.599 734.573 764.506 735.464 764.07 736.227C763.635 736.989 762.894 737.56 762.008 737.815C761.683 737.901 761.347 737.944 761.009 737.945V737.945C760.243 737.94 759.5 737.699 758.895 737.261C758.291 736.823 757.858 736.211 757.664 735.521V735.629ZM486.344 735.174C485.517 734.797 484.884 734.129 484.584 733.318C484.283 732.507 484.34 731.618 484.741 730.846V730.846C485.146 730.075 485.863 729.486 486.733 729.206C487.604 728.926 488.558 728.979 489.387 729.352C490.218 729.726 490.856 730.392 491.161 731.203C491.466 732.015 491.413 732.906 491.013 733.681V733.681C490.725 734.233 490.276 734.699 489.717 735.024C489.159 735.349 488.513 735.522 487.854 735.521V735.521C487.32 735.479 486.803 735.323 486.344 735.066V735.174ZM770.929 731.69C770.605 730.883 770.639 729.99 771.022 729.207C771.406 728.423 772.108 727.814 772.973 727.513V727.513C773.403 727.364 773.861 727.296 774.319 727.312C774.777 727.329 775.228 727.429 775.644 727.608C776.061 727.787 776.435 728.041 776.746 728.355C777.058 728.669 777.299 729.038 777.457 729.439C777.616 729.838 777.689 730.263 777.671 730.688C777.653 731.114 777.545 731.532 777.352 731.918C777.16 732.304 776.888 732.651 776.551 732.939C776.214 733.227 775.819 733.45 775.389 733.594V733.594C775.006 733.741 774.595 733.814 774.181 733.811C773.458 733.8 772.756 733.579 772.173 733.18C771.59 732.78 771.155 732.222 770.929 731.582V731.69ZM473.845 728.941C473.448 728.728 473.1 728.444 472.822 728.105C472.543 727.766 472.34 727.379 472.223 726.967C472.107 726.554 472.079 726.124 472.142 725.701C472.205 725.278 472.358 724.872 472.591 724.504V724.504C473.056 723.761 473.819 723.221 474.712 723.002C475.605 722.783 476.555 722.903 477.353 723.335C478.115 723.772 478.67 724.463 478.903 725.268C479.136 726.072 479.031 726.93 478.608 727.664V727.664C478.3 728.156 477.859 728.565 477.33 728.85C476.8 729.135 476.199 729.286 475.588 729.287C474.973 729.288 474.37 729.131 473.845 728.833V728.941ZM783.892 726.993C783.698 726.603 783.589 726.18 783.572 725.751C783.555 725.321 783.629 724.892 783.791 724.489C783.953 724.087 784.2 723.718 784.516 723.405C784.833 723.091 785.213 722.84 785.634 722.664C786.053 722.484 786.507 722.382 786.968 722.366C787.429 722.35 787.889 722.42 788.322 722.571C788.754 722.722 789.15 722.951 789.486 723.246C789.822 723.541 790.092 723.895 790.281 724.288V724.288C790.475 724.677 790.585 725.098 790.604 725.527C790.623 725.956 790.55 726.384 790.39 726.786C790.231 727.189 789.987 727.558 789.673 727.872C789.359 728.186 788.981 728.439 788.561 728.616V728.616C788.108 728.805 787.617 728.901 787.121 728.898C786.431 728.893 785.757 728.7 785.183 728.342C784.609 727.985 784.16 727.478 783.892 726.885V726.993ZM796.507 721.474C796.093 720.713 796.019 719.83 796.302 719.019C796.585 718.208 797.202 717.534 798.017 717.145C798.834 716.765 799.78 716.7 800.649 716.963C801.518 717.226 802.241 717.797 802.663 718.552C803.071 719.314 803.141 720.195 802.858 721.004C802.576 721.814 801.964 722.488 801.153 722.881C800.664 723.116 800.123 723.242 799.573 723.249V723.249C798.925 723.23 798.296 723.043 797.754 722.711C797.213 722.379 796.781 721.913 796.507 721.366V721.474ZM461.974 721.842C461.598 721.601 461.276 721.294 461.028 720.937C460.779 720.58 460.609 720.181 460.527 719.762C460.445 719.344 460.453 718.914 460.549 718.499C460.646 718.083 460.83 717.689 461.091 717.34V717.34C461.35 716.989 461.68 716.69 462.063 716.458C462.446 716.227 462.874 716.068 463.324 715.992C463.773 715.915 464.234 715.923 464.68 716.013C465.126 716.103 465.549 716.275 465.923 716.518V716.518C466.682 717.004 467.204 717.751 467.374 718.594C467.544 719.438 467.348 720.31 466.829 721.019C466.505 721.452 466.075 721.805 465.573 722.05C465.072 722.295 464.515 722.424 463.949 722.426V722.426C463.173 722.423 462.421 722.18 461.811 721.734L461.974 721.842ZM808.912 715.349C808.68 714.98 808.529 714.572 808.467 714.149C808.406 713.725 808.436 713.294 808.554 712.881C808.673 712.468 808.879 712.082 809.16 711.744C809.441 711.406 809.791 711.123 810.19 710.912V710.912C810.988 710.479 811.938 710.359 812.831 710.578C813.724 710.797 814.487 711.338 814.952 712.081V712.081C815.181 712.45 815.33 712.858 815.39 713.281C815.45 713.704 815.419 714.134 815.301 714.546C815.182 714.958 814.977 715.344 814.698 715.683C814.419 716.021 814.071 716.305 813.675 716.518V716.518C813.148 716.812 812.546 716.969 811.932 716.972V716.972C811.298 716.982 810.672 716.829 810.123 716.532C809.575 716.234 809.124 715.803 808.819 715.284L808.912 715.349ZM450.637 713.877C450.279 713.61 449.981 713.28 449.762 712.905C449.542 712.53 449.404 712.118 449.357 711.693C449.309 711.268 449.353 710.839 449.485 710.43C449.617 710.021 449.835 709.64 450.126 709.31V709.31C450.414 708.979 450.77 708.704 451.172 708.501C451.575 708.298 452.016 708.17 452.471 708.126C452.926 708.082 453.386 708.122 453.825 708.243C454.264 708.365 454.672 708.566 455.028 708.834V708.834C455.74 709.38 456.194 710.165 456.289 711.02C456.385 711.875 456.115 712.73 455.539 713.401V713.401C455.212 713.78 454.798 714.085 454.328 714.295C453.857 714.505 453.342 714.613 452.821 714.613V714.613C451.982 714.616 451.172 714.33 450.544 713.812L450.637 713.877ZM820.876 708.683C820.362 707.968 820.174 707.092 820.353 706.248C820.531 705.404 821.062 704.66 821.829 704.181V704.181C822.596 703.702 823.536 703.526 824.442 703.693C825.348 703.859 826.146 704.354 826.661 705.068V705.068C827.169 705.785 827.354 706.659 827.175 707.501C826.997 708.343 826.47 709.087 825.709 709.57V709.57C825.131 709.93 824.452 710.126 823.757 710.133C823.164 710.139 822.578 710.003 822.058 709.737C821.537 709.472 821.098 709.087 820.783 708.618L820.876 708.683ZM439.881 705.176C439.21 704.585 438.818 703.769 438.792 702.909C438.765 702.049 439.107 701.214 439.742 700.588V700.588C440.379 699.967 441.254 699.606 442.176 699.582C443.097 699.557 443.992 699.872 444.667 700.458V700.458C445.338 701.049 445.73 701.865 445.756 702.725C445.782 703.586 445.44 704.421 444.806 705.046V705.046C444.478 705.364 444.085 705.616 443.65 705.787C443.214 705.958 442.746 706.045 442.274 706.042V706.042C441.376 706.037 440.516 705.703 439.881 705.111V705.176ZM832.19 701.237C831.602 700.574 831.321 699.72 831.408 698.864C831.496 698.008 831.944 697.219 832.655 696.67V696.67C833.367 696.123 834.283 695.861 835.202 695.942C836.121 696.023 836.968 696.441 837.556 697.103V697.103C837.85 697.43 838.072 697.809 838.208 698.216C838.343 698.624 838.391 699.052 838.348 699.477C838.305 699.902 838.171 700.314 837.956 700.691C837.74 701.067 837.447 701.4 837.092 701.67V701.67C836.441 702.176 835.616 702.445 834.769 702.428V702.428C834.267 702.407 833.775 702.283 833.33 702.067C832.884 701.85 832.495 701.544 832.19 701.172V701.237ZM429.961 695.74C429.347 695.097 429.03 694.255 429.077 693.397C429.125 692.538 429.535 691.731 430.217 691.151V691.151C430.555 690.863 430.952 690.64 431.384 690.495C431.816 690.351 432.274 690.288 432.733 690.31C433.191 690.332 433.64 690.439 434.054 690.624C434.467 690.809 434.837 691.07 435.142 691.389C435.452 691.705 435.691 692.074 435.846 692.477C436.001 692.879 436.069 693.306 436.045 693.733C436.021 694.16 435.906 694.579 435.707 694.964C435.508 695.349 435.229 695.694 434.886 695.978C434.247 696.509 433.42 696.801 432.563 696.8V696.8C432.069 696.79 431.583 696.685 431.136 696.491C430.688 696.297 430.288 696.019 429.961 695.675V695.74ZM842.574 692.58C842.211 692.321 841.906 691.998 841.678 691.628C841.45 691.259 841.302 690.852 841.244 690.429C841.185 690.006 841.217 689.577 841.338 689.166C841.459 688.755 841.666 688.37 841.947 688.034C842.512 687.356 843.343 686.913 844.257 686.803C845.171 686.694 846.095 686.926 846.826 687.45V687.45C847.19 687.711 847.495 688.036 847.724 688.407C847.953 688.778 848.1 689.188 848.159 689.612C848.217 690.036 848.185 690.467 848.064 690.88C847.942 691.293 847.735 691.679 847.453 692.017V692.017C847.125 692.408 846.705 692.724 846.226 692.942C845.747 693.159 845.221 693.272 844.689 693.272C843.91 693.258 843.162 692.99 842.574 692.515V692.58ZM420.901 685.567C420.344 684.881 420.102 684.017 420.228 683.165C420.355 682.312 420.839 681.542 421.575 681.022V681.022C421.937 680.761 422.351 680.57 422.793 680.459C423.235 680.348 423.696 680.32 424.15 680.376C424.603 680.433 425.041 680.572 425.436 680.787C425.831 681.002 426.177 681.288 426.453 681.628C427.007 682.314 427.249 683.174 427.127 684.025C427.005 684.875 426.53 685.647 425.803 686.173V686.173C425.194 686.604 424.453 686.839 423.689 686.844V686.844C423.144 686.839 422.608 686.715 422.123 686.482C421.639 686.249 421.221 685.913 420.901 685.502V685.567ZM846.175 678.619C846.071 677.764 846.335 676.905 846.91 676.232C847.485 675.558 848.324 675.124 849.242 675.027V675.027C850.16 674.929 851.082 675.175 851.805 675.711C852.528 676.247 852.993 677.028 853.098 677.884C853.203 678.739 852.939 679.598 852.363 680.272C851.788 680.945 850.95 681.379 850.032 681.476H849.637C848.775 681.47 847.947 681.169 847.308 680.63C846.67 680.091 846.267 679.353 846.175 678.555V678.619ZM412.793 674.659C412.545 674.302 412.376 673.902 412.296 673.484C412.215 673.065 412.225 672.636 412.324 672.221C412.424 671.806 412.611 671.413 412.875 671.066C413.139 670.719 413.474 670.425 413.862 670.2V670.2C414.247 669.969 414.677 669.811 415.128 669.735C415.58 669.66 416.042 669.669 416.49 669.762C416.937 669.854 417.36 670.029 417.734 670.275C418.109 670.521 418.427 670.834 418.671 671.196V671.196C419.166 671.922 419.332 672.802 419.132 673.642C418.931 674.482 418.381 675.214 417.602 675.676C417.046 676.004 416.401 676.177 415.744 676.174V676.174C415.154 676.176 414.573 676.038 414.057 675.773C413.541 675.508 413.106 675.124 412.793 674.659V674.659ZM839.02 670.698C838.667 670.426 838.375 670.092 838.162 669.715C837.949 669.338 837.817 668.925 837.776 668.5C837.735 668.076 837.785 667.647 837.923 667.241C838.061 666.834 838.283 666.457 838.579 666.131V666.131C838.87 665.802 839.229 665.531 839.634 665.332C840.038 665.133 840.482 665.011 840.937 664.972C841.393 664.934 841.853 664.981 842.289 665.109C842.726 665.237 843.131 665.445 843.481 665.72V665.72C843.834 665.991 844.125 666.325 844.339 666.703C844.552 667.08 844.683 667.493 844.724 667.917C844.765 668.342 844.715 668.77 844.578 669.177C844.44 669.584 844.217 669.961 843.922 670.287V670.287C843.599 670.655 843.191 670.952 842.729 671.154C842.266 671.356 841.761 671.459 841.25 671.455V671.455C840.435 671.452 839.646 671.184 839.02 670.698V670.698ZM405.731 663.144C405.323 662.382 405.253 661.502 405.535 660.692C405.818 659.882 406.43 659.208 407.241 658.816C408.062 658.443 409.008 658.384 409.875 658.651C410.743 658.917 411.465 659.489 411.887 660.244V660.244C412.301 661.005 412.375 661.888 412.092 662.699C411.809 663.51 411.192 664.184 410.377 664.573V664.573C409.892 664.818 409.349 664.945 408.797 664.941V664.941C408.158 664.934 407.533 664.763 406.992 664.446C406.45 664.129 406.014 663.678 405.731 663.144V663.144ZM828.264 661.543C827.684 660.871 827.409 660.014 827.501 659.155C827.592 658.297 828.041 657.507 828.752 656.954V656.954C829.476 656.416 830.398 656.164 831.319 656.253C832.24 656.342 833.087 656.765 833.677 657.43V657.43C833.969 657.759 834.189 658.138 834.323 658.547C834.457 658.955 834.503 659.384 834.457 659.809C834.412 660.234 834.276 660.646 834.059 661.021C833.841 661.397 833.545 661.729 833.189 661.997V661.997C832.538 662.5 831.711 662.762 830.866 662.733V662.733C830.366 662.722 829.874 662.609 829.425 662.404C828.976 662.198 828.579 661.904 828.264 661.543V661.543ZM399.876 651.067C399.541 650.263 399.561 649.368 399.931 648.578C400.301 647.787 400.991 647.165 401.851 646.847V646.847C402.711 646.535 403.668 646.554 404.513 646.899C405.357 647.244 406.021 647.886 406.358 648.686C406.53 649.082 406.615 649.506 406.609 649.933C406.602 650.36 406.504 650.782 406.32 651.173C406.136 651.564 405.87 651.917 405.537 652.211C405.205 652.505 404.812 652.735 404.383 652.885V652.885C403.985 653.037 403.559 653.117 403.129 653.123V653.123C402.428 653.125 401.742 652.93 401.162 652.563C400.582 652.196 400.134 651.675 399.876 651.067V651.067ZM821.689 648.751C821.43 647.933 821.528 647.053 821.963 646.302C822.399 645.552 823.136 644.993 824.013 644.747V644.747C824.891 644.505 825.836 644.597 826.641 645.002C827.447 645.408 828.047 646.094 828.31 646.911V646.911C828.57 647.729 828.472 648.61 828.036 649.361C827.601 650.111 826.864 650.67 825.987 650.916V650.916C825.678 651.001 825.357 651.045 825.035 651.045V651.045C824.287 651.048 823.558 650.827 822.955 650.413C822.353 650 821.909 649.417 821.689 648.751V648.751ZM395.393 638.449C395.14 637.634 395.242 636.759 395.677 636.013C396.112 635.268 396.844 634.712 397.716 634.466C398.157 634.352 398.618 634.32 399.072 634.372C399.526 634.424 399.965 634.56 400.362 634.772C400.76 634.983 401.108 635.266 401.388 635.603C401.667 635.941 401.872 636.327 401.99 636.739V636.739C402.233 637.568 402.112 638.453 401.655 639.2C401.197 639.946 400.441 640.494 399.551 640.721V640.721C399.247 640.789 398.935 640.826 398.622 640.83C397.881 640.807 397.167 640.564 396.586 640.135C396.005 639.707 395.586 639.115 395.393 638.449ZM819.575 635.094C819.569 634.667 819.654 634.243 819.825 633.847C819.997 633.45 820.251 633.09 820.573 632.786C820.895 632.482 821.278 632.24 821.701 632.075C822.124 631.911 822.578 631.826 823.037 631.826V631.826C823.494 631.823 823.948 631.904 824.372 632.065C824.796 632.225 825.182 632.462 825.508 632.761C825.833 633.061 826.093 633.417 826.271 633.81C826.449 634.203 826.542 634.624 826.545 635.051V635.051C826.545 635.914 826.178 636.742 825.526 637.354C824.873 637.966 823.986 638.313 823.06 638.319V638.319C822.14 638.319 821.257 637.98 820.604 637.376C819.951 636.772 819.582 635.951 819.575 635.094V635.094ZM392.326 625.419C392.193 624.568 392.425 623.701 392.973 623.008C393.521 622.315 394.341 621.852 395.253 621.718V621.718C396.165 621.588 397.095 621.799 397.84 622.306C398.585 622.813 399.083 623.575 399.226 624.424V624.424C399.366 625.279 399.137 626.151 398.588 626.849C398.039 627.546 397.216 628.013 396.299 628.146H395.788C394.97 628.132 394.183 627.851 393.564 627.353C392.944 626.855 392.531 626.171 392.396 625.419H392.326ZM823.92 625.419C823.044 625.164 822.311 624.6 821.877 623.848C821.443 623.095 821.342 622.214 821.597 621.394C821.604 621.343 821.604 621.292 821.597 621.242C821.594 621.192 821.594 621.141 821.597 621.091C821.87 620.275 822.476 619.592 823.283 619.188C824.091 618.783 825.037 618.689 825.918 618.926C826.798 619.181 827.535 619.749 827.97 620.506C828.405 621.263 828.502 622.15 828.241 622.974V622.974C828.227 623.023 828.227 623.075 828.241 623.125C828.241 623.125 828.241 623.125 828.241 623.233C828.026 623.906 827.585 624.496 826.983 624.917C826.38 625.338 825.648 625.567 824.895 625.571C824.587 625.55 824.282 625.492 823.989 625.398L823.92 625.419ZM391.002 612.173C390.986 611.747 391.061 611.322 391.222 610.922C391.383 610.523 391.627 610.157 391.94 609.845C392.253 609.534 392.629 609.283 393.046 609.107C393.463 608.93 393.913 608.833 394.371 608.819V608.819C394.828 608.804 395.284 608.874 395.713 609.024C396.142 609.174 396.535 609.401 396.869 609.692C397.204 609.984 397.473 610.334 397.662 610.722C397.851 611.111 397.956 611.531 397.971 611.957C397.987 612.383 397.912 612.808 397.751 613.208C397.59 613.607 397.346 613.973 397.034 614.285C396.721 614.596 396.345 614.847 395.928 615.024C395.511 615.2 395.061 615.298 394.603 615.312H394.487C393.592 615.29 392.741 614.951 392.106 614.363C391.471 613.776 391.101 612.985 391.072 612.152L391.002 612.173ZM828.659 612.931C827.864 612.523 827.272 611.843 827.007 611.034C826.743 610.226 826.827 609.354 827.242 608.602C827.679 607.862 828.41 607.31 829.277 607.063C830.145 606.817 831.081 606.895 831.888 607.282V607.282C832.682 607.69 833.275 608.37 833.54 609.178C833.804 609.987 833.72 610.859 833.305 611.611V611.611C833.005 612.126 832.563 612.556 832.023 612.857C831.484 613.157 830.867 613.318 830.239 613.321V613.321C829.709 613.29 829.193 613.15 828.729 612.909L828.659 612.931ZM835.768 601.806C835.036 601.283 834.556 600.511 834.434 599.659C834.312 598.807 834.558 597.944 835.117 597.261C835.679 596.579 836.508 596.132 837.422 596.018C838.337 595.905 839.262 596.134 839.996 596.655V596.655C840.361 596.912 840.668 597.234 840.898 597.603C841.129 597.971 841.279 598.378 841.339 598.801C841.4 599.224 841.37 599.653 841.251 600.065C841.132 600.477 840.926 600.863 840.646 601.2V601.2C840.324 601.599 839.906 601.922 839.426 602.144C838.946 602.365 838.417 602.48 837.882 602.477V602.477C837.137 602.46 836.42 602.217 835.837 601.784L835.768 601.806ZM394.58 602.347C393.661 602.265 392.814 601.848 392.222 601.188C391.631 600.527 391.343 599.676 391.42 598.819V598.819C391.461 598.392 391.592 597.977 391.806 597.597C392.02 597.218 392.313 596.881 392.667 596.608C393.021 596.334 393.43 596.129 393.87 596.003C394.31 595.877 394.772 595.834 395.23 595.876C396.147 595.958 396.992 596.375 397.58 597.036C398.168 597.698 398.45 598.549 398.366 599.404V599.404C398.286 600.207 397.886 600.954 397.246 601.498C396.606 602.043 395.771 602.345 394.905 602.347H394.58ZM844.572 591.785C843.92 591.176 843.553 590.351 843.553 589.491C843.553 588.63 843.92 587.805 844.572 587.197V587.197C844.894 586.893 845.278 586.652 845.701 586.487C846.123 586.323 846.577 586.238 847.035 586.238C847.493 586.238 847.947 586.323 848.369 586.487C848.792 586.652 849.176 586.893 849.497 587.197V587.197C849.823 587.497 850.082 587.854 850.259 588.248C850.435 588.641 850.526 589.064 850.526 589.491C850.526 589.918 850.435 590.34 850.259 590.734C850.082 591.128 849.823 591.485 849.497 591.785V591.785C849.17 592.097 848.78 592.345 848.35 592.516C847.919 592.687 847.456 592.777 846.988 592.781V592.781C846.095 592.735 845.255 592.37 844.642 591.763L844.572 591.785ZM396.206 589.491C395.757 589.403 395.331 589.234 394.953 588.993C394.574 588.752 394.25 588.444 394 588.086C393.75 587.728 393.578 587.327 393.494 586.907C393.41 586.487 393.416 586.056 393.511 585.638C393.605 585.22 393.786 584.823 394.045 584.471C394.304 584.118 394.635 583.816 395.019 583.583C395.403 583.35 395.833 583.19 396.284 583.111C396.735 583.033 397.198 583.039 397.646 583.128V583.128C398.55 583.309 399.339 583.816 399.844 584.538C400.349 585.259 400.527 586.137 400.341 586.98V586.98C400.176 587.709 399.746 588.364 399.124 588.833C398.502 589.302 397.726 589.557 396.926 589.556V589.556C396.73 589.541 396.536 589.512 396.345 589.469L396.206 589.491ZM854.423 582.608C854.116 582.293 853.88 581.925 853.727 581.525C853.574 581.124 853.507 580.7 853.531 580.275C853.555 579.851 853.669 579.435 853.865 579.052C854.062 578.668 854.338 578.325 854.678 578.041C855.367 577.469 856.271 577.173 857.193 577.218C858.115 577.262 858.981 577.644 859.603 578.279C860.217 578.922 860.535 579.764 860.487 580.622C860.439 581.481 860.03 582.288 859.348 582.868V582.868C858.71 583.405 857.884 583.705 857.024 583.712V583.712C856.531 583.711 856.044 583.612 855.595 583.422C855.147 583.232 854.747 582.954 854.423 582.608V582.608ZM399.528 576.894C399.082 576.771 398.668 576.566 398.309 576.291C397.949 576.016 397.653 575.677 397.436 575.294C397.22 574.911 397.088 574.491 397.048 574.06C397.008 573.628 397.062 573.194 397.205 572.782V572.782C397.347 572.377 397.573 572.003 397.871 571.68C398.169 571.358 398.532 571.093 398.941 570.902C399.349 570.711 399.794 570.597 400.249 570.567C400.705 570.536 401.162 570.59 401.596 570.726V570.726C402.04 570.847 402.454 571.049 402.813 571.322C403.172 571.595 403.469 571.932 403.686 572.313C403.902 572.695 404.035 573.113 404.075 573.543C404.115 573.973 404.062 574.406 403.919 574.816V574.816C403.681 575.453 403.234 576.004 402.643 576.393C402.051 576.781 401.344 576.987 400.62 576.981V576.981C400.276 576.998 399.932 576.969 399.598 576.894H399.528ZM864.853 574.037C864.557 573.713 864.332 573.337 864.193 572.931C864.053 572.525 864.001 572.097 864.04 571.673C864.079 571.248 864.208 570.835 864.419 570.457C864.631 570.079 864.92 569.743 865.272 569.47V569.47C865.619 569.191 866.022 568.98 866.458 568.848C866.894 568.716 867.354 568.667 867.811 568.703C868.267 568.74 868.712 568.861 869.117 569.059C869.523 569.258 869.882 569.53 870.173 569.86V569.86C870.47 570.184 870.695 570.561 870.834 570.966C870.974 571.372 871.026 571.8 870.987 572.225C870.948 572.649 870.819 573.063 870.608 573.441C870.396 573.819 870.107 574.154 869.755 574.427C869.11 574.941 868.281 575.212 867.432 575.184V575.184C866.952 575.163 866.481 575.051 866.05 574.854C865.618 574.656 865.235 574.378 864.923 574.037H864.853ZM875.47 565.704C874.876 565.043 874.586 564.189 874.665 563.33C874.743 562.47 875.183 561.675 875.888 561.116V561.116C876.601 560.568 877.515 560.301 878.436 560.374C879.357 560.447 880.21 560.853 880.813 561.506V561.506C881.406 562.163 881.695 563.013 881.617 563.869C881.539 564.725 881.099 565.518 880.395 566.072V566.072C879.749 566.587 878.923 566.865 878.072 566.851V566.851C877.588 566.832 877.114 566.721 876.678 566.523C876.242 566.326 875.855 566.047 875.54 565.704H875.47ZM404.174 564.665C403.747 564.496 403.359 564.249 403.036 563.938C402.712 563.628 402.458 563.26 402.29 562.857C402.121 562.453 402.04 562.023 402.053 561.59C402.065 561.157 402.17 560.731 402.362 560.337V560.337C402.546 559.94 402.813 559.582 403.147 559.282C403.481 558.982 403.875 558.746 404.307 558.589C404.739 558.432 405.201 558.357 405.664 558.367C406.128 558.377 406.585 558.473 407.008 558.649V558.649C407.434 558.82 407.819 559.068 408.14 559.38C408.461 559.691 408.713 560.06 408.879 560.463C409.046 560.866 409.124 561.296 409.11 561.728C409.096 562.159 408.99 562.584 408.797 562.977V562.977C408.529 563.556 408.085 564.049 407.519 564.396C406.954 564.742 406.291 564.926 405.615 564.925V564.925C405.143 564.932 404.675 564.843 404.244 564.665H404.174ZM886.087 557.328C885.788 557.003 885.562 556.627 885.42 556.22C885.278 555.813 885.224 555.384 885.261 554.958C885.297 554.531 885.424 554.116 885.634 553.735C885.843 553.355 886.132 553.016 886.482 552.74V552.74C886.829 552.462 887.231 552.251 887.666 552.12C888.101 551.988 888.559 551.938 889.015 551.972C889.471 552.006 889.915 552.124 890.321 552.319C890.728 552.514 891.089 552.782 891.384 553.108V553.108C891.683 553.43 891.911 553.803 892.054 554.208C892.198 554.612 892.254 555.039 892.219 555.463C892.185 555.888 892.06 556.302 891.853 556.681C891.646 557.061 891.36 557.398 891.012 557.675V557.675C890.369 558.195 889.54 558.473 888.689 558.454C888.206 558.441 887.731 558.335 887.295 558.141C886.859 557.947 886.471 557.67 886.157 557.328H886.087ZM409.982 553C409.184 552.595 408.586 551.917 408.317 551.108C408.048 550.299 408.129 549.425 408.542 548.671V548.671C408.971 547.923 409.7 547.362 410.569 547.111C411.439 546.86 412.38 546.938 413.188 547.329V547.329C413.987 547.733 414.584 548.412 414.853 549.22C415.122 550.029 415.042 550.904 414.628 551.658V551.658C414.327 552.176 413.88 552.608 413.336 552.909C412.792 553.21 412.171 553.369 411.539 553.367V553.367C411.012 553.323 410.504 553.168 410.052 552.913L409.982 553ZM896.657 548.974C896.354 548.655 896.122 548.282 895.975 547.878C895.827 547.475 895.768 547.048 895.801 546.622C895.833 546.197 895.957 545.782 896.164 545.401C896.37 545.021 896.657 544.683 897.006 544.407V544.407C897.348 544.124 897.748 543.908 898.181 543.771C898.615 543.634 899.073 543.579 899.53 543.609C899.986 543.639 900.432 543.754 900.84 543.947C901.249 544.14 901.611 544.407 901.908 544.732V544.732C902.211 545.051 902.443 545.423 902.59 545.827C902.737 546.231 902.796 546.658 902.764 547.083C902.731 547.509 902.608 547.924 902.401 548.304C902.194 548.684 901.908 549.023 901.559 549.298V549.298C900.921 549.829 900.091 550.115 899.236 550.099V550.099C898.75 550.073 898.275 549.952 897.843 549.743C897.41 549.534 897.03 549.242 896.727 548.887L896.657 548.974ZM416.719 541.658C415.938 541.199 415.381 540.472 415.169 539.635C414.956 538.797 415.104 537.915 415.581 537.178C416.074 536.45 416.854 535.932 417.753 535.733C418.652 535.535 419.599 535.673 420.39 536.117V536.117C421.171 536.577 421.728 537.304 421.94 538.141C422.153 538.979 422.005 539.861 421.528 540.598V540.598C421.213 541.068 420.775 541.455 420.255 541.724C419.734 541.993 419.149 542.134 418.555 542.134V542.134C417.922 542.098 417.313 541.903 416.789 541.572L416.719 541.658ZM907.135 540.468C906.831 540.148 906.597 539.776 906.448 539.372C906.298 538.969 906.236 538.541 906.264 538.115C906.292 537.689 906.41 537.272 906.611 536.888C906.812 536.505 907.093 536.162 907.437 535.879V535.879C907.78 535.596 908.179 535.379 908.612 535.239C909.046 535.1 909.504 535.042 909.962 535.068C910.419 535.094 910.867 535.204 911.279 535.392C911.69 535.579 912.058 535.841 912.362 536.161V536.161C912.97 536.809 913.28 537.654 913.223 538.513C913.166 539.372 912.748 540.176 912.06 540.749C911.416 541.27 910.59 541.555 909.737 541.55V541.55C909.251 541.529 908.774 541.415 908.339 541.214C907.903 541.012 907.516 540.729 907.204 540.381L907.135 540.468ZM917.519 531.81C917.211 531.495 916.972 531.126 916.817 530.725C916.662 530.323 916.593 529.897 916.615 529.471C916.636 529.045 916.748 528.627 916.943 528.241C917.138 527.855 917.413 527.509 917.751 527.222V527.222C918.438 526.647 919.34 526.348 920.262 526.388C921.183 526.429 922.051 526.806 922.676 527.438V527.438C922.985 527.754 923.223 528.123 923.379 528.524C923.534 528.925 923.603 529.351 923.581 529.777C923.559 530.204 923.448 530.622 923.253 531.008C923.058 531.393 922.783 531.74 922.444 532.027V532.027C921.807 532.564 920.98 532.864 920.121 532.871C919.638 532.86 919.162 532.754 918.726 532.56C918.29 532.366 917.902 532.088 917.589 531.745L917.519 531.81ZM424.2 530.685C423.441 530.199 422.919 529.452 422.749 528.608C422.58 527.765 422.775 526.893 423.294 526.183V526.183C423.552 525.83 423.883 525.528 424.268 525.294C424.652 525.06 425.082 524.9 425.533 524.821C425.984 524.743 426.448 524.748 426.897 524.837C427.345 524.926 427.771 525.096 428.149 525.339V525.339C428.526 525.582 428.849 525.891 429.097 526.25C429.346 526.609 429.516 527.01 429.598 527.43C429.68 527.85 429.672 528.281 429.575 528.699C429.478 529.116 429.293 529.512 429.032 529.862C428.713 530.294 428.286 530.648 427.789 530.893C427.291 531.138 426.737 531.267 426.174 531.269C425.484 531.236 424.82 531.01 424.269 530.62L424.2 530.685ZM927.764 523.066C927.138 522.435 926.805 521.6 926.835 520.741C926.865 519.882 927.258 519.069 927.927 518.478V518.478C928.259 518.184 928.651 517.954 929.08 517.803C929.508 517.651 929.965 517.58 930.423 517.594C930.882 517.608 931.332 517.707 931.749 517.885C932.166 518.063 932.541 518.316 932.852 518.629C933.165 518.937 933.41 519.3 933.573 519.697C933.736 520.093 933.813 520.515 933.8 520.94C933.787 521.364 933.684 521.782 933.498 522.169C933.311 522.556 933.044 522.905 932.712 523.196V523.196C932.087 523.756 931.257 524.073 930.389 524.084V524.084C929.907 524.074 929.431 523.974 928.992 523.787C928.553 523.601 928.159 523.334 927.834 523.001L927.764 523.066ZM432.191 520.079C431.821 519.827 431.508 519.509 431.271 519.143C431.034 518.777 430.877 518.37 430.81 517.947C430.743 517.524 430.767 517.093 430.881 516.679C430.994 516.265 431.195 515.876 431.471 515.534V515.534C432.026 514.847 432.849 514.391 433.763 514.265C434.676 514.14 435.605 514.355 436.35 514.863V514.863C437.088 515.38 437.577 516.147 437.712 516.998C437.847 517.849 437.616 518.715 437.07 519.409C436.744 519.817 436.32 520.15 435.832 520.379C435.344 520.608 434.806 520.728 434.259 520.729C433.529 520.693 432.829 520.443 432.261 520.015L432.191 520.079ZM938.056 514.084C937.403 513.475 937.037 512.65 937.037 511.79C937.037 510.93 937.403 510.104 938.056 509.496V509.496C938.378 509.192 938.761 508.951 939.184 508.786C939.606 508.622 940.06 508.537 940.518 508.537C940.976 508.537 941.43 508.622 941.853 508.786C942.275 508.951 942.659 509.192 942.981 509.496C943.307 509.796 943.565 510.153 943.742 510.547C943.919 510.941 944.01 511.363 944.01 511.79C944.01 512.217 943.919 512.639 943.742 513.033C943.565 513.427 943.307 513.784 942.981 514.084V514.084C942.357 514.653 941.529 514.985 940.658 515.015V515.015C940.179 515.031 939.702 514.957 939.255 514.797C938.808 514.637 938.4 514.395 938.056 514.084V514.084ZM440.74 509.755C440.014 509.222 439.543 508.443 439.43 507.588C439.317 506.733 439.571 505.87 440.137 505.189C440.709 504.512 441.545 504.073 442.463 503.967C443.381 503.862 444.307 504.099 445.038 504.626V504.626C445.765 505.159 446.236 505.938 446.349 506.793C446.462 507.649 446.208 508.511 445.642 509.193V509.193C445.313 509.581 444.893 509.894 444.414 510.108C443.934 510.322 443.409 510.431 442.878 510.426V510.426C442.055 510.426 441.258 510.158 440.624 509.669L440.74 509.755ZM947.976 505.08C947.65 504.78 947.391 504.423 947.214 504.029C947.038 503.636 946.947 503.213 946.947 502.786C946.947 502.359 947.038 501.937 947.214 501.543C947.391 501.149 947.65 500.792 947.976 500.492V500.492C948.629 499.884 949.515 499.542 950.438 499.542C951.362 499.542 952.247 499.884 952.901 500.492C953.227 500.794 953.486 501.153 953.663 501.548C953.84 501.944 953.931 502.368 953.931 502.797C953.931 503.226 953.84 503.65 953.663 504.046C953.486 504.441 953.227 504.8 952.901 505.102V505.102C952.578 505.412 952.192 505.658 951.764 505.826C951.337 505.993 950.878 506.078 950.415 506.076V506.076C949.931 506.073 949.454 505.975 949.013 505.789C948.573 505.602 948.18 505.332 947.859 504.994L947.976 505.08ZM449.359 499.561C449.001 499.296 448.701 498.967 448.479 498.594C448.257 498.22 448.116 497.81 448.064 497.386C448.012 496.961 448.051 496.532 448.177 496.122C448.304 495.711 448.516 495.328 448.802 494.994C449.384 494.327 450.225 493.901 451.143 493.808C452.061 493.715 452.981 493.962 453.704 494.497V494.497C454.061 494.764 454.358 495.094 454.578 495.468C454.798 495.842 454.937 496.253 454.987 496.677C455.036 497.101 454.996 497.53 454.867 497.94C454.739 498.349 454.525 498.731 454.238 499.063C453.913 499.445 453.5 499.752 453.029 499.962C452.558 500.172 452.042 500.279 451.52 500.276V500.276C450.681 500.278 449.871 499.993 449.243 499.475L449.359 499.561ZM957.686 495.795C957.349 495.505 957.078 495.156 956.887 494.768C956.696 494.379 956.59 493.96 956.575 493.533C956.56 493.106 956.636 492.68 956.799 492.281C956.962 491.882 957.208 491.517 957.524 491.207C958.155 490.578 959.029 490.209 959.952 490.181C960.876 490.152 961.774 490.467 962.449 491.055V491.055C963.123 491.644 963.519 492.458 963.55 493.318C963.58 494.179 963.243 495.015 962.611 495.644C962.285 495.971 961.89 496.233 961.45 496.412C961.01 496.59 960.536 496.683 960.056 496.683V496.683C959.593 496.681 959.135 496.594 958.708 496.427C958.282 496.26 957.895 496.016 957.57 495.709L957.686 495.795ZM457.932 489.389C457.575 489.124 457.279 488.796 457.059 488.423C456.839 488.051 456.7 487.642 456.651 487.22C456.601 486.797 456.641 486.37 456.77 485.962C456.898 485.554 457.111 485.174 457.397 484.844V484.844C457.682 484.509 458.035 484.231 458.436 484.023C458.837 483.816 459.277 483.685 459.733 483.637C460.188 483.588 460.649 483.624 461.089 483.742C461.53 483.86 461.941 484.058 462.299 484.324V484.324C463.015 484.867 463.473 485.65 463.573 486.505C463.673 487.36 463.407 488.217 462.834 488.891C462.507 489.27 462.093 489.575 461.622 489.785C461.152 489.995 460.637 490.103 460.115 490.103C459.32 490.111 458.547 489.858 457.932 489.389ZM967.025 486.229C966.681 485.946 966.401 485.603 966.2 485.22C965.999 484.836 965.88 484.419 965.852 483.993C965.824 483.567 965.887 483.139 966.036 482.736C966.186 482.332 966.419 481.96 966.723 481.64V481.64C967.027 481.32 967.395 481.059 967.806 480.871C968.218 480.684 968.666 480.574 969.123 480.548C969.581 480.522 970.039 480.58 970.472 480.719C970.906 480.858 971.305 481.076 971.648 481.359V481.359C971.99 481.643 972.269 481.987 972.468 482.371C972.667 482.756 972.783 483.173 972.809 483.599C972.835 484.026 972.77 484.452 972.619 484.855C972.468 485.258 972.233 485.629 971.927 485.947V485.947C971.6 486.288 971.199 486.561 970.75 486.748C970.302 486.934 969.816 487.03 969.325 487.03V487.03C968.476 487.027 967.658 486.735 967.025 486.207V486.229ZM466.62 479.281C465.894 478.748 465.423 477.969 465.309 477.114C465.196 476.258 465.45 475.396 466.016 474.714V474.714C466.585 474.039 467.417 473.6 468.331 473.495C469.245 473.389 470.167 473.626 470.895 474.152V474.152C471.259 474.412 471.564 474.738 471.793 475.109C472.022 475.48 472.169 475.889 472.228 476.313C472.286 476.738 472.254 477.169 472.133 477.582C472.012 477.994 471.804 478.381 471.522 478.718V478.718C471.193 479.107 470.772 479.42 470.293 479.634C469.814 479.847 469.289 479.956 468.758 479.952C467.983 479.946 467.232 479.703 466.62 479.26V479.281ZM976.178 476.403C975.471 475.851 975.027 475.06 974.944 474.204C974.862 473.348 975.147 472.496 975.737 471.836V471.836C976.03 471.506 976.391 471.234 976.798 471.035C977.205 470.836 977.65 470.713 978.108 470.675C978.566 470.637 979.027 470.684 979.465 470.812C979.904 470.941 980.31 471.149 980.662 471.424V471.424C981.013 471.698 981.303 472.033 981.514 472.411C981.726 472.789 981.855 473.202 981.894 473.627C981.932 474.051 981.881 474.479 981.741 474.885C981.601 475.291 981.377 475.667 981.08 475.991V475.991C980.754 476.356 980.345 476.65 979.884 476.852C979.422 477.054 978.919 477.159 978.409 477.16V477.16C977.593 477.157 976.805 476.889 976.178 476.403ZM475.077 468.914C474.705 468.663 474.391 468.346 474.151 467.981C473.911 467.617 473.751 467.212 473.68 466.79C473.609 466.367 473.628 465.936 473.736 465.521C473.844 465.105 474.039 464.714 474.31 464.369V464.369C474.573 464.019 474.909 463.722 475.298 463.496C475.686 463.269 476.119 463.117 476.571 463.048C477.024 462.98 477.486 462.996 477.932 463.096C478.377 463.197 478.797 463.379 479.165 463.633C479.914 464.14 480.417 464.902 480.565 465.754C480.713 466.605 480.494 467.477 479.955 468.178V468.178C479.628 468.592 479.202 468.93 478.709 469.163C478.217 469.396 477.673 469.518 477.121 469.52V469.52C476.394 469.53 475.681 469.334 475.077 468.957V468.914ZM985.006 466.381C984.281 465.852 983.811 465.077 983.698 464.225C983.584 463.373 983.838 462.514 984.402 461.836C984.684 461.499 985.034 461.216 985.433 461.005C985.832 460.794 986.272 460.658 986.728 460.606C987.183 460.554 987.645 460.586 988.087 460.7C988.53 460.815 988.943 461.01 989.304 461.274C990.029 461.803 990.5 462.578 990.613 463.43C990.726 464.282 990.473 465.141 989.908 465.819V465.819C989.58 466.21 989.16 466.526 988.681 466.744C988.202 466.961 987.677 467.074 987.144 467.074V467.074C986.373 467.089 985.62 466.86 985.006 466.425V466.381ZM483.208 458.352C482.826 458.116 482.498 457.812 482.243 457.458C481.987 457.105 481.809 456.707 481.719 456.289C481.628 455.871 481.627 455.44 481.715 455.022C481.803 454.603 481.979 454.205 482.232 453.85C482.485 453.494 482.811 453.189 483.191 452.951C483.571 452.713 483.997 452.547 484.446 452.462C484.895 452.378 485.357 452.377 485.806 452.459C486.255 452.541 486.683 452.705 487.064 452.941V452.941C487.445 453.177 487.773 453.48 488.029 453.834C488.284 454.188 488.462 454.585 488.553 455.003C488.644 455.421 488.645 455.852 488.557 456.271C488.469 456.689 488.293 457.087 488.04 457.443V457.443C487.719 457.886 487.286 458.25 486.78 458.503C486.274 458.755 485.71 458.889 485.136 458.893V458.893C484.431 458.92 483.734 458.747 483.138 458.395L483.208 458.352ZM993.532 456.187C993.161 455.936 992.846 455.62 992.607 455.255C992.367 454.89 992.207 454.485 992.136 454.063C992.064 453.641 992.083 453.21 992.192 452.794C992.3 452.379 992.495 451.987 992.766 451.642V451.642C993.306 450.946 994.12 450.478 995.03 450.34C995.94 450.202 996.872 450.406 997.621 450.906V450.906C998.37 451.413 998.873 452.176 999.021 453.027C999.169 453.879 998.95 454.75 998.411 455.451V455.451C998.088 455.87 997.662 456.21 997.169 456.443C996.676 456.677 996.13 456.797 995.577 456.793V456.793C994.816 456.793 994.074 456.566 993.463 456.144L993.532 456.187ZM490.758 447.53C489.968 447.089 489.398 446.375 489.172 445.543C488.945 444.712 489.081 443.831 489.55 443.093C490.018 442.382 490.763 441.868 491.629 441.658C492.496 441.448 493.416 441.559 494.196 441.967V441.967C494.591 442.182 494.937 442.467 495.213 442.807C495.489 443.147 495.69 443.534 495.805 443.947C495.919 444.359 495.945 444.789 495.88 445.211C495.815 445.633 495.661 446.038 495.427 446.404C495.122 446.892 494.685 447.297 494.159 447.578C493.633 447.86 493.037 448.007 492.43 448.006V448.006C491.813 447.983 491.213 447.811 490.688 447.508L490.758 447.53ZM1001.57 445.582C1001.19 445.346 1000.86 445.043 1000.61 444.689C1000.35 444.335 1000.17 443.937 1000.08 443.519C999.991 443.101 999.989 442.671 1000.08 442.252C1000.17 441.834 1000.34 441.435 1000.59 441.08V441.08C1000.85 440.725 1001.17 440.419 1001.55 440.181C1001.93 439.943 1002.36 439.777 1002.81 439.693C1003.26 439.608 1003.72 439.607 1004.17 439.689C1004.62 439.771 1005.05 439.935 1005.43 440.171V440.171C1005.81 440.407 1006.14 440.71 1006.39 441.064C1006.65 441.418 1006.83 441.816 1006.92 442.234C1007.01 442.652 1007.01 443.082 1006.92 443.501C1006.83 443.919 1006.66 444.318 1006.4 444.673V444.673C1006.09 445.12 1005.65 445.487 1005.15 445.74C1004.64 445.994 1004.07 446.125 1003.5 446.123V446.123C1002.79 446.131 1002.09 445.935 1001.5 445.56L1001.57 445.582ZM497.681 436.297C496.879 435.896 496.274 435.222 495.993 434.415C495.711 433.608 495.775 432.732 496.171 431.968V431.968C496.593 431.213 497.316 430.642 498.185 430.379C499.054 430.116 499.999 430.181 500.817 430.561V430.561C501.628 430.954 502.24 431.628 502.523 432.438C502.805 433.247 502.735 434.128 502.327 434.89V434.89C502.038 435.421 501.595 435.866 501.05 436.176C500.504 436.485 499.876 436.647 499.237 436.643V436.643C498.671 436.644 498.114 436.517 497.611 436.275L497.681 436.297ZM1009.14 434.717C1008.35 434.272 1007.78 433.554 1007.56 432.719C1007.33 431.884 1007.47 431 1007.94 430.258C1008.17 429.893 1008.48 429.574 1008.85 429.321C1009.22 429.068 1009.64 428.885 1010.08 428.782C1010.53 428.68 1010.99 428.66 1011.44 428.724C1011.89 428.788 1012.33 428.934 1012.72 429.154V429.154C1013.51 429.595 1014.08 430.309 1014.31 431.141C1014.53 431.972 1014.4 432.853 1013.93 433.591V433.591C1013.62 434.072 1013.18 434.471 1012.65 434.747C1012.13 435.024 1011.54 435.17 1010.93 435.171V435.171C1010.28 435.177 1009.63 435.012 1009.07 434.695L1009.14 434.717ZM503.837 424.674C503.405 424.509 503.013 424.265 502.685 423.956C502.356 423.647 502.098 423.28 501.924 422.876C501.751 422.473 501.666 422.04 501.676 421.606C501.685 421.171 501.788 420.742 501.979 420.345C502.155 419.943 502.418 419.578 502.75 419.273C503.082 418.967 503.476 418.727 503.91 418.568C504.344 418.408 504.809 418.332 505.275 418.343C505.742 418.355 506.201 418.454 506.625 418.636C507.059 418.798 507.453 419.041 507.783 419.349C508.114 419.658 508.373 420.025 508.547 420.43C508.721 420.834 508.805 421.268 508.794 421.703C508.783 422.139 508.677 422.568 508.483 422.964C508.216 423.551 507.77 424.053 507.2 424.407C506.63 424.76 505.962 424.951 505.277 424.955V424.955C504.755 424.966 504.238 424.863 503.767 424.652L503.837 424.674ZM1016.16 423.549C1015.37 423.137 1014.78 422.455 1014.52 421.647C1014.26 420.839 1014.35 419.969 1014.77 419.22C1015.2 418.479 1015.94 417.928 1016.8 417.686C1017.67 417.443 1018.61 417.527 1019.41 417.921V417.921C1020.21 418.329 1020.8 419.009 1021.06 419.818C1021.33 420.626 1021.24 421.499 1020.83 422.25V422.25C1020.53 422.768 1020.08 423.201 1019.54 423.502C1018.99 423.803 1018.37 423.961 1017.74 423.96V423.96C1017.16 423.943 1016.59 423.794 1016.09 423.527L1016.16 423.549ZM508.971 412.727C508.528 412.603 508.116 412.399 507.759 412.126C507.402 411.852 507.106 411.516 506.89 411.135C506.674 410.754 506.541 410.337 506.5 409.908C506.458 409.479 506.508 409.047 506.648 408.636V408.636C506.783 408.225 507.004 407.843 507.298 407.512C507.592 407.18 507.954 406.906 508.361 406.705C508.769 406.504 509.216 406.38 509.675 406.34C510.135 406.3 510.598 406.345 511.039 406.472V406.472C511.48 406.598 511.89 406.804 512.246 407.078C512.601 407.351 512.896 407.688 513.111 408.068C513.327 408.448 513.46 408.864 513.503 409.292C513.546 409.72 513.498 410.152 513.362 410.562C513.114 411.197 512.662 411.746 512.067 412.133C511.473 412.52 510.765 412.728 510.04 412.727C509.657 412.751 509.272 412.714 508.901 412.619L508.971 412.727ZM1022.62 412.164C1021.79 411.79 1021.15 411.125 1020.84 410.313C1020.54 409.501 1020.59 408.61 1020.99 407.835C1021.19 407.448 1021.46 407.101 1021.8 406.813C1022.14 406.526 1022.54 406.304 1022.97 406.161C1023.4 406.018 1023.86 405.957 1024.32 405.98C1024.78 406.004 1025.23 406.112 1025.64 406.299V406.299C1026.47 406.672 1027.11 407.338 1027.41 408.15C1027.72 408.961 1027.66 409.852 1027.26 410.627C1026.98 411.181 1026.54 411.649 1025.99 411.975C1025.43 412.301 1024.78 412.472 1024.13 412.467V412.467C1023.57 412.45 1023.03 412.309 1022.55 412.056L1022.62 412.164ZM1028.45 400.39C1028.02 400.227 1027.62 399.984 1027.29 399.676C1026.96 399.368 1026.7 399.001 1026.52 398.598C1026.35 398.194 1026.26 397.761 1026.27 397.325C1026.28 396.889 1026.38 396.459 1026.57 396.061V396.061C1026.74 395.659 1027.01 395.294 1027.34 394.987C1027.67 394.68 1028.06 394.438 1028.5 394.275C1028.93 394.111 1029.39 394.03 1029.86 394.036C1030.32 394.042 1030.79 394.134 1031.21 394.308V394.308C1031.65 394.471 1032.04 394.714 1032.37 395.022C1032.7 395.33 1032.96 395.696 1033.14 396.1C1033.32 396.504 1033.4 396.937 1033.39 397.373C1033.39 397.809 1033.29 398.238 1033.1 398.637C1032.83 399.224 1032.38 399.725 1031.81 400.079C1031.24 400.433 1030.57 400.624 1029.89 400.628V400.628C1029.36 400.622 1028.85 400.504 1028.38 400.282L1028.45 400.39ZM512.897 400.39C512.417 400.313 511.96 400.143 511.555 399.891C511.15 399.639 510.806 399.31 510.546 398.927C510.285 398.544 510.114 398.114 510.043 397.665C509.972 397.216 510.002 396.758 510.133 396.321V396.321C510.323 395.481 510.862 394.745 511.633 394.275C512.403 393.804 513.342 393.637 514.245 393.81C515.152 393.987 515.948 394.492 516.457 395.214C516.967 395.936 517.148 396.816 516.963 397.663V397.663C516.797 398.392 516.368 399.046 515.746 399.515C515.124 399.984 514.348 400.24 513.548 400.238L512.897 400.39ZM1033.61 388.464C1033.18 388.324 1032.78 388.105 1032.44 387.82C1032.1 387.536 1031.82 387.192 1031.63 386.808C1031.43 386.423 1031.32 386.006 1031.29 385.581C1031.27 385.156 1031.34 384.731 1031.49 384.33C1031.64 383.927 1031.87 383.554 1032.18 383.235C1032.48 382.916 1032.85 382.656 1033.26 382.471C1033.68 382.286 1034.13 382.179 1034.58 382.156C1035.04 382.133 1035.5 382.196 1035.93 382.339C1036.8 382.624 1037.52 383.219 1037.92 383.994C1038.32 384.769 1038.37 385.661 1038.07 386.473V386.473C1037.83 387.108 1037.38 387.657 1036.79 388.045C1036.2 388.433 1035.49 388.64 1034.77 388.637V388.637C1034.34 388.588 1033.92 388.463 1033.54 388.269L1033.61 388.464ZM515.244 387.447C514.788 387.411 514.343 387.293 513.937 387.097C513.53 386.902 513.168 386.634 512.873 386.308C512.577 385.982 512.353 385.606 512.214 385.2C512.075 384.793 512.023 384.366 512.061 383.941V383.941C512.096 383.515 512.222 383.099 512.43 382.719C512.639 382.339 512.927 382.001 513.277 381.725C513.627 381.449 514.033 381.241 514.47 381.112C514.907 380.983 515.368 380.937 515.824 380.976V380.976C516.281 381.011 516.725 381.13 517.132 381.325C517.538 381.521 517.9 381.789 518.195 382.114C518.491 382.44 518.715 382.817 518.854 383.223C518.993 383.629 519.045 384.057 519.007 384.482V384.482C518.937 385.291 518.542 386.046 517.9 386.596C517.258 387.146 516.417 387.45 515.546 387.447H515.244ZM1037.95 375.976C1037.08 375.725 1036.34 375.166 1035.91 374.417C1035.48 373.668 1035.37 372.79 1035.63 371.972V371.972C1035.87 371.143 1036.46 370.438 1037.26 370.012C1038.06 369.586 1039.01 369.474 1039.9 369.699C1040.79 369.932 1041.55 370.483 1042.01 371.233C1042.46 371.983 1042.58 372.871 1042.34 373.703V373.703C1042.14 374.389 1041.7 374.994 1041.09 375.424C1040.48 375.854 1039.74 376.086 1038.97 376.084V376.084C1038.63 376.098 1038.28 376.062 1037.95 375.976V375.976ZM512.293 371.452C512.243 370.594 512.559 369.753 513.173 369.112C513.787 368.471 514.648 368.083 515.569 368.033V368.033C516.027 368.006 516.486 368.064 516.919 368.204C517.353 368.343 517.753 368.56 518.096 368.844C518.439 369.127 518.719 369.471 518.919 369.856C519.119 370.24 519.236 370.658 519.263 371.084V371.084C519.307 371.944 518.986 372.786 518.368 373.426C517.75 374.066 516.886 374.454 515.964 374.504H515.778C514.885 374.511 514.023 374.198 513.37 373.63C512.717 373.063 512.324 372.283 512.27 371.452H512.293ZM1041.41 363.422C1040.95 363.343 1040.51 363.178 1040.12 362.937C1039.73 362.696 1039.4 362.385 1039.14 362.021C1038.88 361.658 1038.71 361.249 1038.62 360.821C1038.54 360.392 1038.55 359.952 1038.65 359.527C1038.73 359.108 1038.91 358.709 1039.16 358.353C1039.41 357.997 1039.74 357.692 1040.12 357.454C1040.5 357.217 1040.93 357.052 1041.38 356.969C1041.83 356.887 1042.29 356.888 1042.74 356.973V356.973C1043.19 357.053 1043.61 357.215 1044 357.451C1044.38 357.686 1044.71 357.99 1044.96 358.344C1045.22 358.698 1045.39 359.096 1045.48 359.515C1045.57 359.933 1045.57 360.364 1045.48 360.782C1045.32 361.517 1044.89 362.179 1044.27 362.656C1043.65 363.133 1042.87 363.396 1042.06 363.401L1041.41 363.422ZM510.574 359.094C510.479 358.676 510.473 358.245 510.557 357.825C510.641 357.405 510.813 357.004 511.063 356.646C511.314 356.288 511.637 355.98 512.016 355.739C512.394 355.498 512.82 355.329 513.269 355.241C514.177 355.074 515.119 355.246 515.892 355.72C516.666 356.193 517.209 356.931 517.404 357.773C517.583 358.617 517.398 359.492 516.889 360.209C516.38 360.926 515.589 361.427 514.686 361.604C514.447 361.626 514.206 361.626 513.966 361.604V361.604C513.179 361.602 512.417 361.35 511.804 360.889C511.192 360.429 510.766 359.788 510.597 359.072L510.574 359.094ZM1043.85 350.696C1043.4 350.645 1042.96 350.511 1042.56 350.302C1042.16 350.093 1041.81 349.812 1041.53 349.476C1041.24 349.141 1041.03 348.756 1040.91 348.345C1040.79 347.935 1040.75 347.505 1040.81 347.081C1040.91 346.226 1041.38 345.445 1042.1 344.909C1042.82 344.373 1043.75 344.127 1044.66 344.225V344.225C1045.58 344.333 1046.42 344.772 1046.99 345.448C1047.56 346.124 1047.83 346.982 1047.73 347.839V347.839C1047.63 348.629 1047.22 349.358 1046.58 349.888C1045.95 350.418 1045.12 350.713 1044.27 350.718H1043.85V350.696ZM506.927 347.06C506.622 346.248 506.677 345.356 507.077 344.581C507.478 343.806 508.193 343.21 509.064 342.926C509.496 342.783 509.953 342.72 510.411 342.743C510.868 342.766 511.316 342.873 511.729 343.058C512.142 343.243 512.511 343.503 512.815 343.822C513.12 344.141 513.353 344.513 513.501 344.917V344.917C513.655 345.319 513.722 345.746 513.698 346.172C513.673 346.598 513.558 347.016 513.36 347.4C513.161 347.785 512.882 348.129 512.539 348.412C512.197 348.695 511.797 348.913 511.364 349.051C510.999 349.172 510.613 349.23 510.226 349.224V349.224C509.496 349.23 508.783 349.022 508.187 348.63C507.591 348.237 507.142 347.681 506.904 347.038L506.927 347.06ZM1045.15 337.883C1044.69 337.872 1044.24 337.777 1043.83 337.603C1043.41 337.429 1043.03 337.181 1042.72 336.871C1042.4 336.562 1042.15 336.197 1041.99 335.799C1041.83 335.401 1041.75 334.976 1041.76 334.55C1041.77 334.123 1041.87 333.701 1042.06 333.31C1042.24 332.919 1042.51 332.567 1042.84 332.273C1043.17 331.979 1043.57 331.749 1043.99 331.598C1044.42 331.446 1044.88 331.375 1045.34 331.39V331.39C1046.26 331.418 1047.13 331.784 1047.77 332.408C1048.4 333.032 1048.75 333.863 1048.73 334.723C1048.7 335.567 1048.32 336.368 1047.67 336.957C1047.02 337.546 1046.15 337.878 1045.25 337.883V337.883H1045.15ZM501.816 335.286C501.619 334.896 501.507 334.473 501.489 334.042C501.47 333.612 501.544 333.182 501.706 332.779C501.868 332.375 502.116 332.006 502.434 331.693C502.752 331.38 503.135 331.13 503.558 330.957V330.957C503.977 330.773 504.431 330.67 504.893 330.652C505.355 330.634 505.816 330.703 506.249 330.855C506.682 331.006 507.079 331.237 507.415 331.533C507.75 331.829 508.019 332.185 508.205 332.58V332.58C508.402 332.97 508.513 333.393 508.532 333.823C508.551 334.254 508.477 334.684 508.314 335.087C508.152 335.491 507.904 335.86 507.586 336.173C507.268 336.486 506.886 336.736 506.462 336.909V336.909C506.018 337.102 505.535 337.205 505.045 337.212C504.363 337.223 503.693 337.046 503.118 336.703C502.544 336.361 502.091 335.868 501.816 335.286V335.286ZM495.869 323.706C495.666 323.326 495.546 322.911 495.516 322.488C495.486 322.064 495.546 321.638 495.693 321.236C495.84 320.834 496.07 320.463 496.372 320.144C496.673 319.825 497.039 319.564 497.448 319.378V319.378C498.275 319.002 499.227 318.947 500.097 319.222C500.967 319.498 501.685 320.083 502.095 320.849V320.849C502.497 321.619 502.557 322.506 502.261 323.317C501.966 324.127 501.338 324.797 500.515 325.178C500.028 325.393 499.497 325.504 498.958 325.503V325.503C498.315 325.5 497.685 325.331 497.139 325.014C496.594 324.696 496.154 324.244 495.869 323.706V323.706ZM1041.46 321.802C1041.42 321.377 1041.47 320.95 1041.62 320.545C1041.76 320.14 1041.98 319.766 1042.28 319.443C1042.58 319.121 1042.94 318.857 1043.35 318.667C1043.76 318.478 1044.21 318.366 1044.66 318.339C1045.12 318.303 1045.58 318.353 1046.02 318.484C1046.45 318.615 1046.86 318.826 1047.2 319.104C1047.55 319.382 1047.84 319.721 1048.04 320.103C1048.25 320.484 1048.37 320.9 1048.4 321.326C1048.44 321.752 1048.38 322.181 1048.24 322.587C1048.1 322.994 1047.87 323.369 1047.57 323.693C1047.27 324.017 1046.9 324.282 1046.49 324.474C1046.08 324.666 1045.63 324.78 1045.18 324.81H1044.92C1044.04 324.812 1043.19 324.502 1042.55 323.943C1041.91 323.385 1041.52 322.619 1041.46 321.802V321.802ZM489.689 312.084C489.29 311.309 489.237 310.418 489.541 309.606C489.846 308.794 490.484 308.129 491.315 307.755V307.755C492.144 307.381 493.099 307.329 493.969 307.608C494.84 307.888 495.556 308.478 495.962 309.248C496.363 310.021 496.419 310.91 496.119 311.721C495.818 312.532 495.186 313.199 494.359 313.577V313.577C493.879 313.789 493.356 313.9 492.825 313.902V313.902C492.173 313.9 491.534 313.73 490.98 313.408C490.426 313.087 489.979 312.628 489.689 312.084V312.084ZM1039.74 309.335C1039.65 308.917 1039.65 308.487 1039.75 308.07C1039.84 307.653 1040.02 307.257 1040.27 306.904C1040.53 306.552 1040.86 306.251 1041.24 306.018C1041.63 305.785 1042.05 305.625 1042.5 305.547V305.547C1042.95 305.466 1043.41 305.468 1043.86 305.553C1044.31 305.639 1044.73 305.806 1045.11 306.046C1045.49 306.285 1045.81 306.592 1046.06 306.949C1046.31 307.305 1046.49 307.704 1046.57 308.123C1046.66 308.541 1046.65 308.971 1046.56 309.388C1046.47 309.805 1046.29 310.201 1046.03 310.553C1045.78 310.906 1045.45 311.207 1045.07 311.44C1044.68 311.673 1044.25 311.833 1043.81 311.911V311.911H1043.15C1042.35 311.921 1041.57 311.669 1040.94 311.199C1040.31 310.729 1039.88 310.07 1039.72 309.335H1039.74ZM483.858 300.115C483.668 299.716 483.566 299.287 483.559 298.851C483.551 298.415 483.637 297.982 483.813 297.578C483.989 297.174 484.25 296.807 484.581 296.5C484.912 296.192 485.306 295.949 485.74 295.786V295.786C486.167 295.609 486.629 295.514 487.096 295.507C487.564 295.5 488.029 295.58 488.462 295.744C488.896 295.908 489.29 296.151 489.62 296.459C489.951 296.768 490.211 297.135 490.386 297.539C490.577 297.936 490.68 298.365 490.689 298.799C490.698 299.234 490.614 299.666 490.44 300.07C490.267 300.474 490.008 300.841 489.68 301.15C489.351 301.459 488.959 301.703 488.528 301.868V301.868C488.1 302.03 487.642 302.111 487.18 302.106V302.106C486.47 302.137 485.767 301.962 485.168 301.606C484.569 301.249 484.103 300.728 483.835 300.115H483.858ZM1036.39 297.193C1036.25 296.782 1036.2 296.349 1036.24 295.919C1036.28 295.489 1036.41 295.071 1036.63 294.69C1036.84 294.308 1037.14 293.971 1037.5 293.699C1037.86 293.426 1038.27 293.223 1038.72 293.102C1039.16 292.969 1039.62 292.92 1040.08 292.957C1040.55 292.994 1040.99 293.117 1041.4 293.319C1041.81 293.521 1042.18 293.797 1042.47 294.132C1042.76 294.466 1042.98 294.852 1043.11 295.267C1043.25 295.677 1043.3 296.11 1043.26 296.538C1043.22 296.967 1043.08 297.384 1042.87 297.765C1042.65 298.146 1042.35 298.483 1042 298.756C1041.64 299.029 1041.23 299.234 1040.78 299.357V299.357C1040.43 299.462 1040.06 299.513 1039.69 299.509C1038.95 299.505 1038.22 299.279 1037.62 298.862C1037.02 298.445 1036.59 297.86 1036.37 297.193H1036.39ZM478.979 287.626C478.712 286.803 478.806 285.914 479.242 285.155C479.677 284.396 480.419 283.829 481.303 283.579C481.739 283.456 482.197 283.414 482.651 283.456C483.104 283.498 483.544 283.624 483.946 283.825C484.347 284.026 484.702 284.299 484.99 284.628C485.278 284.957 485.493 285.336 485.624 285.743C485.879 286.567 485.779 287.451 485.345 288.207C484.911 288.963 484.177 289.531 483.3 289.791V289.791C482.975 289.876 482.639 289.92 482.302 289.921V289.921C481.554 289.92 480.827 289.697 480.225 289.284C479.623 288.872 479.179 288.291 478.956 287.626H478.979ZM1031.35 285.613C1030.95 284.844 1030.89 283.957 1031.19 283.146C1031.48 282.335 1032.11 281.666 1032.93 281.285V281.285C1033.76 280.911 1034.72 280.858 1035.59 281.138C1036.46 281.418 1037.17 282.008 1037.58 282.778C1037.98 283.548 1038.04 284.435 1037.75 285.245C1037.45 286.056 1036.82 286.725 1036 287.107C1035.52 287.317 1035 287.428 1034.47 287.432V287.432C1033.81 287.433 1033.17 287.263 1032.62 286.941C1032.06 286.62 1031.62 286.16 1031.33 285.613H1031.35ZM475.75 274.64C475.671 274.219 475.681 273.788 475.782 273.37C475.883 272.953 476.072 272.559 476.338 272.211C476.604 271.862 476.941 271.567 477.331 271.341C477.721 271.115 478.155 270.964 478.608 270.896V270.896C479.516 270.751 480.449 270.948 481.203 271.443C481.956 271.938 482.468 272.69 482.627 273.536V273.536C482.703 273.962 482.687 274.397 482.58 274.817C482.474 275.236 482.279 275.632 482.006 275.98C481.734 276.329 481.389 276.623 480.993 276.847C480.597 277.07 480.158 277.217 479.7 277.281V277.281C479.507 277.302 479.312 277.302 479.119 277.281V277.281C478.317 277.269 477.544 277 476.93 276.519C476.317 276.038 475.9 275.374 475.75 274.64V274.64ZM1024.64 274.878C1024.37 274.528 1024.19 274.133 1024.09 273.715C1023.99 273.297 1023.98 272.865 1024.06 272.444C1024.15 272.023 1024.32 271.622 1024.57 271.263C1024.82 270.904 1025.14 270.595 1025.52 270.355C1025.9 270.112 1026.32 269.94 1026.77 269.85C1027.21 269.76 1027.67 269.752 1028.12 269.829C1028.57 269.905 1029 270.064 1029.38 270.295C1029.77 270.527 1030.1 270.826 1030.35 271.177V271.177C1030.88 271.887 1031.08 272.761 1030.91 273.608C1030.75 274.455 1030.23 275.207 1029.47 275.701V275.701C1028.89 276.074 1028.2 276.27 1027.5 276.263V276.263C1026.92 276.276 1026.36 276.156 1025.85 275.915C1025.33 275.673 1024.9 275.317 1024.57 274.878H1024.64ZM1016.23 265.139C1015.92 264.828 1015.68 264.463 1015.52 264.065C1015.36 263.667 1015.29 263.243 1015.3 262.819C1015.32 262.395 1015.43 261.978 1015.62 261.592C1015.81 261.207 1016.08 260.86 1016.42 260.572V260.572C1017.09 259.983 1017.99 259.669 1018.91 259.697C1019.84 259.726 1020.71 260.095 1021.34 260.723V260.723C1021.65 261.036 1021.89 261.403 1022.05 261.802C1022.21 262.202 1022.28 262.627 1022.27 263.053C1022.25 263.479 1022.14 263.898 1021.95 264.286C1021.76 264.673 1021.49 265.022 1021.15 265.312V265.312C1020.52 265.862 1019.69 266.171 1018.83 266.177V266.177C1018.33 266.193 1017.84 266.108 1017.37 265.929C1016.91 265.749 1016.5 265.48 1016.16 265.139H1016.23ZM474.124 261.373C474.102 260.946 474.171 260.52 474.326 260.118C474.481 259.716 474.72 259.347 475.029 259.031C475.337 258.716 475.71 258.46 476.124 258.279C476.539 258.097 476.988 257.994 477.446 257.974V257.974C478.365 257.939 479.263 258.241 479.945 258.816C480.627 259.391 481.039 260.192 481.093 261.048V261.048C481.115 261.474 481.047 261.901 480.891 262.302C480.736 262.704 480.498 263.073 480.189 263.389C479.88 263.705 479.508 263.96 479.093 264.142C478.678 264.323 478.229 264.426 477.771 264.446H477.609C476.716 264.447 475.857 264.129 475.208 263.557C474.56 262.985 474.172 262.203 474.124 261.373V261.373ZM1006.38 256.589C1005.66 256.044 1005.21 255.256 1005.12 254.4C1005.03 253.544 1005.31 252.688 1005.89 252.022V252.022C1006.48 251.36 1007.33 250.942 1008.25 250.857C1009.18 250.772 1010.1 251.027 1010.82 251.568V251.568C1011.17 251.838 1011.46 252.171 1011.68 252.547C1011.9 252.924 1012.03 253.336 1012.07 253.761C1012.12 254.186 1012.07 254.614 1011.93 255.022C1011.8 255.429 1011.58 255.808 1011.28 256.135C1010.95 256.505 1010.54 256.804 1010.08 257.01C1009.61 257.216 1009.1 257.323 1008.59 257.325V257.325C1007.78 257.325 1007 257.065 1006.38 256.589V256.589ZM477.493 251.503C476.572 251.447 475.713 251.054 475.103 250.409C474.493 249.764 474.183 248.92 474.24 248.062V248.062C474.27 247.635 474.389 247.218 474.592 246.834C474.795 246.451 475.078 246.109 475.423 245.827C475.768 245.546 476.17 245.33 476.605 245.194C477.04 245.057 477.499 245.002 477.957 245.032V245.032C478.878 245.087 479.737 245.481 480.347 246.126C480.957 246.771 481.267 247.615 481.21 248.473V248.473C481.145 249.294 480.751 250.062 480.105 250.624C479.458 251.186 478.609 251.5 477.725 251.503H477.493ZM995.553 249.209C995.167 248.98 994.833 248.682 994.571 248.333C994.309 247.983 994.125 247.589 994.027 247.172C993.93 246.755 993.923 246.325 994.005 245.905C994.088 245.486 994.258 245.086 994.508 244.729V244.729C994.753 244.369 995.073 244.058 995.448 243.814C995.824 243.57 996.247 243.397 996.694 243.307C997.142 243.216 997.604 243.209 998.054 243.286C998.504 243.363 998.933 243.522 999.317 243.755V243.755C999.703 243.983 1000.04 244.281 1000.3 244.631C1000.56 244.98 1000.75 245.375 1000.84 245.791C1000.94 246.208 1000.95 246.639 1000.87 247.058C1000.78 247.477 1000.61 247.877 1000.36 248.235V248.235C1000.05 248.692 999.615 249.068 999.103 249.329C998.592 249.59 998.018 249.727 997.435 249.728V249.728C996.729 249.724 996.04 249.521 995.461 249.144L995.553 249.209ZM983.798 242.975C982.98 242.59 982.357 241.919 982.065 241.109C981.774 240.299 981.838 239.414 982.242 238.647V238.647C982.656 237.884 983.375 237.304 984.245 237.032C985.115 236.761 986.065 236.82 986.888 237.197V237.197C987.707 237.582 988.329 238.253 988.621 239.063C988.912 239.873 988.849 240.758 988.445 241.525V241.525C988.155 242.062 987.71 242.512 987.16 242.826C986.61 243.14 985.976 243.304 985.332 243.3V243.3C984.769 243.321 984.21 243.209 983.705 242.975H983.798ZM478.91 238.647C478.458 238.571 478.026 238.413 477.64 238.181C477.253 237.95 476.92 237.649 476.659 237.297C476.398 236.945 476.214 236.549 476.117 236.13C476.021 235.712 476.015 235.28 476.099 234.859V234.859C476.274 234.015 476.798 233.269 477.559 232.783C478.32 232.297 479.256 232.11 480.164 232.262C480.616 232.337 481.048 232.495 481.434 232.727C481.821 232.958 482.154 233.259 482.415 233.611C482.677 233.963 482.86 234.36 482.957 234.778C483.053 235.197 483.059 235.629 482.975 236.049V236.049C482.82 236.795 482.393 237.467 481.766 237.952C481.139 238.437 480.352 238.706 479.537 238.712V238.712C479.293 238.704 479.051 238.668 478.817 238.603L478.91 238.647ZM971.416 237.867C970.976 237.71 970.574 237.473 970.235 237.168C969.896 236.863 969.626 236.498 969.442 236.094C969.258 235.69 969.163 235.255 969.163 234.816C969.162 234.377 969.257 233.943 969.441 233.539V233.539C969.61 233.142 969.862 232.78 970.181 232.474C970.5 232.168 970.881 231.923 971.302 231.754C971.722 231.586 972.175 231.496 972.633 231.49C973.091 231.484 973.546 231.563 973.972 231.721C974.397 231.876 974.784 232.108 975.113 232.403C975.441 232.699 975.703 233.052 975.885 233.442C976.066 233.832 976.163 234.252 976.17 234.677C976.176 235.102 976.092 235.525 975.923 235.92V235.92C975.686 236.544 975.25 237.086 974.672 237.473C974.095 237.86 973.405 238.073 972.694 238.084V238.084C972.215 238.088 971.74 238 971.3 237.824L971.416 237.867ZM958.546 233.539C957.662 233.289 956.921 232.722 956.485 231.963C956.049 231.204 955.955 230.315 956.223 229.491C956.353 229.082 956.569 228.701 956.858 228.37C957.148 228.039 957.505 227.765 957.909 227.563C958.313 227.362 958.756 227.237 959.213 227.197C959.669 227.156 960.129 227.201 960.567 227.327C961.451 227.577 962.192 228.144 962.628 228.903C963.063 229.662 963.158 230.551 962.89 231.374V231.374C962.667 232.039 962.223 232.62 961.621 233.032C961.019 233.445 960.292 233.668 959.545 233.669C959.172 233.707 958.795 233.686 958.43 233.604L958.546 233.539ZM945.35 230.206C944.906 230.109 944.486 229.931 944.115 229.683C943.745 229.434 943.43 229.12 943.191 228.758C942.951 228.396 942.79 227.993 942.719 227.573C942.647 227.153 942.665 226.723 942.772 226.31V226.31C942.873 225.893 943.062 225.5 943.327 225.152C943.593 224.805 943.93 224.509 944.319 224.284C944.708 224.058 945.141 223.907 945.593 223.839C946.045 223.77 946.508 223.786 946.953 223.886V223.886C947.401 223.982 947.824 224.161 948.197 224.41C948.571 224.66 948.887 224.976 949.129 225.34C949.371 225.704 949.533 226.109 949.606 226.532C949.68 226.955 949.662 227.387 949.555 227.803V227.803C949.372 228.513 948.938 229.144 948.323 229.596C947.708 230.048 946.947 230.293 946.163 230.292C945.854 230.327 945.541 230.319 945.234 230.271L945.35 230.206ZM931.923 227.652C931.471 227.578 931.039 227.423 930.652 227.194C930.264 226.965 929.929 226.667 929.666 226.317C929.403 225.967 929.216 225.572 929.117 225.155C929.018 224.738 929.008 224.306 929.088 223.886V223.886C929.253 223.038 929.769 222.285 930.526 221.791C931.283 221.296 932.219 221.1 933.131 221.245V221.245C934.015 221.441 934.782 221.952 935.268 222.667C935.754 223.383 935.921 224.247 935.733 225.076V225.076C935.595 225.827 935.177 226.509 934.552 227C933.927 227.491 933.135 227.76 932.318 227.76V227.76L931.923 227.652ZM481.837 225.877C481.397 225.756 480.988 225.554 480.633 225.285C480.278 225.015 479.984 224.682 479.767 224.305C479.551 223.929 479.418 223.516 479.374 223.091C479.331 222.666 479.378 222.237 479.514 221.829V221.829C479.644 221.42 479.86 221.039 480.15 220.708C480.439 220.377 480.796 220.103 481.2 219.901C481.605 219.7 482.048 219.576 482.504 219.535C482.96 219.494 483.42 219.539 483.858 219.665V219.665C484.742 219.915 485.483 220.482 485.919 221.241C486.355 222 486.449 222.889 486.181 223.712C485.966 224.407 485.509 225.015 484.882 225.442C484.256 225.869 483.496 226.091 482.72 226.072V226.072C482.382 226.068 482.047 226.024 481.721 225.942L481.837 225.877ZM918.332 225.877C917.879 225.829 917.44 225.697 917.041 225.49C916.642 225.283 916.291 225.005 916.008 224.671C915.725 224.337 915.516 223.954 915.392 223.544C915.269 223.135 915.234 222.706 915.289 222.284V222.284C915.4 221.427 915.87 220.646 916.596 220.11C917.323 219.575 918.248 219.329 919.169 219.427C919.623 219.478 920.063 219.612 920.462 219.821C920.861 220.03 921.212 220.311 921.494 220.647C921.777 220.982 921.986 221.367 922.109 221.778C922.232 222.188 922.267 222.618 922.212 223.042V223.042C922.11 223.826 921.705 224.549 921.072 225.075C920.439 225.601 919.622 225.894 918.774 225.899H918.332V225.877ZM904.626 224.622C904.149 224.601 903.681 224.489 903.253 224.293C902.824 224.097 902.443 223.821 902.134 223.482C901.825 223.143 901.593 222.748 901.454 222.322C901.316 221.897 901.272 221.449 901.327 221.007V221.007C901.362 220.581 901.487 220.166 901.696 219.785C901.905 219.405 902.193 219.067 902.543 218.791C902.893 218.515 903.299 218.307 903.736 218.178C904.173 218.05 904.634 218.003 905.09 218.042V218.042C905.546 218.077 905.991 218.196 906.397 218.392C906.804 218.587 907.166 218.855 907.461 219.181C907.757 219.506 907.981 219.883 908.12 220.289C908.259 220.695 908.311 221.123 908.273 221.548V221.548C908.198 222.356 907.801 223.108 907.16 223.657C906.519 224.205 905.682 224.511 904.812 224.513H904.509L904.626 224.622ZM890.849 223.734C889.927 223.684 889.063 223.296 888.445 222.656C887.828 222.016 887.506 221.174 887.551 220.314C887.577 219.888 887.694 219.47 887.894 219.086C888.094 218.701 888.374 218.358 888.717 218.074C889.06 217.79 889.46 217.573 889.894 217.434C890.328 217.294 890.787 217.236 891.244 217.263V217.263C891.701 217.285 892.149 217.391 892.561 217.575C892.974 217.759 893.343 218.018 893.648 218.336C893.952 218.654 894.186 219.025 894.336 219.428C894.486 219.831 894.548 220.257 894.52 220.682V220.682C894.467 221.509 894.076 222.286 893.428 222.853C892.78 223.42 891.924 223.736 891.035 223.734H890.849ZM876.911 223.085C875.988 223.04 875.122 222.658 874.5 222.022C873.878 221.386 873.551 220.547 873.588 219.687V219.687C873.654 218.849 874.066 218.067 874.737 217.506C875.409 216.945 876.288 216.648 877.189 216.678V216.678C877.647 216.698 878.096 216.801 878.511 216.982C878.926 217.164 879.298 217.42 879.607 217.735C879.916 218.051 880.154 218.42 880.309 218.822C880.465 219.224 880.533 219.65 880.511 220.076C880.47 220.911 880.084 221.698 879.435 222.275C878.786 222.851 877.923 223.172 877.027 223.171H876.864L876.911 223.085ZM862.972 222.5C862.049 222.461 861.181 222.085 860.555 221.452C859.928 220.82 859.595 219.984 859.626 219.124V219.124C859.669 218.261 860.076 217.448 860.76 216.864C861.443 216.28 862.347 215.972 863.274 216.007C863.731 216.027 864.181 216.13 864.595 216.312C865.01 216.493 865.383 216.749 865.691 217.064C866 217.38 866.239 217.749 866.394 218.151C866.549 218.553 866.618 218.979 866.596 219.405V219.405C866.554 220.24 866.168 221.027 865.519 221.604C864.87 222.18 864.008 222.501 863.111 222.5H862.948H862.972ZM849.033 221.851C848.575 221.829 848.126 221.723 847.713 221.539C847.299 221.355 846.928 221.097 846.622 220.779C846.315 220.461 846.079 220.091 845.927 219.688C845.774 219.285 845.709 218.858 845.734 218.431C845.761 218.005 845.877 217.587 846.078 217.203C846.278 216.818 846.558 216.475 846.901 216.191C847.244 215.907 847.644 215.69 848.077 215.551C848.511 215.411 848.97 215.353 849.428 215.38V215.38C849.89 215.402 850.342 215.509 850.759 215.696C851.176 215.882 851.549 216.145 851.856 216.467C852.163 216.789 852.398 217.165 852.548 217.573C852.697 217.981 852.758 218.413 852.727 218.843C852.674 219.672 852.284 220.45 851.637 221.021C850.989 221.592 850.133 221.912 849.242 221.916H849.056L849.033 221.851ZM835.094 220.985C834.637 220.955 834.191 220.841 833.781 220.649C833.372 220.457 833.008 220.191 832.709 219.867C832.411 219.543 832.185 219.167 832.044 218.761C831.903 218.354 831.85 217.926 831.888 217.501V217.501C831.965 216.645 832.401 215.852 833.101 215.293C833.801 214.734 834.709 214.454 835.628 214.514V214.514C836.084 214.549 836.529 214.668 836.935 214.864C837.342 215.059 837.704 215.327 837.999 215.653C838.295 215.978 838.519 216.355 838.658 216.761C838.797 217.167 838.849 217.595 838.811 218.02V218.02C838.741 218.828 838.35 219.582 837.714 220.135C837.078 220.688 836.243 220.999 835.373 221.007H835.094V220.985ZM821.155 219.752C820.699 219.706 820.258 219.577 819.856 219.371C819.455 219.165 819.101 218.887 818.816 218.552C818.531 218.218 818.319 217.834 818.194 217.424C818.07 217.013 818.034 216.583 818.089 216.159V216.159C818.188 215.308 818.644 214.528 819.358 213.989C820.071 213.45 820.984 213.195 821.899 213.28V213.28C822.814 213.383 823.649 213.818 824.223 214.491C824.797 215.163 825.063 216.019 824.965 216.873V216.873C824.868 217.665 824.462 218.396 823.823 218.927C823.185 219.458 822.359 219.752 821.504 219.752H821.109H821.155ZM807.216 217.999C806.303 217.86 805.486 217.391 804.942 216.694C804.398 215.997 804.172 215.128 804.312 214.276C804.461 213.425 804.964 212.664 805.712 212.157C806.461 211.65 807.394 211.439 808.308 211.57V211.57C808.762 211.636 809.197 211.785 809.588 212.008C809.98 212.231 810.321 212.524 810.59 212.87C810.86 213.215 811.054 213.608 811.161 214.024C811.267 214.439 811.285 214.871 811.212 215.293V215.293C811.08 216.054 810.661 216.746 810.031 217.246C809.401 217.745 808.601 218.02 807.774 218.02H807.216V217.999ZM793.277 215.531C792.83 215.439 792.407 215.266 792.032 215.021C791.657 214.776 791.337 214.465 791.092 214.105C790.846 213.746 790.678 213.344 790.599 212.924C790.519 212.504 790.53 212.073 790.629 211.657V211.657C790.728 211.24 790.914 210.846 791.177 210.497C791.439 210.147 791.773 209.85 792.159 209.62C792.546 209.391 792.976 209.235 793.427 209.161C793.878 209.087 794.34 209.097 794.787 209.19V209.19C795.234 209.282 795.658 209.455 796.033 209.7C796.408 209.944 796.727 210.256 796.973 210.615C797.219 210.975 797.387 211.377 797.466 211.797C797.545 212.217 797.535 212.647 797.436 213.064C797.265 213.787 796.833 214.433 796.211 214.895C795.589 215.356 794.816 215.603 794.021 215.596C793.786 215.594 793.552 215.565 793.324 215.51L793.277 215.531ZM486.158 213.691C485.732 213.521 485.348 213.272 485.027 212.96C484.706 212.648 484.456 212.279 484.292 211.875C484.127 211.472 484.051 211.041 484.068 210.609C484.086 210.178 484.196 209.754 484.392 209.363V209.363C484.576 208.966 484.843 208.608 485.178 208.309C485.513 208.01 485.908 207.777 486.342 207.624C486.775 207.471 487.237 207.4 487.7 207.416C488.164 207.432 488.619 207.535 489.039 207.718V207.718C489.464 207.889 489.849 208.138 490.17 208.449C490.492 208.761 490.743 209.129 490.909 209.532C491.076 209.935 491.155 210.365 491.141 210.797C491.126 211.229 491.02 211.654 490.827 212.047V212.047C490.554 212.62 490.107 213.107 489.542 213.449C488.977 213.791 488.318 213.973 487.645 213.973C487.147 213.972 486.655 213.868 486.204 213.67L486.158 213.691ZM779.641 212.35C779.204 212.228 778.797 212.028 778.444 211.759C778.09 211.491 777.797 211.16 777.581 210.786C777.365 210.412 777.231 210.002 777.186 209.58C777.14 209.157 777.185 208.73 777.317 208.324V208.324C777.448 207.917 777.663 207.538 777.951 207.209C778.239 206.879 778.594 206.606 778.995 206.405C779.397 206.204 779.837 206.079 780.291 206.037C780.744 205.995 781.202 206.036 781.638 206.159V206.159C782.075 206.281 782.482 206.481 782.835 206.75C783.189 207.018 783.482 207.349 783.698 207.723C783.914 208.097 784.048 208.507 784.093 208.929C784.139 209.352 784.094 209.779 783.962 210.185V210.185C783.722 210.826 783.273 211.379 782.676 211.768C782.08 212.156 781.367 212.36 780.639 212.35V212.35C780.308 212.392 779.972 212.392 779.641 212.35ZM766.143 208.172C765.711 208.029 765.313 207.808 764.973 207.522C764.633 207.236 764.357 206.889 764.16 206.503C763.964 206.117 763.851 205.699 763.829 205.272C763.806 204.846 763.874 204.419 764.029 204.017V204.017C764.182 203.614 764.42 203.244 764.727 202.927C765.034 202.61 765.406 202.352 765.82 202.169C766.235 201.986 766.684 201.881 767.142 201.86C767.6 201.839 768.058 201.903 768.49 202.047V202.047C768.922 202.19 769.319 202.411 769.66 202.698C770 202.984 770.276 203.33 770.472 203.716C770.669 204.102 770.781 204.521 770.804 204.947C770.826 205.374 770.758 205.801 770.604 206.203V206.203C770.357 206.834 769.908 207.38 769.319 207.767C768.729 208.154 768.026 208.363 767.305 208.367V208.367C766.908 208.364 766.516 208.298 766.143 208.172V208.172ZM753.017 203.476C752.581 203.315 752.185 203.074 751.851 202.767C751.518 202.46 751.254 202.093 751.076 201.689C750.899 201.285 750.81 200.851 750.816 200.414C750.822 199.978 750.923 199.547 751.112 199.147C751.288 198.743 751.548 198.375 751.878 198.066C752.208 197.757 752.601 197.513 753.034 197.347C753.467 197.182 753.931 197.099 754.399 197.103C754.867 197.107 755.329 197.199 755.759 197.372V197.372C756.193 197.535 756.587 197.778 756.919 198.085C757.25 198.393 757.513 198.759 757.69 199.163C757.868 199.566 757.957 199.998 757.952 200.434C757.948 200.87 757.85 201.301 757.664 201.701V201.701C757.403 202.28 756.969 202.776 756.412 203.129C755.855 203.483 755.201 203.678 754.527 203.692V203.692C754.044 203.706 753.563 203.633 753.11 203.476H753.017ZM492.128 202.004C491.337 201.559 490.767 200.841 490.54 200.006C490.314 199.171 490.451 198.287 490.92 197.545V197.545C491.155 197.178 491.465 196.858 491.832 196.602C492.2 196.347 492.618 196.162 493.062 196.057C493.507 195.953 493.969 195.931 494.423 195.993C494.877 196.055 495.313 196.2 495.706 196.42V196.42C496.497 196.865 497.068 197.583 497.294 198.418C497.52 199.253 497.384 200.137 496.914 200.878V200.878C496.602 201.36 496.163 201.758 495.638 202.035C495.113 202.311 494.52 202.457 493.917 202.458V202.458C493.32 202.441 492.737 202.285 492.221 202.004H492.128ZM740.124 198.303C739.702 198.128 739.322 197.876 739.006 197.563C738.689 197.249 738.443 196.881 738.281 196.478C738.119 196.075 738.044 195.646 738.062 195.217C738.079 194.787 738.188 194.364 738.382 193.974V193.974C738.567 193.579 738.836 193.223 739.172 192.927C739.507 192.63 739.904 192.4 740.337 192.248C740.77 192.097 741.231 192.028 741.693 192.046C742.156 192.063 742.609 192.167 743.028 192.351C743.451 192.524 743.834 192.774 744.153 193.087C744.471 193.399 744.72 193.767 744.885 194.17C745.049 194.573 745.126 195.003 745.11 195.433C745.094 195.864 744.987 196.288 744.793 196.68V196.68C744.518 197.25 744.071 197.735 743.506 198.073C742.941 198.411 742.282 198.589 741.611 198.584V198.584C741.13 198.581 740.656 198.485 740.217 198.303H740.124ZM727.532 192.87C726.702 192.496 726.063 191.832 725.754 191.021C725.445 190.211 725.492 189.32 725.883 188.542V188.542C726.08 188.156 726.356 187.811 726.696 187.525C727.036 187.239 727.433 187.019 727.864 186.876C728.296 186.733 728.753 186.671 729.211 186.693C729.668 186.715 730.116 186.821 730.529 187.005V187.005C730.943 187.188 731.314 187.445 731.62 187.762C731.927 188.079 732.164 188.449 732.317 188.851C732.47 189.253 732.537 189.679 732.513 190.105C732.489 190.531 732.376 190.948 732.179 191.334V191.334C731.897 191.886 731.452 192.352 730.897 192.677C730.342 193.003 729.699 193.175 729.043 193.173C728.521 193.18 728.005 193.076 727.532 192.87V192.87ZM499.748 191.139C499.387 190.878 499.084 190.554 498.858 190.184C498.631 189.814 498.486 189.406 498.43 188.983C498.374 188.561 498.408 188.132 498.531 187.722C498.653 187.312 498.862 186.928 499.144 186.594V186.594C499.426 186.256 499.776 185.974 500.175 185.762C500.574 185.551 501.014 185.416 501.47 185.363C501.925 185.311 502.387 185.343 502.829 185.458C503.272 185.572 503.685 185.767 504.046 186.031V186.031C504.769 186.567 505.236 187.348 505.345 188.203C505.453 189.058 505.195 189.919 504.627 190.598V190.598C504.3 190.983 503.883 191.294 503.409 191.508C502.934 191.722 502.413 191.832 501.886 191.831V191.831C501.103 191.825 500.347 191.565 499.748 191.095V191.139ZM715.034 187.156C714.211 186.774 713.583 186.107 713.283 185.297C712.983 184.488 713.036 183.601 713.431 182.828V182.828C713.841 182.061 714.558 181.475 715.426 181.196C716.295 180.917 717.247 180.966 718.077 181.334V181.334C718.9 181.716 719.529 182.384 719.828 183.193C720.128 184.003 720.075 184.89 719.68 185.663V185.663C719.389 186.206 718.941 186.664 718.388 186.984C717.834 187.305 717.196 187.477 716.544 187.481V187.481C716.021 187.476 715.506 187.365 715.034 187.156V187.156ZM508.692 181.161C508.038 180.549 507.671 179.72 507.671 178.856C507.671 177.992 508.038 177.163 508.692 176.551V176.551C509.349 175.948 510.233 175.61 511.155 175.61C512.077 175.61 512.961 175.948 513.617 176.551V176.551C513.943 176.851 514.202 177.208 514.379 177.602C514.555 177.996 514.646 178.418 514.646 178.845C514.646 179.272 514.555 179.695 514.379 180.088C514.202 180.482 513.943 180.839 513.617 181.139V181.139C513.297 181.444 512.913 181.685 512.49 181.849C512.067 182.012 511.613 182.095 511.155 182.092V182.092C510.691 182.1 510.231 182.022 509.8 181.862C509.369 181.702 508.977 181.464 508.646 181.161H508.692ZM702.559 181.399C702.147 181.215 701.779 180.955 701.476 180.637C701.173 180.318 700.941 179.947 700.794 179.544C700.647 179.141 700.587 178.714 700.619 178.29C700.651 177.865 700.773 177.45 700.979 177.07V177.07C701.177 176.687 701.455 176.344 701.797 176.061C702.138 175.778 702.536 175.561 702.968 175.422C703.4 175.283 703.857 175.225 704.313 175.252C704.769 175.279 705.215 175.389 705.625 175.577V175.577C706.448 175.959 707.077 176.627 707.376 177.436C707.676 178.246 707.623 179.132 707.228 179.906V179.906C706.937 180.449 706.489 180.906 705.936 181.227C705.382 181.548 704.744 181.72 704.092 181.724V181.724C703.545 181.738 703.002 181.627 702.512 181.399H702.559ZM690.083 175.728C689.252 175.355 688.614 174.689 688.31 173.877C688.005 173.066 688.058 172.175 688.457 171.4V171.4C688.654 171.014 688.93 170.669 689.27 170.384C689.611 170.099 690.009 169.879 690.441 169.739C690.873 169.598 691.331 169.538 691.788 169.563C692.245 169.588 692.692 169.697 693.103 169.885V169.885C693.517 170.068 693.888 170.325 694.194 170.642C694.5 170.959 694.735 171.33 694.887 171.733C695.038 172.135 695.102 172.562 695.075 172.988C695.048 173.414 694.931 173.83 694.73 174.213C694.443 174.762 693.998 175.225 693.444 175.551C692.889 175.876 692.248 176.05 691.593 176.053V176.053C691.055 176.058 690.522 175.947 690.037 175.728H690.083ZM518.798 172.265C518.23 171.586 517.972 170.726 518.08 169.871C518.189 169.016 518.656 168.235 519.379 167.699V167.699C520.108 167.169 521.031 166.929 521.949 167.03C522.867 167.131 523.705 167.566 524.281 168.24V168.24C524.848 168.915 525.105 169.772 524.996 170.624C524.888 171.475 524.422 172.252 523.7 172.785V172.785C523.09 173.248 522.326 173.5 521.539 173.499C521.005 173.502 520.477 173.392 519.994 173.179C519.512 172.965 519.087 172.653 518.752 172.265H518.798ZM677.562 170.231C677.14 170.056 676.76 169.804 676.444 169.49C676.129 169.177 675.884 168.807 675.723 168.404C675.563 168.001 675.491 167.572 675.512 167.142C675.532 166.712 675.645 166.291 675.843 165.902V165.902C676.232 165.117 676.939 164.507 677.81 164.207C678.681 163.906 679.645 163.94 680.489 164.301C680.906 164.48 681.282 164.734 681.593 165.049C681.905 165.364 682.146 165.734 682.304 166.136C682.462 166.538 682.532 166.966 682.512 167.394C682.491 167.822 682.38 168.242 682.185 168.629V168.629C681.909 169.195 681.465 169.676 680.905 170.013C680.345 170.351 679.692 170.532 679.025 170.534V170.534C678.504 170.539 677.988 170.435 677.515 170.231H677.562ZM529.926 164.517C529.684 164.155 529.522 163.752 529.448 163.332C529.375 162.911 529.391 162.481 529.497 162.067C529.603 161.652 529.796 161.261 530.065 160.916C530.334 160.572 530.674 160.28 531.064 160.058C531.453 159.833 531.885 159.682 532.336 159.613C532.788 159.545 533.25 159.56 533.695 159.659C534.14 159.757 534.559 159.937 534.929 160.188C535.299 160.439 535.612 160.755 535.85 161.119V161.119C536.092 161.481 536.254 161.884 536.328 162.304C536.401 162.725 536.385 163.155 536.279 163.569C536.173 163.984 535.98 164.375 535.711 164.72C535.442 165.064 535.102 165.356 534.712 165.578V165.578C534.168 165.896 533.541 166.068 532.9 166.075V166.075C532.302 166.075 531.715 165.931 531.194 165.658C530.673 165.386 530.237 164.992 529.926 164.517V164.517ZM664.877 165.058C664.446 164.893 664.054 164.649 663.725 164.34C663.397 164.031 663.138 163.664 662.965 163.26C662.791 162.857 662.707 162.424 662.716 161.99C662.725 161.555 662.828 161.126 663.019 160.729V160.729C663.194 160.325 663.454 159.958 663.785 159.649C664.115 159.341 664.509 159.098 664.943 158.934C665.376 158.771 665.841 158.69 666.308 158.697C666.776 158.704 667.238 158.799 667.665 158.976V158.976C668.095 159.144 668.485 159.389 668.811 159.698C669.138 160.008 669.396 160.375 669.569 160.778C669.742 161.181 669.827 161.612 669.819 162.045C669.811 162.479 669.711 162.908 669.524 163.305V163.305C669.259 163.894 668.813 164.397 668.243 164.751C667.673 165.105 667.003 165.295 666.318 165.296V165.296C665.825 165.312 665.334 165.231 664.877 165.058V165.058ZM652.077 160.405C651.215 160.098 650.516 159.489 650.129 158.709C649.743 157.928 649.7 157.037 650.009 156.227V156.227C650.333 155.421 650.986 154.766 651.826 154.405C652.665 154.044 653.624 154.007 654.493 154.301V154.301C655.359 154.603 656.062 155.211 656.449 155.994C656.836 156.776 656.876 157.669 656.56 158.478V158.478C656.318 159.108 655.874 159.653 655.288 160.04C654.702 160.428 654.003 160.638 653.285 160.643V160.643C652.871 160.628 652.462 160.547 652.077 160.405ZM541.96 158.089C541.764 157.701 541.653 157.281 541.633 156.853C541.612 156.425 541.683 155.998 541.841 155.596C541.998 155.193 542.24 154.824 542.551 154.509C542.863 154.194 543.238 153.939 543.656 153.76V153.76C544.071 153.577 544.52 153.473 544.978 153.452C545.436 153.431 545.895 153.495 546.326 153.64C546.758 153.785 547.155 154.008 547.494 154.296C547.833 154.584 548.108 154.931 548.302 155.318V155.318C548.497 155.706 548.609 156.126 548.629 156.554C548.65 156.982 548.579 157.409 548.421 157.812C548.264 158.214 548.022 158.583 547.711 158.898C547.399 159.213 547.024 159.468 546.606 159.647V159.647C546.146 159.842 545.648 159.945 545.143 159.95V159.95C544.472 159.952 543.814 159.773 543.25 159.435C542.685 159.097 542.237 158.615 541.96 158.046V158.089ZM639.09 156.336C638.206 156.086 637.465 155.519 637.03 154.76C636.594 154.001 636.5 153.112 636.767 152.288V152.288C637.036 151.465 637.644 150.774 638.459 150.368C639.273 149.962 640.227 149.875 641.112 150.124V150.124C641.996 150.374 642.737 150.941 643.172 151.7C643.608 152.459 643.702 153.348 643.435 154.171V154.171C643.216 154.834 642.776 155.414 642.178 155.827C641.581 156.24 640.857 156.464 640.113 156.466C639.765 156.451 639.421 156.393 639.09 156.292V156.336ZM554.737 152.916C554.592 152.511 554.533 152.083 554.565 151.657C554.598 151.231 554.72 150.815 554.925 150.433C555.13 150.051 555.414 149.711 555.76 149.431C556.107 149.151 556.509 148.938 556.944 148.804V148.804C557.386 148.673 557.852 148.626 558.314 148.664C558.776 148.703 559.225 148.826 559.636 149.028C560.046 149.229 560.41 149.504 560.706 149.837C561.001 150.17 561.223 150.555 561.358 150.968V150.968C561.498 151.38 561.549 151.814 561.508 152.244C561.466 152.675 561.334 153.093 561.118 153.476C560.902 153.858 560.606 154.197 560.249 154.473C559.891 154.748 559.479 154.955 559.035 155.08V155.08C558.683 155.192 558.315 155.25 557.943 155.254V155.254C557.212 155.229 556.508 154.99 555.932 154.57C555.356 154.15 554.938 153.571 554.737 152.916ZM625.895 153.046C625.449 152.954 625.026 152.78 624.652 152.535C624.278 152.29 623.96 151.979 623.716 151.619C623.471 151.258 623.306 150.857 623.23 150.437C623.153 150.017 623.167 149.587 623.27 149.172C623.369 148.755 623.555 148.361 623.818 148.011C624.08 147.662 624.414 147.364 624.8 147.135C625.186 146.906 625.617 146.75 626.068 146.676C626.519 146.602 626.981 146.612 627.428 146.704V146.704C628.327 146.895 629.108 147.41 629.599 148.136C630.091 148.862 630.255 149.741 630.053 150.578V150.578C629.887 151.284 629.472 151.917 628.874 152.376C628.276 152.835 627.529 153.094 626.755 153.111V153.111L625.895 153.046ZM568.049 149.215C567.877 148.369 568.068 147.494 568.58 146.778C569.093 146.062 569.886 145.562 570.79 145.384V145.384C571.696 145.219 572.635 145.394 573.401 145.873C574.168 146.352 574.699 147.095 574.879 147.938V147.938C575.057 148.779 574.871 149.651 574.362 150.364C573.853 151.078 573.062 151.575 572.161 151.747V151.747C571.929 151.769 571.696 151.769 571.464 151.747C570.671 151.747 569.902 151.496 569.282 151.036C568.662 150.576 568.227 149.934 568.049 149.215V149.215ZM612.514 150.795C612.059 150.741 611.62 150.605 611.222 150.393C610.824 150.181 610.474 149.898 610.194 149.561C609.913 149.223 609.707 148.837 609.587 148.425C609.467 148.013 609.435 147.582 609.494 147.159V147.159C609.621 146.305 610.105 145.533 610.84 145.01C611.575 144.487 612.502 144.256 613.42 144.367V144.367C614.336 144.485 615.165 144.936 615.726 145.621C616.287 146.306 616.536 147.17 616.417 148.025V148.025C616.304 148.805 615.891 149.52 615.254 150.038C614.617 150.556 613.8 150.84 612.955 150.838V150.838L612.514 150.795ZM581.779 147.072C581.701 146.217 581.99 145.369 582.582 144.712C583.174 144.055 584.021 143.643 584.938 143.566C585.86 143.506 586.771 143.785 587.474 144.343C588.178 144.902 588.619 145.695 588.701 146.553V146.553C588.772 147.411 588.474 148.26 587.873 148.913C587.272 149.567 586.417 149.971 585.496 150.037H585.217C584.349 150.035 583.514 149.728 582.877 149.179C582.241 148.63 581.848 147.878 581.779 147.072V147.072ZM599.039 149.756C598.582 149.745 598.131 149.65 597.713 149.476C597.295 149.302 596.917 149.054 596.602 148.744C596.287 148.435 596.041 148.07 595.877 147.672C595.713 147.274 595.635 146.849 595.648 146.423C595.678 145.56 596.074 144.743 596.749 144.151C597.423 143.559 598.322 143.24 599.249 143.263V143.263C599.706 143.271 600.157 143.365 600.576 143.537C600.994 143.71 601.371 143.959 601.685 144.27C601.999 144.58 602.243 144.946 602.403 145.345C602.563 145.745 602.636 146.17 602.617 146.596V146.596C602.593 147.44 602.214 148.241 601.563 148.828C600.911 149.415 600.039 149.74 599.132 149.734V149.734L599.039 149.756Z" fill="url(#paint0_linear_446_26)"/>
</g>
</g>
<defs>
<linearGradient id="paint0_linear_446_26" x1="188864" y1="119102" x2="375061" y2="119102" gradientUnits="userSpaceOnUse">
<stop stop-color="#5C5C5C"/>
<stop offset="1" stop-color="#4C29CC"/>
</linearGradient>
<clipPath id="clip0_446_26">
<rect width="1440" height="900" fill="white"/>
</clipPath>
</defs>
</svg>
