<svg width="60" height="60" viewBox="0 0 60 60" fill="none" xmlns="http://www.w3.org/2000/svg">
<g clip-path="url(#clip0_938_221)">
<path d="M51.3775 27.6666C51.3404 26.3106 50.6743 25.0979 49.6627 24.3005C49.9299 23.7279 50.0792 23.0896 50.0792 22.4172C50.0792 19.953 48.0744 17.9481 45.6102 17.9481H40.4301L40.4567 11.6952C40.4619 10.4705 39.9888 9.31795 39.1245 8.45006C38.2603 7.58217 37.1098 7.10416 35.8851 7.10416C34.0475 7.10416 32.3944 8.20045 31.6739 9.89697C31.0563 11.351 29.8763 13.5101 28.2614 16.1405C27.5771 17.2553 26.3385 17.948 25.0293 17.948H21.3559H17.7914H8.61914V43.0075H17.7915H21.356L44.3102 43.0077C46.7744 43.0077 48.7793 41.0027 48.7793 38.5385C48.7793 37.8741 48.6335 37.2431 48.3723 36.6759C49.4113 35.8568 50.0793 34.5873 50.0793 33.1648C50.0793 32.5013 49.934 31.8713 49.6736 31.3046C49.8275 31.1831 49.9745 31.0504 50.1136 30.9074C50.962 30.0352 51.4109 28.8842 51.3775 27.6666ZM17.7914 39.443H12.1836V21.5126H17.7914V39.443ZM47.559 28.4215C47.4594 28.5238 47.2428 28.6955 46.9105 28.6955H45.6105H42.0488V32.26H45.6105C46.1093 32.26 46.5151 32.666 46.5151 33.1647C46.5151 33.6635 46.1094 34.0693 45.6105 34.0693H44.3104H42.0489V37.6338H44.3104C44.8092 37.6338 45.215 38.0397 45.215 38.5384C45.215 39.0371 44.8093 39.443 44.3104 39.443H21.3559V21.5126H25.0293C27.5689 21.5126 29.9714 20.1687 31.2994 18.0053C32.4889 16.0677 34.0887 13.33 34.955 11.2905C35.1154 10.9128 35.4807 10.6687 35.8853 10.6687C36.1552 10.6687 36.4085 10.7739 36.599 10.9651C36.7894 11.1563 36.8935 11.4102 36.8924 11.6801L36.8505 21.5126H45.6104C46.1091 21.5126 46.515 21.9186 46.515 22.4172C46.515 22.9159 46.1091 23.3219 45.6104 23.3219H42.0487V26.8864H45.6104H46.8546C47.3707 26.8864 47.8014 27.2801 47.8147 27.7644C47.8238 28.0981 47.6584 28.3194 47.559 28.4215Z" fill="black"/>
<path d="M0 1.17365V50.1265H23.5945L30.0001 58.8264L36.4057 50.1265H60.0001V1.17365H0ZM56.4356 46.562H34.6035L29.9999 52.8144L25.3963 46.5619H3.5645V4.73803H56.4356V46.562Z" fill="black"/>
</g>
<defs>
<clipPath id="clip0_938_221">
<rect width="60" height="60" fill="white"/>
</clipPath>
</defs>
</svg>
